<svg width="221" height="161" viewBox="0 0 221 161" fill="none" xmlns="http://www.w3.org/2000/svg">
<path d="M0.840328 90.3374C2.02718 93.1473 3.33027 95.9189 4.67637 98.665C6.02247 101.411 7.43483 104.122 8.8995 106.806C10.3642 109.489 11.8928 112.138 13.4795 114.75C15.0662 117.361 16.7076 119.942 18.4373 122.461C21.8804 127.507 25.6072 132.366 29.7234 136.87C30.2244 137.45 30.7696 137.98 31.2903 138.536L32.0808 139.363C32.3435 139.639 32.6225 139.898 32.8945 140.167C33.4409 140.697 33.9779 141.238 34.5335 141.759L36.2237 143.296C38.5025 145.31 40.9129 147.172 43.439 148.868H43.4448C43.5025 148.904 43.5524 148.951 43.5915 149.006C43.6306 149.061 43.6582 149.124 43.6726 149.19C43.687 149.256 43.6878 149.324 43.6752 149.391C43.6625 149.457 43.6366 149.52 43.5989 149.577C43.5612 149.633 43.5125 149.681 43.4558 149.718C43.399 149.755 43.3354 149.781 43.2686 149.793C43.2018 149.805 43.1333 149.803 43.0671 149.789C43.0009 149.774 42.9384 149.746 42.8833 149.706V149.706C40.3282 147.966 37.8921 146.057 35.5914 143.994L33.893 142.424C33.3351 141.893 32.798 141.341 32.2494 140.801C31.9785 140.528 31.6984 140.262 31.4356 139.982L30.6452 139.141C30.1233 138.577 29.5781 138.032 29.0771 137.449C24.962 132.872 21.255 127.956 17.8363 122.861C16.1182 120.317 14.4966 117.712 12.9204 115.081C11.3441 112.451 9.83526 109.78 8.38686 107.083C6.93847 104.386 5.54819 101.649 4.21953 98.8876C2.89087 96.1264 1.61451 93.3409 0.441612 90.502C0.419877 90.4498 0.419852 90.391 0.441543 90.3387C0.463234 90.2865 0.504864 90.2449 0.557274 90.2232C0.609685 90.2016 0.668583 90.2015 0.721012 90.2232C0.773441 90.2448 0.815105 90.2863 0.83684 90.3386L0.840328 90.3374Z" fill="#DCE5FE"/>
<path d="M28.7016 22.3408C28.5574 27.2419 28.619 32.158 28.7771 37.0625C28.9352 41.967 29.2223 46.8726 29.6257 51.7655C30.4394 61.5502 31.7181 71.3001 33.6256 80.9271C35.5332 90.5541 38.0941 100.061 41.6465 109.2C42.5276 111.485 43.4959 113.738 44.52 115.962C45.5441 118.187 46.6484 120.367 47.8364 122.513C50.1858 126.804 52.9301 130.868 56.0339 134.653V134.653C56.0835 134.698 56.1227 134.753 56.149 134.814C56.1753 134.875 56.188 134.942 56.1863 135.008C56.1845 135.075 56.1683 135.141 56.1388 135.201C56.1093 135.261 56.0672 135.313 56.0153 135.356C55.9635 135.398 55.9031 135.428 55.8383 135.445C55.7736 135.462 55.7059 135.464 55.64 135.453C55.5741 135.441 55.5116 135.415 55.4566 135.377C55.4016 135.339 55.3554 135.29 55.3213 135.232V135.232C52.1993 131.391 49.4418 127.268 47.0843 122.917C45.8955 120.754 44.7908 118.547 43.7702 116.297C42.7484 114.052 41.7848 111.776 40.9083 109.475C37.3745 100.266 34.8636 90.7036 32.9782 81.0465C31.0927 71.3893 29.8698 61.6047 29.1015 51.8003C28.7186 46.897 28.4575 41.9867 28.318 37.0694C28.1808 32.1533 28.1424 27.2361 28.3087 22.3153C28.3095 22.2898 28.3154 22.2646 28.326 22.2413C28.3366 22.218 28.3517 22.197 28.3704 22.1795C28.3891 22.162 28.4111 22.1484 28.4351 22.1394C28.4591 22.1303 28.4847 22.1261 28.5104 22.127C28.536 22.1278 28.5612 22.1337 28.5846 22.1442C28.608 22.1548 28.629 22.1698 28.6466 22.1885C28.6641 22.2072 28.6778 22.2291 28.6868 22.2531C28.6959 22.277 28.7001 22.3025 28.6992 22.3281L28.7016 22.3408Z" fill="#DCE5FE"/>
<path d="M53.7009 7.80933C55.1842 5.82017 59.6212 5.7228 63.1167 3.12739C63.3788 2.93467 63.6596 2.76848 63.9548 2.63126C70.2098 -0.310744 76.5405 0.669924 81.2007 3.57715C81.2157 3.58654 81.2301 3.597 81.2437 3.60845C84.7228 6.42295 88.982 2.29046 95.0069 5.99521C95.1406 6.07635 95.2557 6.17372 95.1685 6.30355C91.6544 11.5604 86.5665 17.3992 77.4809 22.0951C77.4142 22.1292 77.3399 22.1461 77.2649 22.1441C77.1899 22.142 77.1167 22.1212 77.0519 22.0835L53.8311 8.45499C53.7775 8.42339 53.7312 8.38089 53.6951 8.33025C53.659 8.27962 53.634 8.22198 53.6217 8.16109C53.6095 8.1002 53.6102 8.03741 53.6238 7.97681C53.6375 7.91621 53.6637 7.85914 53.7009 7.80933V7.80933Z" fill="url(#paint0_linear_22:1399)"/>
<path d="M64.7418 27.4366C37.3687 42.3901 15.8648 95.7542 19.9973 139.783C16.0927 164.603 163.187 177.19 136.991 107.869C123.855 78.7223 110.255 42.9639 83.0909 27.3822L64.7418 27.4366Z" fill="url(#paint1_linear_22:1399)"/>
<path d="M63.6747 26.8941C60.4547 20.1233 57.6776 14.7355 53.5719 8.45037C53.5623 8.43303 53.5581 8.41322 53.5598 8.39348C53.5615 8.37374 53.5691 8.35495 53.5816 8.33952C53.5941 8.3241 53.6108 8.31273 53.6298 8.30687C53.6488 8.30101 53.6691 8.30093 53.6882 8.30663C57.8671 9.59448 62.2007 8.82479 68.9986 6.90982C69.0081 6.90738 69.0171 6.90347 69.0254 6.89823C72.8707 4.42801 77.2635 5.26726 81.8412 7.21584L81.8621 7.2228C86.8037 8.20578 88.488 9.04967 95.0698 6.13548C95.0888 6.12659 95.1101 6.12395 95.1307 6.12796C95.1513 6.13197 95.1701 6.14242 95.1843 6.15778C95.1986 6.17315 95.2075 6.19265 95.2099 6.21344C95.2123 6.23423 95.208 6.25524 95.1976 6.27343C90.2325 12.4179 86.076 19.1704 82.8293 26.3667C82.8212 26.3808 82.8162 26.3965 82.8146 26.4127C82.813 26.4288 82.8149 26.4452 82.82 26.4606C83.4152 29.9845 64.0943 30.7426 63.6747 26.8941Z" fill="url(#paint2_linear_22:1399)"/>
<g opacity="0.87">
<path opacity="0.87" d="M69.9774 129.157L69.7949 123.941C64.3314 123.912 58.8901 122.815 54.9994 121.275C54.3281 121.001 53.7775 120.497 53.4475 119.853C53.1175 119.209 53.0301 118.469 53.2011 117.766L54.3635 112.859C54.4647 112.437 54.6552 112.041 54.9223 111.698C55.1893 111.355 55.5268 111.073 55.9121 110.871C56.2973 110.669 56.7215 110.551 57.1561 110.526C57.5907 110.5 58.0258 110.568 58.4321 110.724C62.2902 112.181 67.0341 113.274 72.0907 113.101C77.3449 112.918 81.203 111.006 81.0752 107.365C80.9589 104.078 77.8645 102.229 70.497 100.525C59.9769 98.0437 52.3362 93.7732 52.0143 84.6249C51.7283 76.3657 57.5614 69.85 68.0163 67.7982L67.835 62.5819C67.8071 61.7754 68.1014 60.9909 68.6533 60.4007C69.2053 59.8106 69.9696 59.4631 70.7783 59.4347L73.8529 59.3281C74.6615 59.3002 75.4481 59.5936 76.0398 60.1437C76.6316 60.6938 76.9802 61.4557 77.009 62.262L77.1729 66.9474C82.2283 66.974 85.933 67.7078 88.8844 68.6282C89.6143 68.8618 90.2287 69.362 90.6041 70.0286C90.9794 70.6951 91.0881 71.4786 90.9082 72.2217L89.8423 76.7518C89.7463 77.1648 89.5646 77.5531 89.3089 77.8918C89.0531 78.2305 88.7291 78.5119 88.3576 78.718C87.986 78.9241 87.5753 79.0503 87.1519 79.0884C86.7285 79.1265 86.3018 79.0756 85.8993 78.9391C82.207 77.6845 78.3145 77.1186 74.4167 77.2699C68.1814 77.4855 66.4901 80.1227 66.5714 82.4318C66.6702 85.2741 70.4784 87.0986 78.6712 89.3046C90.3653 92.3671 95.3406 96.9969 95.6416 105.615C95.9171 113.521 90.2863 120.831 78.9479 123.003L79.1513 128.844C79.1653 129.244 79.1003 129.642 78.9599 130.016C78.8196 130.391 78.6067 130.734 78.3333 131.026C78.06 131.318 77.7317 131.554 77.367 131.719C77.0023 131.885 76.6085 131.978 76.208 131.992L73.1322 132.098C72.7314 132.112 72.3317 132.047 71.9561 131.906C71.5805 131.766 71.2364 131.553 70.9434 131.28C70.6503 131.007 70.4142 130.679 70.2485 130.315C70.0827 129.95 69.9906 129.557 69.9774 129.157V129.157Z" fill="white"/>
</g>
<path d="M72.5173 31.4138C70.132 31.4138 65.8461 31.1936 63.3189 29.7562C61.4032 28.6666 61.3428 27.2976 61.4753 26.5789C61.5741 26.0468 62.1472 25.6863 62.754 25.7732C63.3608 25.8602 63.7734 26.3621 63.6735 26.8942C63.6363 27.0935 63.5491 27.5595 64.5314 28.1183C66.1274 29.0259 69.4833 29.5371 73.2903 29.4525C77.0008 29.369 80.4242 28.7257 82.0086 27.8111C82.5782 27.4842 82.8397 27.177 82.7863 26.8988C82.6828 26.3679 83.092 25.8637 83.6988 25.7732C84.3056 25.6828 84.881 26.0422 84.9833 26.5742C85.0995 27.2002 85.0367 28.4046 83.2326 29.4432C81.2565 30.5769 77.5658 31.3107 73.3438 31.4045C73.109 31.4092 72.8288 31.4138 72.5173 31.4138Z" fill="url(#paint3_linear_22:1399)"/>
<path d="M171.787 83.1272C171.787 83.1272 191.636 84.2157 204.849 80.0716C204.849 80.0716 196.066 79.4712 196.066 99.6943C196.066 115.157 198.365 144.671 196.358 150.269C194.35 155.868 186.842 163.403 176.08 156.93C165.318 150.457 171.787 83.1272 171.787 83.1272Z" fill="#099F9F"/>
<path d="M166.511 52.8135C166.511 52.8135 188.41 55.1933 191.231 51.492C191.231 51.492 188.986 44.8302 182.322 45.273C175.658 45.7158 166.511 52.8135 166.511 52.8135Z" fill="#099F9F"/>
<path d="M95.2848 60.3087C97.1947 81.7096 101.205 126.978 102.95 149.029C103.138 151.407 104.18 153.637 105.884 155.311C107.587 156.986 109.839 157.991 112.226 158.144C129.804 159.268 169.366 161.452 184.548 159.419C182.844 158.581 181.411 157.281 180.414 155.668C179.417 154.055 178.896 152.194 178.912 150.3L179.718 51.3505C179.746 47.8533 183.238 45.3413 186.522 46.5689C188.59 47.3409 190.157 48.9881 191.231 51.4908C189.798 47.3259 187.544 44.2784 182.322 45.2718C182.322 45.2718 131.258 45.7818 106.479 47.3131C104.881 47.4124 103.319 47.83 101.885 48.5413C100.451 49.2527 99.1746 50.2433 98.1311 51.4547C97.0877 52.6661 96.2982 54.0737 95.8093 55.5944C95.3204 57.1151 95.1421 58.7181 95.2848 60.3087V60.3087Z" fill="url(#paint4_linear_22:1399)"/>
<path d="M107.917 50.1474L176.532 47.5125C173.702 68.4057 174.897 110.952 175.976 152.882C176.007 154.101 176.377 155.287 177.045 156.309C177.712 157.331 178.651 158.147 179.757 158.668V158.668C179.757 158.668 133.99 159.194 114.327 157.803C112.079 157.643 109.953 156.723 108.299 155.196C106.646 153.669 105.563 151.626 105.231 149.404C102.531 131.436 96.0729 85.0295 97.4167 60.4606C97.5635 57.746 98.7215 55.1838 100.664 53.2761C102.606 51.3684 105.193 50.2526 107.917 50.1474V50.1474Z" fill="#099F9F"/>
<path opacity="0.78" d="M107.161 79.9546L107.962 87.6191C108.033 88.2987 108.348 88.9299 108.848 89.3969C109.348 89.8639 110 90.1353 110.685 90.1612L115.16 90.3328C115.543 90.3473 115.924 90.2846 116.282 90.1486C116.64 90.0126 116.967 89.806 117.243 89.5412C117.518 89.2764 117.738 88.9588 117.888 88.6074C118.038 88.256 118.115 87.8781 118.115 87.4962V79.2289C118.115 78.8369 118.033 78.4492 117.875 78.0903C117.716 77.7315 117.485 77.4091 117.196 77.1437C116.907 76.8783 116.565 76.6755 116.194 76.5482C115.822 76.4209 115.428 76.3718 115.036 76.404L109.755 76.8317C109.377 76.8633 109.01 76.9696 108.675 77.1445C108.339 77.3193 108.042 77.5592 107.8 77.85C107.559 78.1408 107.378 78.4767 107.268 78.8381C107.159 79.1995 107.122 79.579 107.161 79.9546V79.9546Z" fill="url(#paint5_linear_22:1399)"/>
<path opacity="0.78" d="M122.897 77.5922C130.345 77.3603 158.933 76.433 166.154 76.2011C166.37 76.1941 166.585 76.2305 166.786 76.3081C166.988 76.3857 167.172 76.503 167.327 76.6529C167.482 76.8028 167.606 76.9822 167.69 77.1806C167.774 77.379 167.817 77.5923 167.817 77.8078V77.8078C167.818 78.2245 167.657 78.6254 167.367 78.9257C167.077 79.2261 166.682 79.4026 166.264 79.4179L123.036 81.0187C122.634 81.0326 122.241 80.8964 121.935 80.6368C121.628 80.3771 121.43 80.0127 121.379 79.6149L121.352 79.4063C121.323 79.184 121.341 78.9581 121.405 78.7431C121.468 78.5282 121.576 78.3288 121.722 78.158C121.867 77.9871 122.047 77.8485 122.25 77.7511C122.452 77.6536 122.673 77.5995 122.897 77.5922Z" fill="url(#paint6_linear_22:1399)"/>
<path opacity="0.78" d="M122.425 87.6968C122.488 87.8005 122.576 87.8859 122.683 87.9443C122.789 88.0028 122.909 88.0321 123.03 88.0294L152.713 87.3873C152.892 87.3833 153.063 87.3096 153.188 87.1818C153.314 87.054 153.384 86.8822 153.384 86.7033V84.7501C153.384 84.6582 153.366 84.5673 153.33 84.4827C153.293 84.3982 153.241 84.3217 153.174 84.258C153.108 84.1943 153.029 84.1446 152.943 84.1118C152.857 84.079 152.765 84.0639 152.673 84.0673L123.82 85.1442C123.526 85.1546 123.24 85.2412 122.99 85.3955C122.739 85.5497 122.534 85.7663 122.393 86.0239C122.252 86.2815 122.181 86.5713 122.187 86.8646C122.192 87.1579 122.275 87.4447 122.425 87.6968Z" fill="url(#paint7_linear_22:1399)"/>
<path opacity="0.78" d="M107.161 101.226L107.962 108.89C108.033 109.57 108.348 110.201 108.848 110.668C109.348 111.135 110 111.406 110.685 111.432L115.16 111.604C115.543 111.618 115.924 111.556 116.282 111.42C116.64 111.284 116.967 111.077 117.243 110.812C117.518 110.547 117.738 110.23 117.888 109.878C118.038 109.527 118.115 109.149 118.115 108.767V100.5C118.115 100.107 118.034 99.7193 117.876 99.3599C117.718 99.0004 117.487 98.6776 117.198 98.4116C116.908 98.1457 116.567 97.9426 116.195 97.815C115.823 97.6874 115.428 97.6381 115.036 97.6703L109.755 98.1027C109.377 98.1343 109.01 98.2406 108.675 98.4155C108.339 98.5903 108.042 98.8301 107.8 99.1209C107.559 99.4118 107.378 99.7477 107.268 100.109C107.159 100.47 107.122 100.85 107.161 101.226V101.226Z" fill="url(#paint8_linear_22:1399)"/>
<path opacity="0.78" d="M122.897 98.8631C130.345 98.6313 158.933 97.704 166.154 97.4721C166.37 97.4651 166.585 97.5015 166.786 97.5791C166.988 97.6567 167.172 97.774 167.327 97.9238C167.482 98.0737 167.606 98.2532 167.69 98.4516C167.774 98.65 167.817 98.8633 167.817 99.0787V99.0787C167.817 99.4949 167.655 99.8948 167.366 100.194C167.076 100.494 166.681 100.67 166.264 100.685L123.036 102.286C122.634 102.3 122.242 102.164 121.936 101.906C121.629 101.647 121.431 101.283 121.379 100.886L121.352 100.677C121.323 100.455 121.341 100.229 121.405 100.014C121.468 99.7991 121.576 99.5998 121.722 99.4289C121.867 99.2581 122.047 99.1195 122.25 99.022C122.452 98.9246 122.673 98.8705 122.897 98.8631Z" fill="url(#paint9_linear_22:1399)"/>
<path opacity="0.78" d="M122.425 108.968C122.488 109.071 122.576 109.157 122.683 109.215C122.789 109.274 122.909 109.303 123.03 109.3L152.713 108.658C152.892 108.654 153.063 108.581 153.188 108.453C153.314 108.325 153.384 108.153 153.384 107.974V106.022C153.384 105.93 153.366 105.839 153.33 105.755C153.293 105.67 153.241 105.594 153.174 105.53C153.108 105.466 153.029 105.417 152.943 105.384C152.857 105.351 152.765 105.336 152.673 105.34L123.82 106.415C123.526 106.426 123.24 106.512 122.99 106.666C122.739 106.821 122.534 107.037 122.393 107.295C122.252 107.553 122.181 107.842 122.187 108.136C122.192 108.429 122.275 108.716 122.425 108.968V108.968Z" fill="url(#paint10_linear_22:1399)"/>
<path opacity="0.78" d="M107.161 122.497L107.962 130.161C108.033 130.841 108.348 131.472 108.848 131.939C109.348 132.406 110 132.677 110.685 132.703L115.16 132.875C115.543 132.889 115.924 132.827 116.282 132.691C116.64 132.555 116.967 132.348 117.243 132.083C117.518 131.818 117.738 131.501 117.888 131.149C118.038 130.798 118.115 130.42 118.115 130.038V121.771C118.115 121.378 118.034 120.99 117.876 120.631C117.718 120.271 117.487 119.949 117.198 119.683C116.908 119.417 116.567 119.214 116.195 119.086C115.823 118.958 115.428 118.909 115.036 118.941L109.759 119.374C109.382 119.405 109.014 119.511 108.678 119.685C108.342 119.86 108.044 120.1 107.802 120.39C107.56 120.681 107.379 121.017 107.269 121.379C107.159 121.741 107.122 122.121 107.161 122.497V122.497Z" fill="url(#paint11_linear_22:1399)"/>
<path opacity="0.78" d="M122.897 120.134C130.345 119.902 158.933 118.975 166.154 118.743C166.37 118.736 166.585 118.773 166.786 118.85C166.988 118.928 167.172 119.045 167.327 119.195C167.482 119.345 167.606 119.524 167.69 119.723C167.774 119.921 167.817 120.134 167.817 120.35V120.35C167.817 120.766 167.655 121.166 167.366 121.465C167.076 121.765 166.681 121.941 166.264 121.956L123.036 123.557C122.634 123.571 122.242 123.435 121.936 123.177C121.629 122.918 121.431 122.554 121.379 122.157L121.352 121.948C121.323 121.726 121.341 121.5 121.405 121.285C121.468 121.07 121.576 120.871 121.722 120.7C121.867 120.529 122.047 120.39 122.25 120.293C122.452 120.196 122.673 120.141 122.897 120.134V120.134Z" fill="url(#paint12_linear_22:1399)"/>
<path opacity="0.78" d="M122.425 130.239C122.488 130.342 122.576 130.428 122.683 130.486C122.789 130.545 122.909 130.574 123.03 130.571L152.713 129.929C152.892 129.925 153.063 129.851 153.188 129.724C153.314 129.596 153.384 129.424 153.384 129.245V127.292C153.384 127.2 153.366 127.109 153.33 127.025C153.293 126.94 153.241 126.864 153.174 126.8C153.108 126.736 153.029 126.687 152.943 126.654C152.857 126.621 152.765 126.606 152.673 126.609L123.82 127.686C123.526 127.697 123.24 127.783 122.99 127.937C122.739 128.092 122.534 128.308 122.393 128.566C122.252 128.823 122.181 129.113 122.187 129.407C122.192 129.7 122.275 129.987 122.425 130.239V130.239Z" fill="url(#paint13_linear_22:1399)"/>
<path d="M193.487 127.34C193.4 127.34 193.316 127.305 193.253 127.244C193.191 127.183 193.154 127.1 193.153 127.013C193.153 127.002 193.133 125.953 193.036 122.356C193.035 122.313 193.043 122.269 193.058 122.228C193.074 122.187 193.097 122.15 193.128 122.118C193.158 122.087 193.194 122.061 193.234 122.043C193.274 122.025 193.317 122.016 193.361 122.014C193.405 122.013 193.448 122.021 193.489 122.036C193.53 122.052 193.568 122.075 193.599 122.105C193.631 122.135 193.657 122.171 193.675 122.211C193.693 122.251 193.702 122.294 193.704 122.338C193.806 125.938 193.82 126.99 193.82 127C193.821 127.044 193.813 127.087 193.797 127.128C193.781 127.169 193.757 127.206 193.727 127.238C193.696 127.269 193.66 127.295 193.62 127.312C193.579 127.329 193.536 127.339 193.492 127.34H193.487Z" fill="url(#paint14_linear_22:1399)"/>
<path d="M193.244 118.56C193.158 118.56 193.074 118.527 193.012 118.467C192.949 118.406 192.913 118.324 192.911 118.238C192.839 115.896 192.727 113.309 192.609 110.569C192.448 106.866 192.283 103.034 192.195 99.35C191.962 89.6129 193.575 85.8815 194.966 84.4615C195.722 83.6894 196.361 83.6663 196.425 83.6663C196.51 83.6703 196.591 83.7067 196.65 83.7681C196.709 83.8294 196.743 83.9111 196.744 83.9962C196.745 84.0814 196.713 84.1637 196.655 84.2263C196.597 84.2889 196.517 84.327 196.432 84.3328C196.356 84.3386 192.518 84.7582 192.863 99.3349C192.95 103.015 193.115 106.841 193.276 110.54C193.392 113.282 193.508 115.872 193.578 118.217C193.58 118.261 193.573 118.305 193.558 118.346C193.543 118.388 193.52 118.426 193.489 118.458C193.459 118.491 193.423 118.517 193.383 118.535C193.343 118.553 193.299 118.563 193.255 118.565L193.244 118.56Z" fill="#BDD0FB"/>
<path d="M144.837 154.397C144.514 154.397 144.187 154.243 143.841 153.925C142.504 152.701 142.186 150.796 142.105 149.004C141.468 149.718 140.814 150.412 140.168 151.099L139.914 150.861C140.641 150.089 141.377 149.306 142.088 148.497C142.028 146.071 142.138 143.643 142.418 141.232C142.589 139.766 142.834 138.219 143.464 136.803C143.665 136.357 143.999 135.717 144.569 135.319C145.15 134.91 145.925 134.864 146.438 135.204C147.019 135.592 147.174 136.335 147.241 136.86C147.647 140 146.417 142.88 145.314 144.742C144.491 146.133 143.492 147.409 142.434 148.619C142.488 150.441 142.737 152.444 144.071 153.665C144.359 153.929 144.617 154.053 144.855 154.045C145.251 154.03 145.561 153.66 145.814 153.299C146.922 151.719 147.793 149.986 148.399 148.155C148.467 147.61 148.62 147.078 148.852 146.58L149.18 146.696C149.053 147.216 148.906 147.729 148.741 148.235C148.677 148.76 148.697 149.292 148.8 149.81C148.857 150.091 149.094 151.017 149.794 151.149C150.32 151.249 150.84 150.878 151.433 149.982L153.586 146.718L153.365 147.666C153.258 148.13 153.08 149.231 153.747 149.504C154.128 149.661 154.535 149.432 154.965 149.19C155.396 148.948 155.83 148.706 156.32 148.771L156.5 148.794L156.468 148.972C156.352 149.611 156.411 150.397 156.924 150.509C157.26 150.584 157.538 150.327 157.86 150.031C158.137 149.776 158.424 149.511 158.79 149.422L158.872 149.759C158.591 149.828 158.339 150.061 158.095 150.286C157.733 150.618 157.36 150.963 156.846 150.849C156.149 150.696 156.001 149.883 156.094 149.11C155.779 149.131 155.465 149.308 155.135 149.494C154.65 149.765 154.151 150.047 153.611 149.825C153.124 149.626 152.883 149.11 152.914 148.369L151.723 150.172C151.297 150.82 150.625 151.662 149.729 151.491C149.113 151.375 148.637 150.771 148.458 149.879C148.417 149.674 148.388 149.468 148.372 149.26C147.787 150.759 147.024 152.183 146.1 153.501C145.798 153.931 145.416 154.374 144.867 154.395L144.837 154.397ZM145.639 135.324C145.329 135.328 145.027 135.426 144.774 135.605C144.274 135.952 143.972 136.532 143.789 136.946C143.171 138.315 142.932 139.834 142.764 141.272C142.501 143.539 142.389 145.822 142.429 148.104C143.393 147.003 144.26 145.821 145.02 144.57C146.095 142.754 147.293 139.952 146.902 136.91C146.807 136.181 146.601 135.732 146.248 135.497C146.067 135.38 145.855 135.32 145.639 135.324Z" fill="url(#paint15_linear_22:1399)"/>
<path d="M122.996 66.8013L122.601 56.6422L124.497 56.5681L124.827 65.0741L127.454 64.9721L127.518 66.6263L122.996 66.8013Z" fill="white"/>
<path d="M135.543 61.2187C135.608 62.9003 135.343 64.2052 134.746 65.1333C134.149 66.0614 133.263 66.5479 132.087 66.5927C130.908 66.6375 129.985 66.2217 129.317 65.3454C128.65 64.4691 128.284 63.1831 128.219 61.4877C128.154 59.8061 128.42 58.5047 129.016 57.5835C129.613 56.6624 130.504 56.1794 131.69 56.1346C132.865 56.0882 133.783 56.5036 134.446 57.3807C135.109 58.2578 135.474 59.5371 135.543 61.2187ZM130.157 61.4274C130.202 62.5866 130.383 63.4633 130.698 64.0575C131.014 64.6518 131.455 64.9385 132.022 64.9177C133.166 64.8736 133.692 63.6657 133.599 61.2941C133.506 58.9224 132.893 57.7582 131.761 57.8015C131.184 57.8231 130.762 58.1423 130.493 58.7589C130.224 59.3756 130.112 60.2639 130.157 61.4239V61.4274Z" fill="white"/>
<path d="M142.047 66.0652L141.363 63.5243L138.708 63.6263L138.222 66.2136L136.326 66.2866L138.453 55.9885L141.024 55.8865L143.95 65.9899L142.047 66.0652ZM140.942 61.8632L140.307 59.5216C140.269 59.3787 140.182 59.0213 140.045 58.4494C139.908 57.8768 139.826 57.4942 139.794 57.3007C139.75 57.7002 139.691 58.1418 139.615 58.6256C139.54 59.1094 139.341 60.2133 139.019 61.9374L140.942 61.8632Z" fill="url(#paint16_linear_22:1399)"/>
<path d="M151.984 65.6816L149.671 65.7708L146.235 58.534H146.145C146.287 59.1243 146.369 59.7275 146.389 60.3343L146.604 65.8856L144.849 65.954L144.453 55.7949L146.778 55.7045L150.182 62.8671H150.259C150.142 62.2967 150.075 61.7172 150.059 61.1353L149.844 55.5897L151.587 55.5225L151.984 65.6816Z" fill="url(#paint17_linear_22:1399)"/>
<path d="M192.195 158.037C193.262 158.13 195.112 158.279 196.572 158.343C197.449 158.381 197.955 158.296 198.245 158.18C198.245 158.212 198.245 158.243 198.245 158.272C198.241 158.347 198.209 158.417 198.156 158.469C198.103 158.521 198.033 158.553 197.958 158.556C196.049 158.663 194.136 158.663 192.227 158.556C192.192 158.553 192.158 158.542 192.128 158.522C192.098 158.503 192.074 158.477 192.057 158.446C192.039 158.414 192.03 158.38 192.03 158.344C192.03 158.309 192.039 158.274 192.055 158.242C192.097 158.171 192.143 158.102 192.195 158.037Z" fill="url(#paint18_linear_22:1399)"/>
<path d="M196.572 158.343C195.112 158.279 193.262 158.13 192.195 158.037C193.241 156.755 196.572 155.89 196.572 155.89H197.512C197.99 156.558 198.247 157.359 198.245 158.18C197.955 158.296 197.449 158.381 196.572 158.343Z" fill="url(#paint19_linear_22:1399)"/>
<path d="M197.671 154.359L197.583 156.098C197.578 156.19 197.542 156.277 197.48 156.345C197.418 156.413 197.334 156.457 197.243 156.471C197.006 156.506 196.764 156.486 196.536 156.412C196.456 156.386 196.384 156.339 196.328 156.276C196.272 156.212 196.235 156.134 196.22 156.051L195.917 154.361L197.671 154.359Z" fill="url(#paint20_linear_22:1399)"/>
<path d="M209.88 158.33C210.345 158.265 210.552 158.026 210.64 157.769V157.776C210.659 157.848 210.664 157.922 210.654 157.995C210.644 158.069 210.619 158.139 210.581 158.203C210.544 158.266 210.494 158.322 210.434 158.366C210.375 158.41 210.308 158.442 210.236 158.46C209.437 158.648 209.437 158.648 209.114 158.635C208.954 158.635 208.796 158.6 208.651 158.533C208.506 158.466 208.377 158.369 208.274 158.248C208.62 158.417 209.109 158.437 209.88 158.33Z" fill="url(#paint21_linear_22:1399)"/>
<path d="M207.699 154.349H208.475C209.656 154.324 210.397 156.808 210.64 157.769C210.552 158.025 210.343 158.265 209.88 158.33C209.109 158.437 208.62 158.417 208.271 158.245C207.634 157.408 207.317 156.181 207.166 155.463C207.112 155.244 207.136 155.014 207.233 154.811C207.33 154.608 207.495 154.444 207.699 154.349Z" fill="url(#paint22_linear_22:1399)"/>
<path d="M208.376 152.737L208.806 154.445C208.831 154.547 208.821 154.654 208.777 154.75C208.733 154.845 208.658 154.923 208.564 154.97C208.324 155.093 207.983 155.223 207.673 155.184C207.601 155.175 207.534 155.146 207.478 155.101C207.422 155.055 207.38 154.995 207.356 154.927L206.724 153.13L208.376 152.737Z" fill="url(#paint23_linear_22:1399)"/>
<path d="M208.889 153.231C208.354 153.704 206.611 153.767 206.611 153.767C200.334 138.748 197.769 136.611 197.769 136.611C198.675 142.279 197.915 154.83 197.915 154.83C196.879 155.285 195.545 154.83 195.545 154.83C195.468 146.809 194.391 138.83 192.34 131.075C196.582 130.979 198.837 129.532 199.573 128.951C203.109 134.639 208.889 153.231 208.889 153.231Z" fill="url(#paint24_linear_22:1399)"/>
<path d="M198.496 111.683C199.298 115.676 199.011 122.822 198.822 126.083C198.769 126.999 199.41 128.269 199.928 129.135C199.948 129.167 199.96 129.203 199.965 129.24C199.97 129.277 199.968 129.314 199.957 129.35C199.947 129.386 199.93 129.42 199.906 129.448C199.882 129.477 199.853 129.501 199.819 129.518C198.951 129.963 196.01 131.341 192.603 131.513C192.492 131.517 192.383 131.484 192.294 131.418C192.205 131.352 192.141 131.258 192.113 131.151C189.585 121.738 186.65 115.723 186.65 115.723C189.891 110.56 198.496 111.683 198.496 111.683Z" fill="url(#paint25_linear_22:1399)"/>
<path d="M197.341 136.258C197.377 136.259 197.412 136.249 197.443 136.231C197.474 136.213 197.499 136.187 197.517 136.156C197.534 136.125 197.543 136.09 197.542 136.054C197.541 136.019 197.531 135.984 197.512 135.953C196.888 135.029 196.03 134.285 195.024 133.8C194.976 133.777 194.921 133.774 194.87 133.791C194.82 133.809 194.779 133.846 194.756 133.894C194.732 133.942 194.729 133.997 194.747 134.047C194.765 134.097 194.802 134.138 194.85 134.161C195.785 134.616 196.587 135.306 197.175 136.162C197.192 136.191 197.216 136.215 197.245 136.231C197.275 136.248 197.307 136.257 197.341 136.258V136.258Z" fill="url(#paint26_linear_22:1399)"/>
<path d="M203.532 123.142C203.274 124.997 202.511 127.032 200.987 129.187L200.406 128.717C200.817 126.819 200.914 124.868 200.694 122.939C201.637 122.756 202.75 122.945 203.532 123.142Z" fill="url(#paint27_linear_22:1399)"/>
<path d="M197.599 116.609L198.496 111.682C198.496 111.682 204.488 116.25 203.532 123.142C202.747 122.945 201.637 122.756 200.697 122.939C200.425 120.728 199.611 118.326 197.599 116.609Z" fill="url(#paint28_linear_22:1399)"/>
<path d="M186.555 115.763L190.018 120.014C190.391 123.011 189.143 124.663 187.576 125.571C187.221 124.513 186.698 123.518 186.029 122.624C187.624 119.859 186.555 115.763 186.555 115.763Z" fill="url(#paint29_linear_22:1399)"/>
<path d="M186.029 122.624C186.698 123.518 187.221 124.513 187.576 125.571C183.508 128.448 181.481 126.67 181.481 126.67V126.102C181.479 125.856 181.559 125.617 181.708 125.421C181.857 125.226 182.067 125.085 182.305 125.021C183.939 124.594 185.448 123.633 186.029 122.624Z" fill="#B06C49"/>
<path d="M188.78 109.591L189.895 113.684C189.925 113.793 189.977 113.894 190.049 113.981C190.12 114.068 190.21 114.138 190.31 114.188C190.411 114.238 190.522 114.267 190.634 114.271C190.747 114.275 190.859 114.256 190.964 114.214C191.513 113.999 192.05 113.755 192.573 113.482C192.704 113.41 192.82 113.312 192.911 113.194C193.003 113.076 193.068 112.94 193.104 112.795C193.14 112.649 193.145 112.498 193.119 112.351C193.093 112.204 193.036 112.064 192.953 111.94L190.628 108.488L188.78 109.591Z" fill="url(#paint30_linear_22:1399)"/>
<path d="M186.555 106.481C186.544 106.552 187.485 111.152 187.485 111.152L190.107 110.56L189.864 106.067C189.864 106.067 186.726 105.305 186.555 106.481Z" fill="url(#paint31_linear_22:1399)"/>
<path d="M189.058 107.07L189.371 109.424C189.376 109.454 189.376 109.485 189.371 109.515C189.344 109.699 189.207 110.326 188.571 110.148C187.99 109.986 187.465 109.845 187.099 109.957C187.019 109.98 186.95 110.032 186.907 110.103C186.864 110.174 186.849 110.259 186.866 110.34C187.011 111.069 187.212 111.786 187.469 112.484C187.5 112.561 187.558 112.623 187.633 112.659C187.708 112.695 187.793 112.702 187.873 112.678C188.369 112.535 189.41 112.2 190.184 111.736C190.235 111.705 190.277 111.661 190.306 111.608C190.334 111.556 190.348 111.497 190.346 111.437C190.321 110.842 190.251 109.035 190.31 108.53C190.365 108.053 190.95 107.769 191.204 107.667C191.246 107.651 191.283 107.626 191.314 107.594C191.346 107.563 191.37 107.525 191.387 107.484C191.503 107.191 191.666 106.509 190.806 106.231C190.763 106.217 190.724 106.195 190.69 106.166C190.656 106.136 190.629 106.101 190.609 106.06C190.589 106.02 190.578 105.977 190.576 105.932C190.573 105.887 190.58 105.843 190.595 105.801C190.722 105.447 190.777 104.907 190.11 104.61C189.444 104.314 188.929 104.667 188.656 104.958C188.603 105.015 188.531 105.051 188.453 105.06C188.376 105.069 188.297 105.051 188.232 105.008C188.187 104.979 188.134 104.965 188.08 104.967C188.027 104.969 187.975 104.987 187.932 105.018C187.893 105.042 187.849 105.057 187.804 105.063C187.758 105.068 187.712 105.064 187.668 105.051C187.625 105.038 187.584 105.016 187.549 104.986C187.515 104.956 187.487 104.919 187.467 104.878C187.306 104.547 186.975 104.191 186.313 104.304C185.138 104.505 185.005 105.803 185.314 106.565C185.624 107.326 186.886 107.035 187.523 106.652C188.004 106.361 188.628 106.667 188.899 106.829C188.942 106.855 188.979 106.89 189.006 106.932C189.034 106.973 189.052 107.021 189.058 107.07V107.07Z" fill="url(#paint32_linear_22:1399)"/>
<path d="M190.42 109.387C190.42 109.387 189.937 108.038 190.434 107.708C190.93 107.377 191.665 107.549 191.503 108.526C191.302 109.742 190.42 109.387 190.42 109.387Z" fill="url(#paint33_linear_22:1399)"/>
<path d="M216.408 115.728L168.587 131.377L170.87 138.404L218.967 123.135C219.462 122.978 219.885 122.652 220.163 122.215C220.441 121.777 220.555 121.256 220.486 120.743C220.342 119.654 219.85 118.159 218.51 116.383C218.272 116.069 217.941 115.837 217.564 115.719C217.188 115.602 216.783 115.605 216.408 115.728Z" fill="#094141"/>
<path d="M155.884 138.913L161.555 135.551C162.103 136.266 162.583 137.367 162.612 139.029L156.077 139.523C156.002 139.529 155.928 139.509 155.867 139.468C155.805 139.426 155.759 139.365 155.737 139.294C155.714 139.224 155.717 139.147 155.743 139.078C155.77 139.009 155.819 138.951 155.884 138.913V138.913Z" fill="url(#paint34_linear_22:1399)"/>
<path d="M168.587 131.378C171.493 134.639 170.87 138.405 170.87 138.405L162.617 139.029C162.587 137.364 162.107 136.264 161.56 135.551L168.587 131.378Z" fill="url(#paint35_linear_22:1399)"/>
<path d="M200.647 128.634L197.943 128.414L196.771 129.491C196.771 129.491 197.049 129.874 197.915 129.653C198.591 129.506 199.277 129.414 199.968 129.38C199.968 129.38 201.164 129.918 201.178 128.916L200.647 128.634Z" fill="#B06C49"/>
<path d="M183.279 127.796C183.046 127.978 182.243 127.598 181.754 127.333C181.637 127.271 181.546 127.171 181.497 127.049C181.447 126.928 181.441 126.793 181.481 126.667C181.597 126.296 181.796 125.818 182.037 125.757C182.44 125.66 184.243 127.045 183.279 127.796Z" fill="#B06C49"/>
<path d="M106.982 157.36C106.982 157.36 106.765 158.59 106.658 159.806C106.648 159.919 106.662 160.033 106.697 160.14C106.733 160.248 106.79 160.347 106.865 160.432C106.941 160.517 107.032 160.586 107.135 160.634C107.237 160.683 107.349 160.71 107.462 160.715C109.09 160.782 112.563 160.913 113.811 160.859C113.854 160.856 113.896 160.844 113.934 160.822C113.972 160.8 114.004 160.77 114.027 160.733C114.051 160.696 114.065 160.655 114.069 160.611C114.074 160.568 114.067 160.525 114.051 160.484V160.484C113.993 160.338 113.881 160.221 113.738 160.155L107.996 157.524L106.982 157.36Z" fill="url(#paint36_linear_22:1399)"/>
<path d="M106.803 156.638L106.979 158.108C106.979 158.108 107.984 158.571 108.671 158.05L108.255 156.411L106.803 156.638Z" fill="url(#paint37_linear_22:1399)"/>
<path d="M106.936 128.993C106.86 129.377 106.53 148.155 108.542 156.571C108.559 156.637 108.551 156.707 108.52 156.768C108.489 156.829 108.438 156.877 108.375 156.903C107.851 157.105 107.296 157.217 106.735 157.235C106.626 157.239 106.519 157.207 106.431 157.144C106.342 157.081 106.277 156.991 106.245 156.887C105.67 154.934 102.914 145.152 102.553 135.807C102.151 125.366 102.553 135.452 102.553 135.452L102.786 128.997L106.936 128.993Z" fill="#094141"/>
<path d="M100.377 158.001C100.377 158.001 100.029 158.622 99.695 160.271C99.6805 160.341 99.6809 160.413 99.6962 160.483C99.7116 160.554 99.7414 160.62 99.7839 160.677C99.8264 160.735 99.8806 160.783 99.943 160.819C100.005 160.855 100.075 160.877 100.146 160.884C100.683 160.936 101.508 161 102.171 161C102.243 161 102.314 160.984 102.38 160.955C102.445 160.925 102.504 160.882 102.552 160.828C102.599 160.774 102.635 160.711 102.657 160.643C102.678 160.574 102.685 160.502 102.677 160.431C102.603 159.828 102.376 158.842 101.67 158.072L100.377 158.001Z" fill="url(#paint38_linear_22:1399)"/>
<path d="M100.073 156.111L100.481 158.334C100.481 158.334 100.885 158.634 101.685 158.416L101.49 156.024L100.073 156.111Z" fill="url(#paint39_linear_22:1399)"/>
<path d="M98.9685 129.57C97.3225 139.477 99.3254 154.056 100.001 156.91C100.021 156.996 100.066 157.074 100.13 157.134C100.194 157.194 100.274 157.234 100.361 157.249C100.789 157.325 101.229 157.307 101.649 157.197C101.731 157.173 101.804 157.124 101.857 157.056C101.91 156.989 101.94 156.907 101.943 156.821C102.034 154.514 101.87 140.351 103.404 134.754C103.484 134.473 103.657 134.227 103.896 134.058L106.873 131.947L107.106 128.536L98.9685 129.57Z" fill="#094141"/>
<path d="M109.458 110.797C104.525 110.715 99.0813 112.088 99.0813 112.088C97.6108 120.645 98.8244 130.519 98.8244 130.519C102.643 131.518 106.952 129.908 106.952 129.908C107.587 126.332 110.549 116.267 110.549 116.267C112.96 115.968 114.945 115.275 116.581 114.358C115.333 112.916 114.745 111.081 114.488 109.997C112.745 110.533 110.98 110.821 109.458 110.797Z" fill="white"/>
<path d="M124.032 103.55C123.907 103.386 123.733 103.268 123.534 103.212C123.336 103.157 123.125 103.167 122.933 103.243C122.207 106.3 118.4 108.78 114.489 109.992C114.745 111.076 115.333 112.911 116.582 114.353C123.07 110.716 124.032 103.55 124.032 103.55Z" fill="url(#paint40_linear_22:1399)"/>
<path d="M123.913 103.698C123.964 103.859 123.377 104.104 123.031 103.447C123.019 103.131 122.828 101.781 123.016 101.525C124.021 100.157 125.972 98.4435 125.972 98.4435C126.063 98.5223 126.12 98.6333 126.131 98.7531C126.141 98.8729 126.105 98.9922 126.029 99.0857L125.084 100.069C125.282 100.426 125.523 100.726 125.636 101.157C125.719 101.486 125.671 101.835 125.504 102.13C125.337 102.429 125.111 102.816 124.897 103.12C124.787 103.284 124.642 103.421 124.472 103.521C124.301 103.622 124.11 103.682 123.913 103.698V103.698Z" fill="url(#paint41_linear_22:1399)"/>
<path d="M124.67 100.706L123.807 101.435L123.538 102.16L124.306 103.011C124.306 103.011 124.564 101.571 124.756 101.259C124.948 100.947 124.849 100.798 124.67 100.706Z" fill="url(#paint42_linear_22:1399)"/>
<path d="M100.974 116.852L99.0813 112.088C99.0813 112.088 94.4734 115.211 93.7155 119.17C95.1071 119.268 96.4669 119.631 97.7213 120.24C98.0619 118.366 100.974 116.852 100.974 116.852Z" fill="white"/>
<path d="M105 121.335C105 121.335 99.8264 124.25 98.0804 121.76C97.9191 121.545 97.804 121.299 97.7422 121.037C97.6804 120.776 97.6733 120.504 97.7212 120.24C96.4668 119.631 95.107 119.268 93.7155 119.17C93.4589 120.449 93.67 121.778 94.3107 122.915C97.369 128.493 105.685 122.607 105.685 122.607L105 121.335Z" fill="url(#paint43_linear_22:1399)"/>
<path d="M104.379 125.024L107.197 115.19C107.213 115.136 107.245 115.087 107.288 115.05C107.332 115.013 107.385 114.99 107.442 114.984C107.953 114.924 109.435 114.752 111.147 114.613C113.208 114.439 115.603 114.298 117.034 114.417C117.081 114.421 117.126 114.437 117.165 114.463C117.204 114.488 117.237 114.523 117.26 114.564C117.282 114.604 117.295 114.65 117.296 114.697C117.297 114.744 117.287 114.79 117.266 114.832C116.453 116.473 113.106 123.15 111.43 125.338C111.403 125.374 111.368 125.403 111.327 125.423C111.287 125.443 111.242 125.454 111.197 125.454L104.646 125.392C104.602 125.391 104.559 125.379 104.52 125.359C104.481 125.338 104.447 125.309 104.421 125.273C104.396 125.238 104.378 125.197 104.371 125.153C104.363 125.11 104.366 125.066 104.379 125.024V125.024Z" fill="url(#paint44_linear_22:1399)"/>
<path d="M111.444 113.76L113.492 113.42C113.517 113.416 113.542 113.418 113.566 113.427C113.59 113.436 113.611 113.45 113.627 113.469C113.643 113.489 113.655 113.512 113.659 113.536C113.664 113.561 113.663 113.586 113.655 113.61L113.452 114.222C113.444 114.248 113.429 114.271 113.409 114.289C113.388 114.306 113.363 114.318 113.336 114.322L111.36 114.584C111.336 114.587 111.312 114.585 111.29 114.577C111.268 114.569 111.247 114.555 111.231 114.538C111.215 114.52 111.204 114.499 111.198 114.476C111.192 114.453 111.192 114.429 111.197 114.405L111.323 113.871C111.33 113.843 111.345 113.817 111.366 113.797C111.388 113.777 111.415 113.764 111.444 113.76Z" fill="#7D97F4"/>
<path d="M109.912 115.488L110.08 114.612C110.088 114.569 110.11 114.53 110.143 114.501C110.175 114.472 110.216 114.454 110.259 114.45L114.394 114.031C114.426 114.028 114.459 114.032 114.489 114.044C114.52 114.055 114.546 114.074 114.568 114.098C114.589 114.123 114.604 114.152 114.612 114.183C114.62 114.215 114.619 114.248 114.611 114.279L114.349 115.371C114.339 115.414 114.315 115.452 114.281 115.48C114.247 115.508 114.205 115.524 114.162 115.526L110.121 115.729C110.09 115.731 110.06 115.725 110.031 115.713C110.003 115.701 109.978 115.683 109.958 115.659C109.937 115.636 109.923 115.609 109.915 115.579C109.907 115.549 109.906 115.518 109.912 115.488V115.488Z" fill="#3C8888"/>
<path d="M105.061 122.647C105.061 122.647 104.668 121.035 104.828 120.462C104.989 119.89 105.293 119.155 106.32 119.318C107.078 119.458 107.825 119.657 108.553 119.912C108.553 119.912 108.492 120.657 107.714 120.417L108.196 120.789C108.196 120.789 108.127 121.386 107.469 121.067L107.918 121.562C107.918 121.562 107.636 122.051 107.152 121.737C106.669 121.423 106.434 122.842 105.061 122.647Z" fill="url(#paint45_linear_22:1399)"/>
<path d="M104.461 106.802L102.892 111.323C102.879 111.359 102.879 111.399 102.893 111.435C102.906 111.471 102.932 111.502 102.966 111.52C103.394 111.752 104.935 112.438 106.793 111.263C106.889 111.203 106.971 111.123 107.032 111.028C107.093 110.934 107.133 110.826 107.147 110.715L107.657 106.797L104.461 106.802Z" fill="url(#paint46_linear_22:1399)"/>
<path d="M107.876 102.611C107.876 102.611 109.6 105.846 109.379 107.154C109.158 108.461 107.022 108.366 105.156 107.304L103.853 103.811L107.876 102.611Z" fill="url(#paint47_linear_22:1399)"/>
<path d="M105.239 105.589C105.257 105.581 105.272 105.57 105.285 105.555C105.298 105.541 105.308 105.524 105.314 105.505C105.319 105.487 105.321 105.467 105.318 105.448C105.315 105.429 105.309 105.41 105.298 105.394C105.16 105.183 104.9 104.754 104.818 104.379C104.818 104.379 104.508 104.18 105.606 103.915C106.705 103.649 108.344 103.246 108.688 102.313C109.024 101.404 108.141 99.1171 106.734 100.939C106.721 100.955 106.705 100.968 106.687 100.977C106.668 100.986 106.648 100.991 106.628 100.991C106.607 100.991 106.587 100.986 106.569 100.977C106.551 100.968 106.535 100.955 106.522 100.939C106.29 100.64 105.685 100.019 104.842 100.396C104.054 100.743 103.966 101.323 103.976 101.614C103.977 101.634 103.974 101.654 103.966 101.672C103.958 101.69 103.946 101.706 103.931 101.72C103.916 101.733 103.898 101.742 103.878 101.747C103.859 101.752 103.839 101.753 103.819 101.75C103.421 101.674 102.465 101.609 102.019 102.588C101.65 103.399 101.89 103.849 102.107 104.071C102.123 104.088 102.135 104.108 102.141 104.13C102.147 104.152 102.147 104.176 102.141 104.198C102.136 104.22 102.124 104.241 102.108 104.257C102.092 104.274 102.072 104.286 102.05 104.293C101.789 104.373 101.45 104.594 101.484 105.206C101.531 106.051 102.479 105.977 102.749 105.939C102.77 105.935 102.792 105.938 102.812 105.945C102.833 105.952 102.851 105.964 102.865 105.981C103.098 106.236 104.144 107.321 105.269 107.451C105.292 107.454 105.314 107.45 105.335 107.441C105.356 107.432 105.374 107.418 105.389 107.401C105.403 107.383 105.412 107.362 105.416 107.34C105.42 107.317 105.418 107.294 105.411 107.273L104.921 105.858C104.911 105.826 104.912 105.791 104.926 105.76C104.939 105.729 104.964 105.705 104.995 105.691L105.239 105.589Z" fill="url(#paint48_linear_22:1399)"/>
<path d="M105.435 105.79C105.435 105.79 104.208 104.95 104.118 105.657C104.029 106.364 105.224 106.682 105.815 106.418L105.435 105.79Z" fill="url(#paint49_linear_22:1399)"/>
<path d="M188.71 75.5845C188.7 75.5861 188.69 75.5861 188.681 75.5845L185.405 74.3175C185.385 74.3097 185.369 74.2946 185.361 74.2753C185.352 74.256 185.351 74.2342 185.358 74.2143L188.929 64.986C188.937 64.9662 188.952 64.9502 188.971 64.9415C188.991 64.9328 189.013 64.9321 189.033 64.9397C189.053 64.9474 189.068 64.9626 189.077 64.9818C189.086 65.0011 189.087 65.023 189.079 65.0428L185.537 74.2004L188.739 75.4326C188.756 75.4395 188.77 75.4522 188.779 75.4684C188.788 75.4846 188.791 75.5034 188.788 75.5216C188.784 75.5398 188.775 75.5562 188.76 75.5681C188.746 75.58 188.728 75.5866 188.71 75.5868V75.5845Z" fill="url(#paint50_linear_22:1399)"/>
<path d="M187.977 73.7228C187.968 73.7243 187.958 73.7243 187.948 73.7228L184.558 72.4176C184.538 72.41 184.522 72.3949 184.513 72.3756C184.504 72.3562 184.503 72.3342 184.511 72.3144L188.038 63.2009C188.046 63.1813 188.061 63.1654 188.08 63.1568C188.099 63.1481 188.121 63.1473 188.141 63.1545C188.161 63.1623 188.177 63.1776 188.186 63.1972C188.195 63.2167 188.195 63.2389 188.188 63.2589L184.69 72.3005L188.007 73.5756C188.025 73.582 188.04 73.5945 188.049 73.611C188.059 73.6275 188.062 73.6469 188.059 73.6656C188.055 73.6844 188.045 73.7012 188.03 73.7132C188.015 73.7252 187.997 73.7314 187.977 73.7309V73.7228Z" fill="url(#paint51_linear_22:1399)"/>
<path d="M182.893 68.1448C182.875 68.1447 182.857 68.1386 182.843 68.1274L180.004 65.8635C179.996 65.8569 179.988 65.8487 179.983 65.8392C179.977 65.8297 179.974 65.8192 179.973 65.8083C179.972 65.7974 179.973 65.7865 179.976 65.776C179.979 65.7656 179.984 65.7559 179.991 65.7476L186.186 58.0217C186.193 58.0131 186.201 58.0059 186.211 58.0006C186.22 57.9953 186.231 57.9919 186.242 57.9907C186.252 57.9895 186.263 57.9905 186.274 57.9937C186.284 57.9968 186.294 58.002 186.302 58.0089C186.311 58.0155 186.319 58.0238 186.324 58.0333C186.329 58.0427 186.333 58.0532 186.334 58.0641C186.335 58.075 186.334 58.086 186.331 58.0964C186.328 58.1069 186.322 58.1165 186.315 58.1248L180.171 65.7882L182.946 68.0022C182.955 68.0088 182.963 68.017 182.968 68.0265C182.973 68.036 182.977 68.0465 182.978 68.0574C182.979 68.0683 182.978 68.0792 182.975 68.0897C182.972 68.1001 182.966 68.1098 182.959 68.1181C182.951 68.1273 182.941 68.1345 182.929 68.1391C182.918 68.1437 182.905 68.1456 182.893 68.1448V68.1448Z" fill="url(#paint52_linear_22:1399)"/>
<defs>
<linearGradient id="paint0_linear_22:1399" x1="75.3922" y1="-34.0534" x2="73.9826" y2="20.9121" gradientUnits="userSpaceOnUse">
<stop stop-color="#E1473D"/>
<stop offset="1" stop-color="#E9605A"/>
</linearGradient>
<linearGradient id="paint1_linear_22:1399" x1="122.794" y1="4.41864" x2="52.6216" y2="237.878" gradientUnits="userSpaceOnUse">
<stop stop-color="#79111E"/>
<stop offset="1" stop-color="#FF928E"/>
</linearGradient>
<linearGradient id="paint2_linear_22:1399" x1="47559.1" y1="-14769.6" x2="47535.2" y2="-3253.18" gradientUnits="userSpaceOnUse">
<stop stop-color="#79111E"/>
<stop offset="1" stop-color="#BF5B57"/>
</linearGradient>
<linearGradient id="paint3_linear_22:1399" x1="14150" y1="1566.56" x2="18937.8" y2="1566.56" gradientUnits="userSpaceOnUse">
<stop stop-color="#E1473D"/>
<stop offset="1" stop-color="#E9605A"/>
</linearGradient>
<linearGradient id="paint4_linear_22:1399" x1="85347.5" y1="105032" x2="164620" y2="105032" gradientUnits="userSpaceOnUse">
<stop stop-color="#048480"/>
<stop offset="1" stop-color="#31D9D4"/>
</linearGradient>
<linearGradient id="paint5_linear_22:1399" x1="10972.5" y1="10462.4" x2="12007.6" y2="10462.4" gradientUnits="userSpaceOnUse">
<stop stop-color="#DAE3FE"/>
<stop offset="1" stop-color="#E9EFFD"/>
</linearGradient>
<linearGradient id="paint6_linear_22:1399" x1="51834.7" y1="3469.1" x2="70419.6" y2="3469.1" gradientUnits="userSpaceOnUse">
<stop stop-color="#DAE3FE"/>
<stop offset="1" stop-color="#E9EFFD"/>
</linearGradient>
<linearGradient id="paint7_linear_22:1399" x1="35062.6" y1="3128.25" x2="43436.2" y2="3128.25" gradientUnits="userSpaceOnUse">
<stop stop-color="#DAE3FE"/>
<stop offset="1" stop-color="#E9EFFD"/>
</linearGradient>
<linearGradient id="paint8_linear_22:1399" x1="10972.5" y1="13046" x2="12007.6" y2="13046" gradientUnits="userSpaceOnUse">
<stop stop-color="#DAE3FE"/>
<stop offset="1" stop-color="#E9EFFD"/>
</linearGradient>
<linearGradient id="paint9_linear_22:1399" x1="51834.7" y1="4371.61" x2="70419.5" y2="4371.61" gradientUnits="userSpaceOnUse">
<stop stop-color="#DAE3FE"/>
<stop offset="1" stop-color="#E9EFFD"/>
</linearGradient>
<linearGradient id="paint10_linear_22:1399" x1="35062.6" y1="3875.51" x2="43436.2" y2="3875.51" gradientUnits="userSpaceOnUse">
<stop stop-color="#DAE3FE"/>
<stop offset="1" stop-color="#E9EFFD"/>
</linearGradient>
<linearGradient id="paint11_linear_22:1399" x1="10972.5" y1="15626.2" x2="12007.6" y2="15626.2" gradientUnits="userSpaceOnUse">
<stop stop-color="#DAE3FE"/>
<stop offset="1" stop-color="#E9EFFD"/>
</linearGradient>
<linearGradient id="paint12_linear_22:1399" x1="51834.7" y1="5276.6" x2="70419.5" y2="5276.6" gradientUnits="userSpaceOnUse">
<stop stop-color="#DAE3FE"/>
<stop offset="1" stop-color="#E9EFFD"/>
</linearGradient>
<linearGradient id="paint13_linear_22:1399" x1="35062.6" y1="4625.02" x2="43436.2" y2="4625.02" gradientUnits="userSpaceOnUse">
<stop stop-color="#DAE3FE"/>
<stop offset="1" stop-color="#E9EFFD"/>
</linearGradient>
<linearGradient id="paint14_linear_22:1399" x1="1548.46" y1="5987.67" x2="1553.78" y2="5987.67" gradientUnits="userSpaceOnUse">
<stop stop-color="#DAE3FE"/>
<stop offset="1" stop-color="#E9EFFD"/>
</linearGradient>
<linearGradient id="paint15_linear_22:1399" x1="54.7355" y1="311.689" x2="-5.34588" y2="417.214" gradientUnits="userSpaceOnUse">
<stop stop-color="#09005D"/>
<stop offset="1" stop-color="#1A0F91"/>
</linearGradient>
<linearGradient id="paint16_linear_22:1399" x1="9910.31" y1="4971.52" x2="9030.51" y2="6797.1" gradientUnits="userSpaceOnUse">
<stop stop-color="white"/>
<stop offset="1" stop-color="#FEB3B1"/>
</linearGradient>
<linearGradient id="paint17_linear_22:1399" x1="10202.7" y1="5184.18" x2="9311.78" y2="7004.51" gradientUnits="userSpaceOnUse">
<stop stop-color="white"/>
<stop offset="1" stop-color="#FEB3B1"/>
</linearGradient>
<linearGradient id="paint18_linear_22:1399" x1="-2901.52" y1="991.863" x2="-3234.39" y2="991.863" gradientUnits="userSpaceOnUse">
<stop stop-color="#4042E2"/>
<stop offset="1" stop-color="#4F52FF"/>
</linearGradient>
<linearGradient id="paint19_linear_22:1399" x1="-2823.48" y1="3556.86" x2="-3138.4" y2="3556.86" gradientUnits="userSpaceOnUse">
<stop stop-color="#094141"/>
<stop offset="1" stop-color="#1A0F91"/>
</linearGradient>
<linearGradient id="paint20_linear_22:1399" x1="-793.124" y1="3063.85" x2="-819.594" y2="3063.85" gradientUnits="userSpaceOnUse">
<stop stop-color="#B06C49"/>
<stop offset="1" stop-color="#FEB3B1"/>
</linearGradient>
<linearGradient id="paint21_linear_22:1399" x1="-842.224" y1="1368.55" x2="-891.197" y2="1368.55" gradientUnits="userSpaceOnUse">
<stop stop-color="#4042E2"/>
<stop offset="1" stop-color="#4F52FF"/>
</linearGradient>
<linearGradient id="paint22_linear_22:1399" x1="-1253.5" y1="5719.2" x2="-1359" y2="5719.2" gradientUnits="userSpaceOnUse">
<stop stop-color="#094141"/>
<stop offset="1" stop-color="#1A0F91"/>
</linearGradient>
<linearGradient id="paint23_linear_22:1399" x1="-766.98" y1="3475.56" x2="-804.785" y2="3475.56" gradientUnits="userSpaceOnUse">
<stop stop-color="#B06C49"/>
<stop offset="1" stop-color="#FEB3B1"/>
</linearGradient>
<linearGradient id="paint24_linear_22:1399" x1="-8616.89" y1="31112.6" x2="-3054.86" y2="36255.7" gradientUnits="userSpaceOnUse">
<stop stop-color="#094141"/>
<stop offset="1" stop-color="#1A0F91"/>
</linearGradient>
<linearGradient id="paint25_linear_22:1399" x1="-8081.74" y1="19600.8" x2="-853.478" y2="23801.1" gradientUnits="userSpaceOnUse">
<stop stop-color="white"/>
<stop offset="1" stop-color="#FF928E"/>
</linearGradient>
<linearGradient id="paint26_linear_22:1399" x1="5089.07" y1="3084.74" x2="5156.82" y2="3084.74" gradientUnits="userSpaceOnUse">
<stop stop-color="#08736F"/>
<stop offset="1" stop-color="#4F52FF"/>
</linearGradient>
<linearGradient id="paint27_linear_22:1399" x1="199.217" y1="123.499" x2="206.659" y2="130.108" gradientUnits="userSpaceOnUse">
<stop stop-color="#F9B776"/>
<stop offset="1" stop-color="#F47960"/>
</linearGradient>
<linearGradient id="paint28_linear_22:1399" x1="-3433.88" y1="10879.4" x2="172.042" y2="12531.4" gradientUnits="userSpaceOnUse">
<stop stop-color="white"/>
<stop offset="1" stop-color="#FF928E"/>
</linearGradient>
<linearGradient id="paint29_linear_22:1399" x1="-771.837" y1="10502.4" x2="1970.49" y2="10783.2" gradientUnits="userSpaceOnUse">
<stop stop-color="white"/>
<stop offset="1" stop-color="#FF928E"/>
</linearGradient>
<linearGradient id="paint30_linear_22:1399" x1="-2288.03" y1="5669.98" x2="-2283.8" y2="6215.95" gradientUnits="userSpaceOnUse">
<stop stop-color="#B16741"/>
<stop offset="1" stop-color="#B06C49"/>
</linearGradient>
<linearGradient id="paint31_linear_22:1399" x1="6304.43" y1="5069.1" x2="6085.28" y2="5199.52" gradientUnits="userSpaceOnUse">
<stop stop-color="#B06C49"/>
<stop offset="1" stop-color="#C18160"/>
</linearGradient>
<linearGradient id="paint32_linear_22:1399" x1="-3973.12" y1="21495.1" x2="-4319.76" y2="21446" gradientUnits="userSpaceOnUse">
<stop/>
<stop offset="1" stop-color="#0F0B40"/>
</linearGradient>
<linearGradient id="paint33_linear_22:1399" x1="-811.454" y1="4798.12" x2="-870.544" y2="4741.59" gradientUnits="userSpaceOnUse">
<stop stop-color="#BD7F5F"/>
<stop offset="1" stop-color="#D38A64"/>
</linearGradient>
<linearGradient id="paint34_linear_22:1399" x1="-3993.52" y1="8198.89" x2="-4486.87" y2="8031.43" gradientUnits="userSpaceOnUse">
<stop stop-color="#094141"/>
<stop offset="1" stop-color="#1A0F91"/>
</linearGradient>
<linearGradient id="paint35_linear_22:1399" x1="-5139.3" y1="12581.5" x2="-1782.38" y2="13406.4" gradientUnits="userSpaceOnUse">
<stop stop-color="#FE7062"/>
<stop offset="1" stop-color="#FF928E"/>
</linearGradient>
<linearGradient id="paint36_linear_22:1399" x1="7865.85" y1="4963.54" x2="7399.29" y2="6035.29" gradientUnits="userSpaceOnUse">
<stop stop-color="#094141"/>
<stop offset="1" stop-color="#4F52FF"/>
</linearGradient>
<linearGradient id="paint37_linear_22:1399" x1="1951.76" y1="2766.68" x2="1981.78" y2="2766.68" gradientUnits="userSpaceOnUse">
<stop stop-color="#B06C49"/>
<stop offset="1" stop-color="#FEB3B1"/>
</linearGradient>
<linearGradient id="paint38_linear_22:1399" x1="3112.6" y1="4150.69" x2="2570.1" y2="4740.14" gradientUnits="userSpaceOnUse">
<stop stop-color="#094141"/>
<stop offset="1" stop-color="#4F52FF"/>
</linearGradient>
<linearGradient id="paint39_linear_22:1399" x1="1599.04" y1="3573.57" x2="1621.4" y2="3573.57" gradientUnits="userSpaceOnUse">
<stop stop-color="#B06C49"/>
<stop offset="1" stop-color="#FEB3B1"/>
</linearGradient>
<linearGradient id="paint40_linear_22:1399" x1="11287.2" y1="9696.11" x2="9679.29" y2="11522.4" gradientUnits="userSpaceOnUse">
<stop stop-color="#B06C49"/>
<stop offset="1" stop-color="#B06C49"/>
</linearGradient>
<linearGradient id="paint41_linear_22:1399" x1="-12129.5" y1="32265.9" x2="-11364.2" y2="32865" gradientUnits="userSpaceOnUse">
<stop stop-color="#B06C49"/>
<stop offset="1" stop-color="#BF805F"/>
</linearGradient>
<linearGradient id="paint42_linear_22:1399" x1="1671.66" y1="2151.15" x2="1562.67" y2="2181.27" gradientUnits="userSpaceOnUse">
<stop stop-color="#CF8661"/>
<stop offset="1" stop-color="#D68E6A"/>
</linearGradient>
<linearGradient id="paint43_linear_22:1399" x1="10799.3" y1="6988.26" x2="11111.4" y2="6241.05" gradientUnits="userSpaceOnUse">
<stop stop-color="#B06C49"/>
<stop offset="1" stop-color="#B06C49"/>
</linearGradient>
<linearGradient id="paint44_linear_22:1399" x1="12602.8" y1="11863.7" x2="14041.6" y2="11863.7" gradientUnits="userSpaceOnUse">
<stop stop-color="#6EB3B0"/>
<stop offset="1" stop-color="#E9EFFD"/>
</linearGradient>
<linearGradient id="paint45_linear_22:1399" x1="3610.44" y1="3789.49" x2="3838.03" y2="3684.08" gradientUnits="userSpaceOnUse">
<stop stop-color="#B06C49"/>
<stop offset="1" stop-color="#B06C49"/>
</linearGradient>
<linearGradient id="paint46_linear_22:1399" x1="4862.67" y1="4833.59" x2="4603.49" y2="5422.77" gradientUnits="userSpaceOnUse">
<stop stop-color="#B06C49"/>
<stop offset="1" stop-color="#B06C49"/>
</linearGradient>
<linearGradient id="paint47_linear_22:1399" x1="-24217.5" y1="3046.16" x2="-24259.8" y2="3442.22" gradientUnits="userSpaceOnUse">
<stop stop-color="#B06C49"/>
<stop offset="1" stop-color="#B46237"/>
</linearGradient>
<linearGradient id="paint48_linear_22:1399" x1="-33956.7" y1="17862.3" x2="-33534.4" y2="18197.5" gradientUnits="userSpaceOnUse">
<stop/>
<stop offset="1" stop-color="#0B082C"/>
</linearGradient>
<linearGradient id="paint49_linear_22:1399" x1="-5932.97" y1="1879.63" x2="-5924.2" y2="1977.56" gradientUnits="userSpaceOnUse">
<stop stop-color="#B06C49"/>
<stop offset="1" stop-color="#B06C49"/>
</linearGradient>
<linearGradient id="paint50_linear_22:1399" x1="6390.76" y1="6797.22" x2="6510.48" y2="6797.22" gradientUnits="userSpaceOnUse">
<stop stop-color="#DAE3FE"/>
<stop offset="1" stop-color="#E9EFFD"/>
</linearGradient>
<linearGradient id="paint51_linear_22:1399" x1="6290.87" y1="6583.77" x2="6407.8" y2="6583.77" gradientUnits="userSpaceOnUse">
<stop stop-color="#DAE3FE"/>
<stop offset="1" stop-color="#E9EFFD"/>
</linearGradient>
<linearGradient id="paint52_linear_22:1399" x1="10468.1" y1="5845.89" x2="10815.9" y2="5845.89" gradientUnits="userSpaceOnUse">
<stop stop-color="#DAE3FE"/>
<stop offset="1" stop-color="#E9EFFD"/>
</linearGradient>
</defs>
</svg>
