<svg width="300" height="114" viewBox="0 0 300 114" fill="none" xmlns="http://www.w3.org/2000/svg">
<rect y="13" width="300" height="101" rx="10" fill="white"/>
<path d="M209.83 37.1141C195.733 -6.3565 119.988 -8.24794 114.17 40.5267C114.17 40.5267 109.676 41.4188 105.719 40.8112C84.1204 37.4955 46.3279 78.9896 75.333 110.697H237.309C254.834 80.4176 242.246 49.4325 209.83 37.1141Z" fill="#F6F5F5"/>
<path d="M170.907 64.3348L170.628 64.0628C188.712 45.4153 189.427 35.2167 190.514 19.7792C190.9 14.3096 191.335 8.12824 192.587 0.66448C184.025 4.6558 177.084 10.1867 171.953 17.105C167.795 22.7121 164.807 29.2401 163.075 36.5072C160.123 48.8914 161.867 59.2673 161.885 59.3701L161.501 59.4373C161.483 59.3339 159.726 48.8907 162.693 36.4304C164.436 29.1085 167.445 22.5347 171.635 16.8788C176.873 9.8142 183.98 4.18719 192.764 0.154479L193.096 0L193.033 0.365131C191.737 7.97376 191.294 14.2608 190.903 19.8043C189.81 35.3305 189.087 45.5853 170.907 64.3348Z" fill="#DADADA"/>
<path d="M167.5 60.3294L167.122 60.2326C167.196 59.9525 174.394 32.0717 183.452 16.5935L183.789 16.7909C174.758 32.2217 167.572 60.05 167.5 60.3294Z" fill="#DADADA"/>
<path d="M177.484 29.6962L177.095 29.6821C177.095 29.6267 177.26 24.03 174.345 18.6432L174.688 18.4562C177.655 23.9405 177.487 29.6393 177.484 29.6962Z" fill="#DADADA"/>
<path d="M173.328 41.0329L173.054 40.7557C177.197 36.6284 182.61 35.3534 182.664 35.3408L182.751 35.7222C182.698 35.734 177.39 36.9869 173.328 41.0329Z" fill="#DADADA"/>
<path d="M184.66 76.2836L184.621 75.8941C191.671 75.1934 197.39 70.4541 202.104 61.4071C206.28 53.3897 209.149 43.1505 211.923 33.241C213.722 26.8187 215.423 20.7445 217.409 15.4848C197.121 20.5708 188.712 36.7046 188.629 36.8679L188.282 36.6905C188.366 36.5249 196.949 20.0438 217.679 15.0154L218.039 14.9282L217.906 15.2756C215.869 20.5974 214.136 26.7906 212.299 33.3467C209.519 43.2717 206.645 53.5346 202.449 61.5882C197.67 70.7616 191.851 75.5689 184.66 76.2836Z" fill="#DADADA"/>
<path d="M182.934 66.6786L182.578 66.5204C182.696 66.2521 194.546 39.6285 204.501 31.8868L204.74 32.1958C200.659 35.3689 195.596 42.3337 190.098 52.3372C185.937 59.9074 182.965 66.612 182.934 66.6786Z" fill="#DADADA"/>
<path d="M196.029 42.2591L195.646 42.1852C195.652 42.1556 196.201 39.1407 196.69 31.8566L197.079 31.8832C196.588 39.1976 196.035 42.2296 196.029 42.2591Z" fill="#DADADA"/>
<path d="M189.385 53.5989L189.164 53.2774C189.217 53.2397 194.631 49.5359 201.739 47.9105L201.825 48.2919C194.79 49.901 189.438 53.5627 189.385 53.5989Z" fill="#DADADA"/>
<path d="M94.9907 101.838C77.4821 83.7814 76.7866 73.9044 75.733 58.9547C75.3573 53.613 74.9307 47.5595 73.6819 40.2324L73.62 39.8673L73.9552 40.0218C93.1112 48.8175 100.274 63.8773 102.91 74.9598C105.768 86.9604 104.076 97.0185 104.058 97.1183L103.674 97.051C103.692 96.952 105.369 86.9611 102.528 75.0367C99.9226 64.1086 92.8761 49.2831 74.1247 40.5325C75.3293 47.7139 75.7455 53.6654 76.1191 58.9266C77.1668 73.7913 77.8579 83.6136 95.267 101.566L94.9907 101.838Z" fill="#DADADA"/>
<path d="M98.2707 97.9786C98.2015 97.7096 91.281 70.9109 82.585 56.0536L82.9217 55.8547C91.645 70.7608 98.5787 97.6113 98.6479 97.8811L98.2707 97.9786Z" fill="#DADADA"/>
<path d="M88.6589 68.477C88.6589 68.4223 88.4953 62.9334 91.3532 57.6493L91.6958 57.8356C88.8902 63.0214 89.0435 68.4053 89.0486 68.4629L88.6589 68.477Z" fill="#DADADA"/>
<path d="M92.6595 79.399C88.7502 75.5046 83.6407 74.2991 83.5899 74.2865L83.6761 73.9059C83.7284 73.9177 88.9433 75.1454 92.9344 79.1219L92.6595 79.399Z" fill="#DADADA"/>
<path d="M82.957 108.698C67.9144 107.293 61.8928 90.5652 56.5807 75.8061C54.7852 70.817 53.0892 66.105 51.1213 62.0494L50.9474 61.6917L51.3364 61.773C61.4972 63.8935 68.5031 68.3409 72.5877 71.698C77.0209 75.3397 79.0794 78.5291 79.0993 78.5609L78.7714 78.7715C78.6911 78.6474 70.6478 66.3474 51.6444 62.2349C53.5474 66.2262 55.2 70.8177 56.9491 75.6701C62.2221 90.3205 68.1995 106.924 82.9946 108.305L82.957 108.698Z" fill="#DADADA"/>
<path d="M84.4549 101.43C84.3415 101.226 72.9798 80.9839 63.6523 75.0472L63.8608 74.7168C73.2715 80.7038 84.6811 101.034 84.7953 101.238L84.4549 101.43Z" fill="#DADADA"/>
<path d="M71.9055 82.7503C71.9004 82.7274 71.3448 80.4183 70.7967 74.866L71.185 74.8275C71.7294 80.3459 72.2783 82.635 72.2842 82.6572L71.9055 82.7503Z" fill="#DADADA"/>
<path d="M78.2705 91.4521C78.2204 91.4233 73.1646 88.5821 66.5647 87.2783L66.6384 86.8947C73.3032 88.2118 78.4104 91.0826 78.4613 91.1077L78.2705 91.4521Z" fill="#DADADA"/>
<path d="M222.804 110.43L222.711 110.051C239.273 105.993 242.395 88.146 245.415 70.8865C246.475 64.8257 247.571 58.5682 249.246 53.1474C232.76 56.3219 223.421 67.7378 218.481 76.7915C213.086 86.6796 211.625 95.9601 211.611 96.0525L211.225 95.9941C211.24 95.901 212.709 86.5621 218.133 76.6148C223.143 67.4245 232.654 55.8164 249.493 52.7054L249.812 52.6462L249.714 52.9567C247.992 58.4211 246.877 64.7924 245.799 70.9545C242.758 88.3375 239.613 106.312 222.804 110.43Z" fill="#DADADA"/>
<path d="M221.386 100.647L221.01 100.543C221.071 100.321 227.177 78.5432 237.108 69.9426L237.363 70.2383C227.521 78.7619 221.447 100.429 221.386 100.647Z" fill="#DADADA"/>
<path d="M228.405 82.3852L228.023 82.3061C228.033 82.2617 228.924 77.824 228.612 71.3085L229.002 71.2893C229.316 77.858 228.414 82.3393 228.405 82.3852Z" fill="#DADADA"/>
<path d="M223.154 91.8645L222.914 91.5555C222.968 91.5141 228.418 87.2922 235.947 84.6077L236.077 84.9772C228.607 87.6396 223.208 91.8223 223.154 91.8645Z" fill="#DADADA"/>
<path d="M184.592 30.4663C184.341 30.4665 184.096 30.3921 183.888 30.2524C183.679 30.1128 183.517 29.9143 183.421 29.6821C183.325 29.4498 183.299 29.1941 183.348 28.9475C183.397 28.7008 183.518 28.4742 183.695 28.2963C183.872 28.1185 184.098 27.9973 184.344 27.9482C184.59 27.8991 184.844 27.9242 185.076 28.0204C185.308 28.1166 185.506 28.2796 185.645 28.4886C185.784 28.6977 185.859 28.9436 185.859 29.195C185.858 29.532 185.725 29.855 185.487 30.0933C185.25 30.3316 184.928 30.4658 184.592 30.4663ZM184.592 28.3155C184.419 28.3156 184.249 28.3673 184.105 28.4642C183.961 28.561 183.848 28.6985 183.782 28.8594C183.716 29.0203 183.698 29.1972 183.732 29.368C183.766 29.5387 183.85 29.6955 183.973 29.8185C184.095 29.9415 184.252 30.0253 184.422 30.0592C184.592 30.0931 184.768 30.0756 184.929 30.009C185.089 29.9423 185.226 29.8295 185.322 29.6848C185.419 29.54 185.47 29.3698 185.47 29.1958C185.47 28.9622 185.377 28.7383 185.213 28.5732C185.048 28.4082 184.825 28.3155 184.592 28.3155Z" fill="#DADADA"/>
<path d="M79.5487 50.1132C79.298 50.1133 79.0529 50.0389 78.8444 49.8992C78.6359 49.7596 78.4733 49.561 78.3773 49.3287C78.2813 49.0964 78.2562 48.8407 78.305 48.594C78.3539 48.3473 78.4746 48.1208 78.6519 47.9429C78.8292 47.7651 79.055 47.644 79.3009 47.5949C79.5468 47.5459 79.8017 47.5712 80.0333 47.6675C80.2648 47.7638 80.4628 47.9268 80.6019 48.136C80.7411 48.3452 80.8154 48.5911 80.8152 48.8426C80.8146 49.1794 80.681 49.5022 80.4436 49.7404C80.2062 49.9785 79.8844 50.1126 79.5487 50.1132ZM79.5487 47.9623C79.3751 47.9622 79.2054 48.0137 79.061 48.1103C78.9166 48.2069 78.804 48.3444 78.7375 48.5052C78.671 48.6661 78.6535 48.8431 78.6873 49.0139C78.721 49.1847 78.8045 49.3416 78.9272 49.4648C79.0499 49.588 79.2063 49.6719 79.3765 49.7059C79.5467 49.74 79.7232 49.7226 79.8836 49.656C80.044 49.5894 80.1811 49.4765 80.2775 49.3317C80.374 49.187 80.4255 49.0167 80.4255 48.8426C80.4245 48.6098 80.3317 48.3869 80.1675 48.2225C80.0032 48.0581 79.7807 47.9656 79.5487 47.9653V47.9623Z" fill="#DADADA"/>
<path d="M197.065 78.4345C196.814 78.4345 196.569 78.3599 196.361 78.2203C196.153 78.0807 195.991 77.8823 195.895 77.6501C195.799 77.4179 195.774 77.1625 195.823 76.916C195.871 76.6695 195.992 76.4431 196.169 76.2654C196.346 76.0878 196.572 75.9668 196.818 75.9177C197.063 75.8687 197.318 75.8939 197.549 75.99C197.781 76.0862 197.979 76.249 198.118 76.458C198.257 76.6669 198.331 76.9126 198.331 77.1639C198.331 77.5007 198.197 77.8237 197.96 78.0619C197.722 78.3001 197.401 78.4341 197.065 78.4345ZM197.065 76.2843C196.891 76.2843 196.721 76.336 196.577 76.4327C196.433 76.5295 196.32 76.667 196.254 76.8279C196.188 76.9888 196.17 77.1659 196.204 77.3366C196.238 77.5074 196.322 77.6643 196.445 77.7874C196.567 77.9104 196.724 77.9942 196.894 78.0281C197.064 78.062 197.241 78.0444 197.401 77.9777C197.561 77.911 197.698 77.798 197.795 77.6532C197.891 77.5083 197.942 77.338 197.942 77.1639C197.942 76.9306 197.849 76.707 197.685 76.5421C197.52 76.3772 197.297 76.2845 197.065 76.2843Z" fill="#DADADA"/>
<path d="M240.167 64.8781C239.917 64.8781 239.672 64.8036 239.464 64.664C239.255 64.5244 239.093 64.3259 238.997 64.0938C238.901 63.8616 238.876 63.6062 238.925 63.3597C238.974 63.1132 239.095 62.8869 239.272 62.7092C239.449 62.5315 239.674 62.4105 239.92 62.3614C240.166 62.3124 240.42 62.3376 240.652 62.4338C240.883 62.5299 241.081 62.6928 241.22 62.9017C241.359 63.1106 241.434 63.3563 241.434 63.6076C241.433 63.9444 241.3 64.2674 241.062 64.5055C240.825 64.7437 240.503 64.8777 240.167 64.8781ZM240.167 62.7273C239.994 62.7271 239.824 62.7786 239.679 62.8753C239.535 62.9719 239.422 63.1093 239.356 63.2702C239.289 63.431 239.272 63.608 239.306 63.7788C239.34 63.9497 239.423 64.1066 239.546 64.2298C239.668 64.3529 239.825 64.4369 239.995 64.4709C240.165 64.5049 240.342 64.4875 240.502 64.4209C240.662 64.3543 240.8 64.2415 240.896 64.0967C240.992 63.9519 241.044 63.7817 241.044 63.6076C241.044 63.3744 240.951 63.1508 240.787 62.9858C240.622 62.8208 240.4 62.7279 240.167 62.7273Z" fill="#DADADA"/>
<path d="M192.875 61.2608C193.359 61.2608 193.752 60.867 193.752 60.3812C193.752 59.8954 193.359 59.5016 192.875 59.5016C192.391 59.5016 191.998 59.8954 191.998 60.3812C191.998 60.867 192.391 61.2608 192.875 61.2608Z" fill="#DADADA"/>
<path d="M233.249 93.6532C233.733 93.6532 234.126 93.2594 234.126 92.7736C234.126 92.2878 233.733 91.894 233.249 91.894C232.765 91.894 232.372 92.2878 232.372 92.7736C232.372 93.2594 232.765 93.6532 233.249 93.6532Z" fill="#DADADA"/>
<path d="M169.584 35.2569C169.584 34.7711 169.192 34.3768 168.708 34.3761C168.224 34.3754 167.831 34.7687 167.83 35.2544C167.83 35.7402 168.222 36.1346 168.706 36.1353C169.19 36.1359 169.583 35.7427 169.584 35.2569Z" fill="#DADADA"/>
<path d="M71.8834 96.5211C72.3676 96.5211 72.7601 96.1273 72.7601 95.6415C72.7601 95.1558 72.3676 94.762 71.8834 94.762C71.3992 94.762 71.0066 95.1558 71.0066 95.6415C71.0066 96.1273 71.3992 96.5211 71.8834 96.5211Z" fill="#DADADA"/>
<path d="M96.8577 35.774C96.7432 35.7738 96.6293 35.7571 96.5195 35.7245L94.0948 34.9979C93.946 34.9537 93.8074 34.8804 93.6869 34.7824C93.5664 34.6843 93.4664 34.5633 93.3926 34.4264C93.3188 34.2895 93.2727 34.1393 93.2569 33.9845C93.2411 33.8296 93.2559 33.6732 93.3005 33.5241L94.1265 30.7723C93.1025 30.227 92.16 29.5401 91.3267 28.7315L88.9632 30.3318C88.7036 30.5074 88.3852 30.5727 88.0777 30.5135C87.7702 30.4542 87.4986 30.2751 87.3224 30.0154L85.9049 27.92C85.8181 27.7913 85.7574 27.6468 85.7264 27.4946C85.6953 27.3424 85.6944 27.1856 85.7238 27.0331C85.7531 26.8806 85.8121 26.7354 85.8974 26.6058C85.9827 26.4761 86.0927 26.3646 86.2209 26.2776L88.5572 24.6959C88.0611 23.5231 87.7499 22.2801 87.6348 21.0113L84.8653 20.6957C84.7113 20.6783 84.5622 20.6305 84.4267 20.5552C84.2911 20.4799 84.1716 20.3786 84.0752 20.2569C83.9787 20.1353 83.907 19.9957 83.8644 19.8463C83.8217 19.6968 83.8088 19.5404 83.8264 19.386L84.116 16.8729C84.1524 16.5609 84.3107 16.2761 84.5561 16.081C84.8015 15.8859 85.1141 15.7964 85.4252 15.8322L88.1608 16.1471C88.5275 14.9954 89.0615 13.9043 89.7456 12.9089L87.8566 10.9392C87.7492 10.8272 87.6649 10.6951 87.6085 10.5504C87.552 10.4057 87.5246 10.2513 87.5277 10.0959C87.5307 9.94061 87.5643 9.78741 87.6264 9.64509C87.6885 9.50277 87.778 9.37413 87.8897 9.26651L89.7147 7.51255C89.9408 7.29533 90.2435 7.17681 90.5565 7.1829C90.8695 7.189 91.1674 7.31922 91.3849 7.54507L93.2578 9.49268C94.317 8.81091 95.4745 8.29685 96.6897 7.96859L96.5151 5.28407C96.5051 5.1287 96.5258 4.97288 96.576 4.82556C96.6261 4.67823 96.7048 4.5423 96.8075 4.42555C96.9102 4.30881 97.0348 4.21356 97.1743 4.14525C97.3138 4.07695 97.4653 4.03695 97.6202 4.02754L100.145 3.86272C100.3 3.85167 100.456 3.87145 100.603 3.92092C100.75 3.97039 100.886 4.04858 101.003 4.15099C101.121 4.2534 101.216 4.37802 101.285 4.51767C101.354 4.65733 101.395 4.80927 101.405 4.96476L101.58 7.65003C102.827 7.81728 104.042 8.17626 105.181 8.71438L106.783 6.53911C106.97 6.28697 107.249 6.11917 107.558 6.07237C107.868 6.02556 108.183 6.10354 108.436 6.28929L110.472 7.79194C110.724 7.9781 110.891 8.25687 110.938 8.56693C110.985 8.877 110.907 9.19297 110.721 9.44538L109.101 11.6399C109.907 12.5383 110.577 13.5509 111.09 14.6452L113.761 13.98C114.065 13.9043 114.386 13.9524 114.655 14.1138C114.924 14.2751 115.117 14.5366 115.194 14.841L115.808 17.2957C115.846 17.4466 115.853 17.6034 115.83 17.7572C115.807 17.911 115.754 18.0587 115.674 18.1919C115.594 18.325 115.488 18.4411 115.364 18.5334C115.239 18.6256 115.097 18.6923 114.947 18.7296L112.24 19.4059C112.291 20.6791 112.143 21.9525 111.802 23.1799L114.322 24.4446C114.46 24.5141 114.584 24.6102 114.685 24.7276C114.787 24.845 114.864 24.9812 114.913 25.1286C114.962 25.2759 114.981 25.4315 114.97 25.5864C114.959 25.7414 114.918 25.8926 114.849 26.0315L113.714 28.294C113.573 28.5741 113.327 28.7867 113.03 28.8855C112.733 28.9842 112.409 28.961 112.129 28.821L109.577 27.5415C108.855 28.452 108.009 29.256 107.064 29.9297L108.243 32.5506C108.306 32.6925 108.341 32.8456 108.346 33.001C108.35 33.1564 108.324 33.3112 108.269 33.4565C108.213 33.6018 108.13 33.7347 108.023 33.8476C107.917 33.9605 107.789 34.0513 107.648 34.1146L105.339 35.1494C105.053 35.2776 104.729 35.2874 104.437 35.1766C104.144 35.0658 103.907 34.8435 103.777 34.5581L102.599 31.9231C101.361 32.1971 100.089 32.2804 98.8263 32.17L97.996 34.9358C97.9212 35.1797 97.7701 35.3929 97.5651 35.5439C97.3601 35.6949 97.112 35.7756 96.8577 35.774ZM91.3754 28.2282L91.4888 28.3413C92.3602 29.2091 93.3594 29.9373 94.4514 30.5003L94.5987 30.5742L93.6792 33.6372C93.6496 33.7368 93.6398 33.8414 93.6504 33.9449C93.6611 34.0484 93.6919 34.1487 93.7413 34.2402C93.7906 34.3318 93.8574 34.4126 93.9379 34.4782C94.0184 34.5438 94.111 34.5928 94.2104 34.6224L96.6344 35.349C96.8355 35.4093 97.0522 35.3872 97.2371 35.2876C97.422 35.188 97.56 35.019 97.621 34.8176L98.5427 31.7442L98.7025 31.7605C100.026 31.894 101.362 31.8065 102.658 31.5018L102.814 31.4649L104.131 34.3925C104.218 34.5842 104.376 34.7336 104.572 34.8083C104.768 34.8829 104.986 34.8767 105.177 34.7909L107.486 33.7562C107.581 33.7139 107.667 33.6533 107.738 33.5778C107.809 33.5023 107.865 33.4135 107.902 33.3163C107.939 33.2191 107.957 33.1155 107.954 33.0116C107.951 32.9076 107.927 32.8052 107.885 32.7103L106.578 29.7929L106.711 29.7005C107.721 29.0007 108.618 28.1488 109.369 27.1749L109.467 27.0478L112.304 28.4706C112.492 28.565 112.709 28.5808 112.909 28.5146C113.108 28.4484 113.273 28.3055 113.368 28.1173L114.502 25.8548C114.549 25.762 114.577 25.6608 114.584 25.557C114.592 25.4533 114.579 25.349 114.547 25.2502C114.514 25.1515 114.462 25.0601 114.395 24.9815C114.327 24.9028 114.244 24.8384 114.151 24.792L111.337 23.3817L111.382 23.225C111.758 21.9401 111.914 20.6005 111.844 19.2633L111.835 19.1021L114.856 18.3482C114.957 18.3233 115.052 18.2787 115.136 18.2169C115.219 18.155 115.29 18.0773 115.344 17.988C115.397 17.8987 115.433 17.7997 115.448 17.6966C115.463 17.5935 115.458 17.4884 115.433 17.3873L114.818 14.9305C114.766 14.7271 114.637 14.5523 114.457 14.4445C114.278 14.3366 114.063 14.3043 113.86 14.3547L110.874 15.1005L110.808 14.9526C110.282 13.7905 109.574 12.7205 108.71 11.7833L108.6 11.6643L110.411 9.21107C110.472 9.12736 110.517 9.03221 110.542 8.93109C110.567 8.82997 110.572 8.72488 110.557 8.62185C110.541 8.51882 110.505 8.41989 110.452 8.33075C110.398 8.2416 110.327 8.16399 110.243 8.10238L108.204 6.60416C108.035 6.48032 107.824 6.42839 107.617 6.45967C107.41 6.49095 107.224 6.60291 107.099 6.7712L105.302 9.21034L105.154 9.13642C103.964 8.55481 102.685 8.17684 101.37 8.01812L101.209 7.9989L101.014 4.99063C101 4.78073 100.903 4.58499 100.746 4.4464C100.588 4.30781 100.382 4.23771 100.172 4.2515L97.6475 4.41707C97.4387 4.43112 97.2439 4.52759 97.1058 4.68537C96.9677 4.84316 96.8976 5.04939 96.9107 5.25894L97.106 8.26646L96.949 8.30638C95.6649 8.63436 94.4447 9.17575 93.3389 9.90808L93.2033 9.99751L91.1064 7.81633C90.9606 7.66494 90.7609 7.57763 90.5511 7.57348C90.3412 7.56932 90.1383 7.64866 89.9866 7.79416L88.1616 9.54886C88.0868 9.62084 88.0269 9.7069 87.9854 9.80212C87.9438 9.89734 87.9213 9.99985 87.9193 10.1038C87.9172 10.2077 87.9356 10.311 87.9734 10.4078C88.0112 10.5046 88.0676 10.593 88.1395 10.6679L90.2518 12.8653L90.159 12.9976C89.4231 14.0388 88.8587 15.1917 88.4872 16.4124L88.4401 16.5684L85.3832 16.2166C85.28 16.2042 85.1753 16.2124 85.0753 16.2408C84.9752 16.2691 84.8818 16.317 84.8002 16.3817C84.7187 16.4464 84.6507 16.5266 84.6001 16.6178C84.5496 16.7089 84.5175 16.8092 84.5057 16.9128L84.2154 19.4259C84.2038 19.5293 84.2125 19.6339 84.2412 19.7339C84.2699 19.8339 84.3179 19.9273 84.3826 20.0086C84.4472 20.09 84.5273 20.1577 84.618 20.208C84.7088 20.2583 84.8086 20.2902 84.9117 20.3017L87.9958 20.6587L88.0083 20.8191C88.1138 22.1541 88.4425 23.4616 88.9809 24.687L89.0464 24.8348L86.4412 26.6021C86.3551 26.66 86.2812 26.7344 86.2239 26.821C86.1665 26.9076 86.1267 27.0047 86.1069 27.1067C86.087 27.2088 86.0875 27.3138 86.1082 27.4157C86.1289 27.5176 86.1694 27.6143 86.2276 27.7005L87.6458 29.7959C87.7638 29.9706 87.9461 30.0911 88.1527 30.131C88.3592 30.171 88.5731 30.127 88.7473 30.0088L91.3754 28.2282ZM99.916 27.0633C96.2159 27.0633 93.092 24.1807 92.8489 20.434C92.5962 16.5322 95.5639 13.1499 99.4643 12.8949C101.336 12.7727 103.179 13.4012 104.588 14.6423C105.998 15.8834 106.858 17.6353 106.98 19.5127C107.102 21.3901 106.475 23.2391 105.238 24.6531C104.001 26.067 102.254 26.93 100.383 27.0522C100.226 27.0596 100.071 27.0633 99.916 27.0633ZM99.9359 13.2704C99.7885 13.2704 99.6412 13.2753 99.4938 13.2852C95.81 13.5261 93.0021 16.7214 93.2416 20.4082C93.481 24.095 96.6779 26.8985 100.361 26.6583C102.095 26.5517 103.719 25.7716 104.889 24.4835C106.059 23.1955 106.683 21.5009 106.628 19.7591C106.573 18.0174 105.844 16.3656 104.595 15.1542C103.347 13.9428 101.677 13.267 99.9396 13.2704H99.9359Z" fill="#DADADA"/>
<path d="M159.526 18.1923H101.546C99.54 18.1923 97.9134 19.824 97.9134 21.8369V106.856C97.9134 108.869 99.54 110.501 101.546 110.501H159.526C161.533 110.501 163.159 108.869 163.159 106.856V21.8369C163.159 19.824 161.533 18.1923 159.526 18.1923Z" fill="#7BBEBC"/>
<path d="M142.036 22.2538H119.039V26.1268H142.036V22.2538Z" fill="#A1CACA"/>
<path d="M156.652 32.0303H104.422V43.6509H156.652V32.0303Z" fill="#DADADA"/>
<path d="M154.366 33.6194H106.707V42.0611H154.366V33.6194Z" fill="white"/>
<path d="M110.477 49.0408H106.929C105.864 49.0408 105 49.9071 105 50.9758V51.7985C105 52.8672 105.864 53.7335 106.929 53.7335H110.477C111.542 53.7335 112.406 52.8672 112.406 51.7985V50.9758C112.406 49.9071 111.542 49.0408 110.477 49.0408Z" fill="#099F9F"/>
<path d="M154.723 49.0408H151.174C150.109 49.0408 149.246 49.9071 149.246 50.9758V51.7985C149.246 52.8672 150.109 53.7335 151.174 53.7335H154.723C155.788 53.7335 156.652 52.8672 156.652 51.7985V50.9758C156.652 49.9071 155.788 49.0408 154.723 49.0408Z" fill="#099F9F"/>
<path d="M155.046 59H147.919C147.411 59 147 59.4127 147 59.9217V64.205C147 64.7141 147.411 65.1267 147.919 65.1267H155.046C155.553 65.1267 155.964 64.7141 155.964 64.205V59.9217C155.964 59.4127 155.553 59 155.046 59Z" fill="#099F9F"/>
<path d="M141.046 59H133.919C133.411 59 133 59.4127 133 59.9217V64.205C133 64.7141 133.411 65.1267 133.919 65.1267H141.046C141.553 65.1267 141.964 64.7141 141.964 64.205V59.9217C141.964 59.4127 141.553 59 141.046 59Z" fill="#099F9F"/>
<path d="M127.046 59H119.919C119.411 59 119 59.4127 119 59.9217V64.205C119 64.7141 119.411 65.1267 119.919 65.1267H127.046C127.553 65.1267 127.964 64.7141 127.964 64.205V59.9217C127.964 59.4127 127.553 59 127.046 59Z" fill="#099F9F"/>
<path d="M112.826 59H105.699C105.191 59 104.78 59.4127 104.78 59.9217V64.205C104.78 64.7141 105.191 65.1267 105.699 65.1267H112.826C113.333 65.1267 113.744 64.7141 113.744 64.205V59.9217C113.744 59.4127 113.333 59 112.826 59Z" fill="#099F9F"/>
<path d="M155.731 70.4836H148.605C148.097 70.4836 147.686 70.8963 147.686 71.4054V75.6887C147.686 76.1977 148.097 76.6104 148.605 76.6104H155.731C156.239 76.6104 156.65 76.1977 156.65 75.6887V71.4054C156.65 70.8963 156.239 70.4836 155.731 70.4836Z" fill="#099F9F"/>
<path d="M141.046 70H133.919C133.411 70 133 70.4127 133 70.9217V75.205C133 75.7141 133.411 76.1267 133.919 76.1267H141.046C141.553 76.1267 141.964 75.7141 141.964 75.205V70.9217C141.964 70.4127 141.553 70 141.046 70Z" fill="#A1CACA"/>
<path d="M127.046 70H119.919C119.411 70 119 70.4127 119 70.9217V75.205C119 75.7141 119.411 76.1267 119.919 76.1267H127.046C127.553 76.1267 127.964 75.7141 127.964 75.205V70.9217C127.964 70.4127 127.553 70 127.046 70Z" fill="#A1CACA"/>
<path d="M112.826 70H105.699C105.191 70 104.78 70.4127 104.78 70.9217V75.205C104.78 75.7141 105.191 76.1267 105.699 76.1267H112.826C113.333 76.1267 113.744 75.7141 113.744 75.205V70.9217C113.744 70.4127 113.333 70 112.826 70Z" fill="#A1CACA"/>
<path d="M155.731 81.5632H148.605C148.097 81.5632 147.686 81.9759 147.686 82.4849V86.7682C147.686 87.2772 148.097 87.6899 148.605 87.6899H155.731C156.239 87.6899 156.65 87.2772 156.65 86.7682V82.4849C156.65 81.9759 156.239 81.5632 155.731 81.5632Z" fill="#1F3C88"/>
<path d="M141.429 81.5632H134.302C133.795 81.5632 133.384 81.9759 133.384 82.4849V86.7682C133.384 87.2772 133.795 87.6899 134.302 87.6899H141.429C141.937 87.6899 142.348 87.2772 142.348 86.7682V82.4849C142.348 81.9759 141.937 81.5632 141.429 81.5632Z" fill="#A1CACA"/>
<path d="M113.046 81.5632H105.919C105.411 81.5632 105 81.9759 105 82.4849V86.7682C105 87.2772 105.411 87.6899 105.919 87.6899H113.046C113.553 87.6899 113.964 87.2772 113.964 86.7682V82.4849C113.964 81.9759 113.553 81.5632 113.046 81.5632Z" fill="#A1CACA"/>
<path d="M112.826 81.5632H105.699C105.191 81.5632 104.78 81.9759 104.78 82.4849V86.7682C104.78 87.2772 105.191 87.6899 105.699 87.6899H112.826C113.333 87.6899 113.744 87.2772 113.744 86.7682V82.4849C113.744 81.9759 113.333 81.5632 112.826 81.5632Z" fill="#D3DFFF"/>
<path d="M155.731 93.0338H148.605C148.097 93.0338 147.686 93.4465 147.686 93.9555V98.2388C147.686 98.7478 148.097 99.1605 148.605 99.1605H155.731C156.239 99.1605 156.65 98.7478 156.65 98.2388V93.9555C156.65 93.4465 156.239 93.0338 155.731 93.0338Z" fill="#FBC343"/>
<path d="M127.046 93H119.919C119.411 93 119 93.4127 119 93.9217V98.205C119 98.714 119.411 99.1267 119.919 99.1267H127.046C127.553 99.1267 127.964 98.714 127.964 98.205V93.9217C127.964 93.4127 127.553 93 127.046 93Z" fill="#A1CACA"/>
<path d="M113.046 93H105.919C105.411 93 105 93.4127 105 93.9217V98.205C105 98.714 105.411 99.1267 105.919 99.1267H113.046C113.553 99.1267 113.964 98.714 113.964 98.205V93.9217C113.964 93.4127 113.553 93 113.046 93Z" fill="#A1CACA"/>
<path d="M112.826 93.0338H105.699C105.191 93.0338 104.78 93.4465 104.78 93.9555V98.2388C104.78 98.7478 105.191 99.1605 105.699 99.1605H112.826C113.333 99.1605 113.744 98.7478 113.744 98.2388V93.9555C113.744 93.4465 113.333 93.0338 112.826 93.0338Z" fill="#A1CACA"/>
<path d="M143.99 39.7542C144.162 39.7639 144.335 39.7567 144.506 39.7328C144.874 39.6875 145.219 39.5272 145.491 39.2746C145.803 38.9915 146.027 38.5768 146.114 38.018H146.093C145.96 38.1818 145.791 38.3129 145.599 38.4012C145.408 38.4894 145.198 38.5326 144.988 38.5273C144.14 38.5273 143.597 37.8872 143.597 37.0808C143.597 36.1864 144.241 35.4015 145.204 35.4015C146.167 35.4015 146.762 36.1865 146.762 37.3927C146.762 38.4327 146.414 39.1593 145.951 39.6101C145.577 39.9659 145.096 40.188 144.583 40.2421C144.388 40.274 144.19 40.2863 143.993 40.279L143.99 39.7542ZM144.222 37.0365C144.222 37.6278 144.577 38.0395 145.128 38.0395C145.311 38.0456 145.493 38.0035 145.656 37.9173C145.818 37.8311 145.955 37.7037 146.053 37.5479C146.095 37.4777 146.115 37.3968 146.111 37.3151C146.111 36.5087 145.817 35.8908 145.148 35.8908C144.605 35.8878 144.221 36.3653 144.221 37.0365H144.222Z" fill="#099F9F"/>
<path d="M147.708 39.7543C147.88 39.7639 148.053 39.7567 148.224 39.7328C148.592 39.6871 148.936 39.5268 149.209 39.2746C149.52 38.9915 149.745 38.5768 149.831 38.018H149.811C149.677 38.1817 149.508 38.3127 149.317 38.401C149.125 38.4893 148.916 38.5325 148.705 38.5273C147.858 38.5273 147.314 37.8872 147.314 37.0808C147.314 36.1864 147.959 35.4015 148.923 35.4015C149.887 35.4015 150.474 36.1857 150.474 37.392C150.474 38.4319 150.126 39.1585 149.663 39.6094C149.288 39.9651 148.807 40.1871 148.294 40.2413C148.099 40.2733 147.901 40.2856 147.704 40.2783L147.708 39.7543ZM147.939 37.0365C147.939 37.6278 148.294 38.0395 148.845 38.0395C149.029 38.0456 149.212 38.0031 149.374 37.9164C149.537 37.8296 149.674 37.7015 149.772 37.545C149.814 37.4747 149.834 37.3937 149.83 37.3122C149.83 36.5058 149.535 35.8878 148.867 35.8878C148.323 35.8878 147.939 36.3653 147.939 37.0365Z" fill="#099F9F"/>
<path d="M215.902 84.4999H180.305V110.696H215.902V84.4999Z" fill="#79111E"/>
<path d="M215.903 90.4307H206.419V90.8217H215.903V90.4307Z" fill="#E49B31"/>
<path d="M215.903 104.769H199.403V105.16H215.903V104.769Z" fill="#E49B31"/>
<path d="M198.051 93.9925C198.051 97.0417 197.588 100.073 196.679 102.983C195.998 105.161 194.643 107.066 192.809 108.418C190.975 109.77 188.758 110.5 186.482 110.5H180.305V84.5013H196.522C197.535 87.5624 198.051 90.7671 198.051 93.9925Z" fill="#E49B31"/>
<path d="M163.723 104.354H134.378C133.4 104.354 132.608 105.149 132.608 106.129V108.921C132.608 109.901 133.4 110.696 134.378 110.696H163.723C164.7 110.696 165.493 109.901 165.493 108.921V106.129C165.493 105.149 164.7 104.354 163.723 104.354Z" fill="#79111E"/>
<path d="M161.857 99.783V102.579C161.857 103.05 161.671 103.501 161.339 103.833C161.007 104.166 160.558 104.353 160.089 104.353H130.741C130.272 104.353 129.822 104.166 129.491 103.833C129.159 103.501 128.973 103.05 128.973 102.579V99.783C128.973 99.3125 129.159 98.8613 129.491 98.5286C129.822 98.1959 130.272 98.009 130.741 98.009H160.087C160.556 98.0102 161.005 98.1974 161.337 98.5298C161.668 98.8622 161.855 99.3127 161.857 99.783Z" fill="#79111E"/>
<path d="M165.493 106.129V108.922C165.493 109.392 165.307 109.843 164.975 110.176C164.643 110.509 164.194 110.695 163.725 110.695H142.679C141.226 108.896 140.337 106.578 139.806 104.352C139.19 101.803 139.03 99.3823 138.996 98.0052H160.09C160.559 98.0068 161.007 98.1942 161.339 98.5265C161.67 98.8589 161.857 99.3092 161.858 99.7792V102.575C161.858 103.046 161.672 103.497 161.34 103.83C161.009 104.162 160.559 104.349 160.09 104.349H163.727C163.959 104.35 164.19 104.396 164.404 104.485C164.619 104.575 164.814 104.706 164.978 104.872C165.142 105.037 165.272 105.233 165.36 105.449C165.449 105.665 165.494 105.896 165.493 106.129Z" fill="#E49B31"/>
<path d="M180.916 54.1118L178.545 61.4123L178.369 61.9518L177.272 65.3393L177.264 65.3629L173.721 65.2846L160.125 64.9786L159.131 62.124L158.964 61.6473L156.333 54.1118C164.495 56.9464 171.223 50.7488 180.916 54.1118Z" fill="#79111E"/>
<path d="M178.371 61.9519L177.272 65.3394L173.721 65.2847L160.125 64.9787L159.132 62.1241C163.809 62.0421 171.847 61.9327 178.371 61.9519Z" fill="#E49B31"/>
<path d="M193.561 103.183C192.881 105.362 191.525 107.266 189.691 108.618C187.857 109.97 185.64 110.699 183.364 110.699H152.572C150.405 110.698 148.299 109.984 146.576 108.666C144.852 107.349 143.608 105.5 143.032 103.405C142.358 100.949 141.987 98.4193 141.927 95.8729C141.927 95.6304 141.92 95.388 141.92 95.1455C141.92 94.8588 141.924 94.5725 141.932 94.2867C142.183 85.1732 146.621 76.685 153.746 71.0261L161.113 65.1752L177.971 65.5662L187.237 74.4624C188.549 75.7051 189.692 77.1171 190.633 78.6614C192.823 82.308 194.217 86.379 194.722 90.6058C195.228 94.8325 194.833 99.1187 193.566 103.181L193.561 103.183Z" fill="#79111E"/>
<path d="M166.142 102.528V99.2596C163.842 99.1562 161.613 98.5368 160.308 97.7814L161.34 93.7539C162.781 94.544 164.802 95.2676 167.036 95.2676C168.991 95.2676 170.329 94.5107 170.329 93.1345C170.329 91.8255 169.231 90.9984 166.692 90.138C163.021 88.8993 160.515 87.1815 160.515 83.8399C160.515 80.8095 162.644 78.4361 166.315 77.7133V74.4426H169.675V77.4731C171.975 77.5765 173.52 78.0585 174.651 78.6084L173.656 82.4984C172.765 82.12 171.187 81.3269 168.715 81.3269C166.485 81.3269 165.768 82.2877 165.768 83.2553C165.768 84.3906 166.969 85.1134 169.885 86.2118C173.967 87.6583 175.615 89.5504 175.615 92.6503C175.615 95.7133 173.453 98.3283 169.508 99.0179V102.527L166.142 102.528Z" fill="white"/>
<path d="M180.755 63.9675H156.909C155.918 63.9675 155.116 64.773 155.116 65.7666V66.5323C155.116 67.5259 155.918 68.3314 156.909 68.3314H180.755C181.745 68.3314 182.548 67.5259 182.548 66.5323V65.7666C182.548 64.773 181.745 63.9675 180.755 63.9675Z" fill="#ED7545"/>
<path opacity="0.4" d="M193.561 103.183C192.881 105.362 191.525 107.266 189.691 108.618C187.857 109.97 185.64 110.699 183.364 110.699H152.572C150.405 110.698 148.299 109.984 146.576 108.666C144.852 107.349 143.608 105.5 143.032 103.405C142.358 100.949 141.987 98.4193 141.927 95.8729C147.021 100.745 153.024 107.115 167.056 107.311C184.48 107.553 191.989 99.3608 193.338 84.505C195.388 90.5492 195.466 97.0912 193.561 103.183Z" fill="#E49B31"/>
<path d="M73.9618 105.287L70.8438 104.114L63.6006 110.501H72.1722L73.9618 105.287Z" fill="#102048"/>
<path d="M73.9618 105.287H80.8477L80.0682 110.24L72.1722 110.501L73.9618 105.287Z" fill="#B06C49"/>
<path d="M101.602 77.521L101.348 79.2535L101.196 80.2979L100.105 87.8023L99.6883 90.6687L99.3199 93.2261L98.3496 99.8894L97.6725 104.513C97.4279 106.195 96.5879 107.733 95.3062 108.844C94.0244 109.956 92.3866 110.567 90.6924 110.567H75.456L75.4752 110.371L75.9703 105.287L76.0439 104.572L86.6615 102.518L88.0886 92.124C87.3865 89.101 87.5582 86.1918 87.8624 84.1503C88.1196 82.4104 88.4784 81.3031 88.4784 81.3031L93.218 79.9387L101.602 77.521Z" fill="#08736F"/>
<path d="M98.3474 99.8893L97.6726 104.513C97.4279 106.195 96.5879 107.733 95.3062 108.844C94.0245 109.956 92.3867 110.567 90.6924 110.567H89.9114C96.8931 109.312 95.5293 100.366 98.3474 99.8893Z" fill="#085D5D"/>
<path d="M70.0285 107.987L68.5344 110.398L68.8654 110.605L70.3595 108.193L70.0285 107.987Z" fill="white"/>
<path d="M100.105 87.8022L99.3177 93.226C97.1236 92.5963 94.2296 89.4498 94.2296 89.4498L100.105 87.8022Z" fill="#085D5D"/>
<path d="M116.249 101.637C116.249 101.637 112.546 103.544 105.92 102.322L111.425 98.6558L116.249 101.637Z" fill="#102048"/>
<path d="M114.211 104.265L108.29 104.398L108.255 103.116L108.162 99.6003L113.424 99.9913L113.673 101.348L114.211 104.265Z" fill="#B06C49"/>
<path d="M113.673 101.348L108.255 103.116L108.162 99.6003L113.424 99.9913L113.673 101.348Z" fill="#C57E5A"/>
<path d="M120.926 110.55L114.397 105.271L114.212 104.266L108.289 104.398L108.454 110.55H120.926Z" fill="#102048"/>
<path d="M116.636 106.922L114.292 108.388L114.499 108.72L116.843 107.254L116.636 106.922Z" fill="white"/>
<path d="M88.4776 81.3046L109.663 77.9297C110.654 77.7716 111.669 77.9051 112.586 78.3141C113.479 78.7123 114.242 79.3552 114.787 80.1688C115.332 80.9825 115.637 81.9339 115.667 82.9137L116.249 101.64C116.249 101.64 110.207 100.368 105.92 102.324L105.531 89.5149C102.94 90.6975 98.4535 90.9488 93.9061 90.4928L88.4776 81.3046Z" fill="#08736F"/>
<path d="M113.267 101.05H112.877C112.877 97.8101 112.955 95.1204 113.025 92.747C113.192 86.9685 113.284 83.7851 111.816 82.4384C110.629 81.3481 108.256 81.3814 104.813 81.7901C101.123 82.2218 99.6515 78.2807 99.6367 78.2423L100.005 78.1085C100.06 78.2563 101.385 81.8116 104.768 81.4028C108.413 80.9712 110.778 80.9549 112.081 82.1508C113.68 83.6195 113.592 86.6743 113.415 92.7603C113.341 95.1263 113.267 97.816 113.267 101.05Z" fill="#28B9B4"/>
<path d="M105.927 99.9624L105.789 99.5973C105.838 99.5781 110.78 97.7332 116.234 99.1014L116.14 99.4805C110.809 98.1427 105.973 99.944 105.927 99.9624Z" fill="#28B9B4"/>
<path d="M77.6199 110.622C77.0135 109.403 77.9529 104.357 77.9927 104.143L78.3758 104.217C78.1084 105.64 77.513 109.534 77.9691 110.448L77.6199 110.622Z" fill="#28B9B4"/>
<path d="M99.4931 79.7383C99.4931 79.7383 97.9967 82.9336 94.6208 85.0844C93.4751 85.8117 92.3486 86.1436 91.3393 86.148C89.8149 86.148 88.5484 85.4089 87.8624 84.1524C88.1196 82.4125 88.4784 81.3052 88.4784 81.3052L93.218 79.9408L98.0004 79.7885L99.4931 79.7383Z" fill="#085D5D"/>
<path d="M95.6884 60.4832V65.0089H100.106V61.0944L95.6884 60.4832Z" fill="white"/>
<path d="M100.106 58.2961H95.6884V60.4832L100.106 61.0945V58.2961Z" fill="#B06C49"/>
<path d="M96.991 58.9147C97.0883 58.9147 98.0564 60.4388 100.106 61.0944L100.077 58.7196L96.991 58.9147Z" fill="#BF8C71"/>
<path d="M100.625 52.8864C100.625 52.8864 103.061 59.4691 99.9108 59.8927C96.7604 60.3162 96.2727 58.8823 96.2727 58.8823L95.2986 55.3958L97.4751 52.4629L100.625 52.8864Z" fill="#B06C49"/>
<path d="M102.119 56.0593C102.126 55.6814 101.827 55.3693 101.45 55.3623C101.073 55.3553 100.762 55.656 100.755 56.034C100.748 56.4119 101.048 56.7239 101.425 56.7309C101.801 56.7379 102.113 56.4372 102.119 56.0593Z" fill="#B06C49"/>
<path d="M97.3122 56.0145C97.3122 56.0145 97.4751 52.4954 100.628 52.8864C100.628 52.8864 98.5073 50.1516 95.7134 51.2138C94.2944 51.7519 93.3455 53.1111 93.2084 54.6264C93.0294 56.5851 94.1662 58.8173 95.7606 59.209C96.1794 58.2746 96.6446 57.3619 97.1546 56.4742L97.3122 56.0145Z" fill="#102048"/>
<path d="M97.6731 57.281C98.1523 57.0551 98.3273 56.4165 98.0641 55.8545C97.8008 55.2926 97.199 55.0202 96.7199 55.2461C96.2408 55.4719 96.0658 56.1106 96.329 56.6725C96.5922 57.2344 97.194 57.5068 97.6731 57.281Z" fill="#B06C49"/>
<path opacity="0.4" d="M100.452 56.4532C100.459 55.9585 100.065 55.5517 99.5718 55.5446C99.0786 55.5376 98.6732 55.9328 98.6661 56.4275C98.6591 56.9222 99.0531 57.329 99.5462 57.3361C100.039 57.3431 100.445 56.9479 100.452 56.4532Z" fill="#EB5D60"/>
<path d="M97.3969 56.6339C97.3711 56.6339 97.3463 56.6236 97.3279 56.6053C97.3096 56.587 97.2992 56.5622 97.299 56.5363C97.2948 56.3707 97.2299 56.2126 97.1166 56.0921C97.0033 55.9716 96.8497 55.8974 96.6852 55.8836C96.6596 55.8799 96.6364 55.8662 96.6208 55.8454C96.6052 55.8246 96.5984 55.7985 96.602 55.7727C96.6062 55.7474 96.6199 55.7246 96.6403 55.709C96.6607 55.6935 96.6863 55.6864 96.7118 55.6892C97.4854 55.7986 97.4942 56.5289 97.4942 56.5363C97.4942 56.5491 97.4917 56.5618 97.4868 56.5736C97.4819 56.5855 97.4747 56.5962 97.4657 56.6053C97.4567 56.6143 97.446 56.6215 97.4342 56.6264C97.4224 56.6313 97.4097 56.6339 97.3969 56.6339Z" fill="#102048"/>
<path d="M112.156 54.0305C112.156 54.0305 115.563 54.2914 117.418 56.4748L113.198 57.5177L112.156 54.0305Z" fill="#BA5C36"/>
<path d="M118.194 52.1539C118.21 52.4666 117.352 54.0269 116.721 55.1334C116.353 55.7712 116.062 56.2561 116.062 56.2561L113.79 56.9213L112.169 54.4696L112.088 54.3477C112.088 54.3477 112.112 54.242 112.154 54.052V54.0483C112.158 54.0439 112.158 54.0365 112.163 54.0247C112.435 52.8635 113.402 48.9062 113.96 48.7731C114.45 48.6593 114.162 50.8257 114.162 50.8257C114.162 50.8257 115.376 47.3045 116.093 47.4523C116.666 47.5661 115.544 50.9447 115.544 50.9447C115.544 50.9447 115.945 50.5219 116.354 50.655C116.477 50.6944 116.587 50.7665 116.673 50.8635C116.759 50.9605 116.817 51.079 116.841 51.2063C116.841 51.2063 117.129 51.0031 117.418 51.1753C117.707 51.3475 117.679 51.8989 117.679 51.8989C117.679 51.8989 118.163 51.6653 118.194 52.1539Z" fill="#B06C49"/>
<path d="M94.6562 63.4176L93.1126 69.4711L90.7196 78.858C89.0943 79.5816 87.3791 79.8469 86.019 79.62C84.4401 79.3584 83.3372 78.4374 83.4109 76.8047C83.6061 72.4061 94.6562 63.4176 94.6562 63.4176Z" fill="white"/>
<path d="M94.36 65.1389L93.1126 69.4732L90.7196 78.8602C89.0943 79.5838 87.3791 79.8492 86.019 79.6223C89.4877 69.6366 94.36 65.1389 94.36 65.1389Z" fill="white"/>
<path d="M104.007 78.835C100.791 79.0568 90.657 87.4614 88.2212 82.0377C88.2212 82.0377 88.5602 61.8047 98.9707 62.1802C99.873 62.2144 100.743 62.5267 101.462 63.0747C102.181 63.6226 102.714 64.3796 102.989 65.2424C103.304 66.2817 103.536 67.3445 103.683 68.4207C103.916 70.0952 104.049 71.7822 104.081 73.4726C104.124 75.0344 104.104 76.8135 104.007 78.835Z" fill="white"/>
<path d="M104.081 73.4696C102.471 72.426 100.791 69.2781 100.791 69.2781L103.683 68.4177C103.916 70.0922 104.049 71.7792 104.081 73.4696Z" fill="white"/>
<path d="M116.721 55.1333C116.353 55.7712 116.062 56.2561 116.062 56.2561L113.79 56.9213L112.169 54.4696L112.157 54.0549V54.0305H112.162L116.721 55.1333Z" fill="#BA7B65"/>
<path d="M98.9736 62.1802C98.9736 62.1802 103.971 62.5305 106.992 63.1218L112.156 54.0305C113.734 55.2964 115.488 56.1112 117.418 56.4748L112.899 67.1553C112.41 68.1514 111.661 68.9957 110.731 69.5982C109.802 70.2008 108.726 70.539 107.62 70.5767L99.8791 70.8421L98.9736 62.1802Z" fill="white"/>
<path d="M106.992 63.2654H106.965C106.87 63.2476 97.4294 61.5107 95.821 62.938C95.7913 62.9605 95.7542 62.9709 95.7172 62.9671C95.6801 62.9633 95.6459 62.9456 95.6213 62.9175C95.5968 62.8894 95.5837 62.853 95.5848 62.8157C95.5859 62.7783 95.6011 62.7428 95.6272 62.7162C97.3417 61.1951 106.624 62.9003 107.018 62.9742C107.052 62.983 107.082 63.0036 107.102 63.0323C107.122 63.0609 107.131 63.0958 107.128 63.1307C107.125 63.1656 107.109 63.1982 107.084 63.2227C107.06 63.2473 107.027 63.2621 106.992 63.2646V63.2654Z" fill="white"/>
<path d="M210.447 102.159L211.097 110.501H200.281L205.737 106.721L205.64 101.507L210.447 102.159Z" fill="#102048"/>
<path d="M226.396 98.6069L229.318 105.743L221.913 112L222.985 104.961L221.523 100.269L226.396 98.6069Z" fill="#102048"/>
<path d="M213.306 58.3596C213.192 58.6998 213.101 59.0473 213.034 59.3996C212.886 60.1232 212.765 61.0464 212.659 62.1344C212.317 65.6822 212.172 70.9603 212.133 76.5637C212.051 89.1829 212.527 103.468 212.527 103.468L210.547 103.436L205.675 103.362L203.952 103.335C201.34 83.3445 202.085 66.4627 202.479 60.5851C202.49 60.3819 202.506 60.1941 202.514 60.0182C202.596 58.9391 202.65 58.3641 202.65 58.3641L213.306 58.3596Z" fill="#08736F"/>
<path d="M228.246 100.464L227.256 100.711L222.065 102.013L218.892 102.813C218.892 102.813 215.134 88.8253 212.133 76.566C210.691 70.6529 209.42 65.1435 208.835 61.8004C208.633 60.6177 208.512 59.7079 208.496 59.1447L213.033 59.4026L218.763 59.7315C218.763 59.7315 218.903 60.5564 219.177 62.0384C220.268 67.9448 223.468 84.3062 228.246 100.464Z" fill="#08736F"/>
<path d="M219.177 62.0353C217.009 62.2127 214.831 62.2455 212.659 62.1337C211.291 62.0597 210.007 61.9415 208.835 61.7973C206.692 61.5337 204.568 61.1272 202.479 60.5807C201.815 60.4011 201.447 60.2851 201.447 60.2851L202.512 60.0153L209.075 58.3611H213.304C213.19 58.7013 213.099 59.0487 213.031 59.401L218.761 59.73C218.761 59.73 218.903 60.5534 219.177 62.0353Z" fill="#085D5D"/>
<path d="M212.336 78.0893C212.02 76.7633 210.531 70.4844 210.338 69.4208L207.325 68.2877L207.462 67.9219L210.704 69.1422V69.2774C210.727 69.5679 211.917 74.6531 212.713 77.9991L212.336 78.0893Z" fill="#28B9B4"/>
<path d="M204.687 83.8124C203.27 83.8124 202.369 83.4591 202.319 83.4429L202.467 83.08C202.482 83.0866 204.072 83.7038 206.32 83.2655L206.394 83.6491C205.831 83.7584 205.26 83.8131 204.687 83.8124Z" fill="#28B9B4"/>
<path d="M215.972 83.5382C215.393 83.5366 214.815 83.4854 214.244 83.3852L214.318 83.0001C214.345 83.006 216.98 83.4953 218.197 82.6416L218.419 82.9617C217.77 83.417 216.809 83.5382 215.972 83.5382Z" fill="#28B9B4"/>
<path d="M205.859 106.577L205.622 106.888L207.149 108.061L207.386 107.751L205.859 106.577Z" fill="white"/>
<path d="M223.049 104.768L222.902 105.13L224.981 105.977L225.127 105.615L223.049 104.768Z" fill="white"/>
<path d="M207.589 36.984C207.589 36.984 200.897 37.8311 199.209 45.3909L201.222 54.3854L200.313 60.3812C200.313 60.3812 209.408 61.2941 218.762 59.7301L215.92 44.4463L207.589 36.984Z" fill="white"/>
<path d="M211.746 56.1452C211.746 56.1452 209.732 54.6625 212.363 48.1626L214.117 54.5664L211.746 56.1452Z" fill="#6E3620"/>
<path d="M211.487 43.2542L211.572 43.4155C211.598 43.4655 211.614 43.5201 211.62 43.5764C211.625 43.6326 211.619 43.6893 211.603 43.7433C211.586 43.7973 211.559 43.8475 211.523 43.891C211.487 43.9346 211.443 43.9706 211.393 43.997L203.904 47.9752L203.418 47.0534L210.906 43.076C211.006 43.0226 211.124 43.0115 211.232 43.045C211.341 43.0786 211.432 43.1541 211.485 43.2549L211.487 43.2542Z" fill="#102048"/>
<path d="M213.435 54.0306L213.236 53.9212L210.652 52.5213L206.321 50.1672C206.243 49.6431 206.302 49.1974 206.616 48.8922L206.401 48.8064C206.227 48.7326 206.074 48.6169 205.956 48.4695C205.838 48.3221 205.757 48.1476 205.723 47.9616L205.715 47.915C205.634 47.6123 205.626 47.2946 205.692 46.9881L205.793 46.8551C206.047 46.5225 206.162 46.3547 206.487 46.0923L205.933 46.1241C205.933 46.1241 204.569 46.4988 205.205 45.6193C205.641 45.0095 206.619 44.4928 207.177 44.2349C207.292 44.1808 207.421 44.1637 207.546 44.1861C207.671 44.2085 207.786 44.2691 207.875 44.3598C209.749 46.3118 213.047 48.6468 213.047 48.6468L213.082 49.1242L213.401 53.5154L213.435 54.0306Z" fill="#B06C49"/>
<path d="M208.325 46.5543L207.146 45.9763C207.024 45.9159 206.885 45.8963 206.751 45.9201L205.499 46.1419L205.465 45.949L206.717 45.7272C206.893 45.6964 207.073 45.7223 207.233 45.8012L208.412 46.3791L208.325 46.5543Z" fill="#7A4C3D"/>
<path d="M208.106 47.666L206.689 47.122C206.626 47.0981 206.56 47.0858 206.492 47.0858H205.687V46.8906H206.492C206.584 46.8905 206.674 46.907 206.759 46.9394L208.174 47.4834L208.106 47.666Z" fill="#7A4C3D"/>
<path d="M207.911 48.7739L206.627 48.2868C206.525 48.2484 206.415 48.2348 206.307 48.2469L205.781 48.3075L205.759 48.1131L206.285 48.0525C206.424 48.0371 206.565 48.0548 206.696 48.1043L207.98 48.5913L207.911 48.7739Z" fill="#7A4C3D"/>
<path d="M213.4 53.5184L213.236 53.9175L210.652 52.5176L212.363 48.1611L213.08 49.1272L213.4 53.5184Z" fill="#C07C59"/>
<path d="M211.746 56.1452C211.746 56.1452 215.611 59.8276 218.762 59.73L217.853 55.3958L211.746 56.1452Z" fill="white"/>
<path d="M207.589 36.984C208.011 36.9501 208.435 36.9425 208.858 36.961C216.661 37.2293 222.636 43.9643 222.256 51.7873C222.099 55.021 221.262 58.2318 218.567 58.2961L211.746 56.1452C212.39 53.7246 212.87 51.2145 212.363 48.1626L215.531 49.6778L207.589 36.984Z" fill="white"/>
<path d="M209.814 55.8452L200.28 56.0802L200.019 55.2701L199.06 52.3144L196.285 43.7619L205.819 43.5276L209.814 55.8452Z" fill="#D3DFFF"/>
<path opacity="0.3" d="M201.083 51.2899C201.083 51.2899 201.068 53.9331 200.019 55.2701L199.061 52.3136L201.083 51.2899Z" fill="#1F3C88"/>
<path d="M196.459 51.0829C196.76 50.1102 197.306 49.2122 197.908 48.4021C198.1 48.1449 198.516 47.5107 198.916 47.6075C199.727 47.8026 198.916 49.2336 198.916 49.2336C198.916 49.2336 199.696 48.0606 199.988 48.6467C200.281 49.2329 199.858 49.8855 199.858 49.8855C199.858 49.8855 201.093 49.0725 200.638 50.6986C200.638 50.6986 201.644 50.5685 201.028 51.6757C200.586 52.4666 200.302 53.3484 199.75 54.0749C199.198 54.8015 198.149 55.2176 197.282 54.8C196.262 54.31 196.131 53.001 196.257 52.0039C196.298 51.6916 196.365 51.3835 196.459 51.0829Z" fill="#B06C49"/>
<path d="M198.21 50.8249C198.196 50.8251 198.182 50.8223 198.17 50.8168C198.146 50.8061 198.128 50.7866 198.119 50.7623C198.109 50.7381 198.11 50.7112 198.121 50.6875L199.046 48.5861C199.051 48.5743 199.059 48.5637 199.068 48.5549C199.077 48.546 199.088 48.5391 199.1 48.5344C199.112 48.5298 199.125 48.5276 199.137 48.5279C199.15 48.5282 199.163 48.531 199.174 48.5362C199.186 48.5414 199.197 48.5488 199.206 48.5581C199.214 48.5674 199.221 48.5784 199.226 48.5903C199.231 48.6023 199.233 48.6151 199.233 48.6279C199.232 48.6408 199.229 48.6534 199.224 48.6652L198.299 50.7673C198.291 50.7845 198.279 50.7991 198.263 50.8094C198.247 50.8196 198.229 50.825 198.21 50.8249Z" fill="#7A4C3D"/>
<path d="M199.159 51.6077C199.145 51.6077 199.131 51.6045 199.118 51.5981C199.095 51.5868 199.077 51.5669 199.068 51.5426C199.059 51.5183 199.06 51.4915 199.071 51.468L199.948 49.5862C199.959 49.5626 199.979 49.5444 200.003 49.5356C200.028 49.5267 200.055 49.5279 200.078 49.5388C200.101 49.5498 200.12 49.5697 200.128 49.5941C200.137 49.6185 200.136 49.6454 200.125 49.6689L199.248 51.5507C199.24 51.5677 199.228 51.5821 199.212 51.5922C199.196 51.6023 199.178 51.6077 199.159 51.6077Z" fill="#7A4C3D"/>
<path d="M199.89 52.2427C199.875 52.2426 199.859 52.2388 199.845 52.2316C199.834 52.2256 199.824 52.2175 199.816 52.2076C199.807 52.1978 199.801 52.1864 199.797 52.174C199.793 52.1617 199.792 52.1488 199.793 52.136C199.794 52.1231 199.798 52.1107 199.804 52.0993L200.559 50.6572C200.571 50.6343 200.592 50.6171 200.616 50.6094C200.641 50.6017 200.668 50.6041 200.691 50.6162C200.714 50.6283 200.731 50.6489 200.738 50.6737C200.746 50.6984 200.744 50.7252 200.732 50.7481L199.976 52.1902C199.968 52.206 199.956 52.2193 199.941 52.2286C199.926 52.2379 199.908 52.2427 199.89 52.2427Z" fill="#7A4C3D"/>
<path d="M203.041 44.3813H199.631L199.046 43.2083H202.456L203.041 44.3813Z" fill="#102048"/>
<path d="M207.5 40.8001C206.899 40.8044 206.312 40.6266 205.814 40.2901C205.789 40.2646 205.774 40.2309 205.772 40.1952C205.769 40.1595 205.78 40.1242 205.802 40.0958C205.824 40.0675 205.855 40.048 205.89 40.041C205.925 40.0341 205.961 40.0401 205.992 40.058C206.048 40.1001 207.371 41.0876 209.141 40.0158C209.174 40.0034 209.21 40.0029 209.243 40.0144C209.275 40.026 209.303 40.0488 209.321 40.079C209.339 40.1091 209.345 40.1445 209.339 40.179C209.333 40.2134 209.315 40.2447 209.289 40.2672C208.628 40.6707 208.015 40.8001 207.5 40.8001Z" fill="#BA5C36"/>
<path d="M211.746 56.2915C211.732 56.2913 211.719 56.2893 211.705 56.2856C211.668 56.2743 211.637 56.2488 211.618 56.2147C211.6 56.1805 211.596 56.1404 211.606 56.1031C213.006 51.3423 212.23 48.2291 212.222 48.1981L212.165 47.9763L218.201 48.9911C218.222 48.9918 218.243 48.9969 218.262 49.0062C218.281 49.0155 218.297 49.0287 218.311 49.045C218.324 49.0613 218.334 49.0803 218.339 49.1007C218.345 49.121 218.346 49.1423 218.342 49.1631C218.339 49.184 218.331 49.2038 218.319 49.2213C218.307 49.2388 218.292 49.2536 218.274 49.2647C218.256 49.2758 218.236 49.2829 218.215 49.2855C218.195 49.2882 218.173 49.2864 218.153 49.2801L212.554 48.3385C212.701 49.1345 213.103 52.0615 211.891 56.1836C211.882 56.2151 211.863 56.2428 211.837 56.2623C211.811 56.2818 211.779 56.2921 211.746 56.2915Z" fill="#BA5C36"/>
<path d="M216.163 48.8944H216.154C216.116 48.8917 216.08 48.8739 216.054 48.8449C216.029 48.8159 216.015 48.7779 216.017 48.7391C216.017 48.7074 216.181 45.5527 213.996 42.3124C213.981 42.2803 213.977 42.2438 213.986 42.2094C213.996 42.1749 214.017 42.145 214.046 42.125C214.076 42.105 214.111 42.0964 214.146 42.1007C214.182 42.1049 214.214 42.1218 214.238 42.1483C216.481 45.4744 216.311 48.7266 216.309 48.7569C216.307 48.794 216.29 48.8288 216.263 48.8543C216.236 48.8798 216.2 48.8941 216.163 48.8944Z" fill="#BA5C36"/>
<path d="M210.268 33.3843V37.1583C210.268 38.3756 209.322 39.3624 208.155 39.3624C206.987 39.3624 206.041 38.3756 206.041 37.1583V33.3843H210.268Z" fill="#B06C49"/>
<path d="M208.27 33.8878C208.27 33.8878 208.049 36.2197 206.041 36.8938V33.5818L208.27 33.8878Z" fill="#102048"/>
<path d="M204.446 29.0826C204.446 29.0826 203.79 34.3763 205.846 35.0038C207.901 35.6313 209.784 33.8079 209.784 33.8079L209.396 29.4411L206.355 27.6472L204.446 29.0826Z" fill="#B06C49"/>
<path d="M216.148 39.3706L212.09 39.6404C211.575 39.0727 211.287 38.2759 211.096 37.3757C210.925 38.3018 211.06 39.072 211.513 39.6796L210.414 39.7535C209.439 38.2907 208.621 35.0533 209.588 32.2845L209.701 31.6311C209.701 31.6311 209.007 29.5239 208.001 29.4337C208.001 29.4337 204.552 31.7686 203.016 29.1639C201.871 27.2244 202.837 24.6744 205.595 26.5555C205.595 26.5555 212.217 23.4386 212.202 29.8284C212.198 30.9748 212.627 32.1005 213.473 32.867C213.545 32.9385 213.622 33.0051 213.702 33.0665C215.185 34.2477 216.787 36.6018 216.148 39.3706Z" fill="#102048"/>
<path d="M210.745 31.9715C210.941 31.3615 210.678 30.7307 210.158 30.5626C209.638 30.3944 209.057 30.7526 208.862 31.3626C208.666 31.9726 208.928 32.6035 209.449 32.7716C209.969 32.9397 210.549 32.5815 210.745 31.9715Z" fill="#B06C49"/>
<path d="M209.667 32.0303C209.641 32.0303 209.617 32.02 209.598 32.0017C209.58 31.9834 209.57 31.9586 209.57 31.9327C209.57 31.5107 209.902 31.1374 210.296 31.1197H210.3C210.326 31.119 210.351 31.1286 210.37 31.1464C210.388 31.1642 210.399 31.1888 210.4 31.2146C210.401 31.2405 210.391 31.2656 210.373 31.2844C210.355 31.3032 210.331 31.3141 210.305 31.3148C210.044 31.3281 209.764 31.5801 209.764 31.9342C209.764 31.9598 209.754 31.9842 209.735 32.0022C209.717 32.0202 209.693 32.0303 209.667 32.0303Z" fill="#102048"/>
<path d="M205.168 31.1012C205.169 31.1496 205.154 31.197 205.128 31.2373C205.101 31.2777 205.063 31.3091 205.018 31.3278C204.974 31.3464 204.925 31.3514 204.877 31.342C204.83 31.3326 204.787 31.3094 204.752 31.2752C204.718 31.241 204.695 31.1974 204.685 31.15C204.676 31.1025 204.681 31.0532 204.699 31.0085C204.718 30.9638 204.749 30.9255 204.789 30.8986C204.829 30.8717 204.876 30.8573 204.925 30.8573C204.989 30.8573 205.051 30.883 205.097 30.9287C205.142 30.9744 205.168 31.0365 205.168 31.1012Z" fill="#102048"/>
<path d="M206.638 30.9793C206.638 31.0276 206.624 31.0749 206.597 31.1152C206.57 31.1554 206.532 31.1868 206.488 31.2053C206.443 31.2238 206.394 31.2286 206.347 31.2192C206.3 31.2098 206.256 31.1865 206.222 31.1522C206.188 31.118 206.165 31.0744 206.155 31.027C206.146 30.9795 206.151 30.9303 206.169 30.8856C206.188 30.8409 206.219 30.8027 206.259 30.7758C206.299 30.749 206.346 30.7346 206.394 30.7346C206.459 30.7346 206.521 30.7604 206.567 30.8063C206.613 30.8522 206.638 30.9144 206.638 30.9793Z" fill="#102048"/>
<path d="M205.518 32.7391C205.505 32.7393 205.493 32.7369 205.481 32.732C205.469 32.7272 205.459 32.7201 205.45 32.711C205.252 32.5167 205.171 32.3326 205.209 32.1634C205.23 32.0932 205.267 32.0284 205.315 31.9736C205.364 31.9187 205.424 31.875 205.49 31.8455L205.469 31.3629C205.468 31.337 205.477 31.3117 205.495 31.2925C205.512 31.2733 205.536 31.2617 205.562 31.2601C205.588 31.2597 205.613 31.2692 205.632 31.2867C205.65 31.3042 205.662 31.3283 205.664 31.354L205.692 31.9764L205.622 32.0007C205.569 32.0192 205.424 32.0931 205.401 32.207C205.378 32.3208 205.488 32.473 205.588 32.5714C205.598 32.5804 205.605 32.5912 205.61 32.603C205.615 32.6149 205.617 32.6276 205.617 32.6405C205.617 32.6533 205.615 32.666 205.61 32.6779C205.605 32.6897 205.598 32.7005 205.588 32.7096C205.579 32.7191 205.568 32.7267 205.556 32.7318C205.544 32.7368 205.531 32.7394 205.518 32.7391Z" fill="#102048"/>
<path d="M205.714 33.4435C205.668 33.4437 205.621 33.4408 205.575 33.4346C205.55 33.4304 205.527 33.4164 205.512 33.3954C205.497 33.3745 205.491 33.3485 205.495 33.323C205.5 33.2978 205.514 33.2753 205.534 33.2601C205.555 33.2449 205.581 33.2381 205.606 33.241C205.774 33.2557 205.943 33.2361 206.103 33.1834C206.264 33.1307 206.411 33.0459 206.538 32.9342C206.558 32.9173 206.583 32.9088 206.609 32.9107C206.634 32.9125 206.658 32.9246 206.675 32.9442C206.692 32.9638 206.701 32.9893 206.699 33.0152C206.697 33.041 206.685 33.0651 206.665 33.082C206.403 33.3141 206.065 33.4426 205.714 33.4435Z" fill="#102048"/>
<path opacity="0.4" d="M207.606 32.7392C207.96 32.7392 208.246 32.452 208.246 32.0976C208.246 31.7433 207.96 31.4561 207.606 31.4561C207.253 31.4561 206.967 31.7433 206.967 32.0976C206.967 32.452 207.253 32.7392 207.606 32.7392Z" fill="#EB5D60"/>
<path d="M254 110.306H46V110.697H254V110.306Z" fill="#102048"/>
</svg>
