<svg width="146" height="146" viewBox="0 0 146 146" fill="none" xmlns="http://www.w3.org/2000/svg">
<path d="M80.6719 61.8604C82.7428 61.8604 84.4273 63.2711 84.4273 65.0049C84.4273 66.5796 85.7043 67.8566 87.2789 67.8566C88.8536 67.8566 90.1306 66.5796 90.1306 65.0049C90.1306 61.0557 87.3497 57.703 83.5236 56.5689V56.1725C83.5236 54.5978 82.2466 53.3209 80.6719 53.3209C79.0972 53.3209 77.8203 54.5978 77.8203 56.1725V56.5689C73.9942 57.7033 71.2136 61.0557 71.2136 65.0049C71.2136 69.8836 75.4565 73.8525 80.6719 73.8525C82.7428 73.8525 84.4273 75.2632 84.4273 76.997C84.4273 78.7308 82.7428 80.1413 80.6719 80.1413C78.6013 80.1413 76.9169 78.7308 76.9169 76.997C76.9169 75.4223 75.6399 74.1454 74.0652 74.1454C72.4905 74.1454 71.2136 75.4223 71.2136 76.997C71.2136 80.9463 73.9942 84.2987 77.8203 85.4328V85.8292C77.8203 87.4039 79.0972 88.6808 80.6719 88.6808C82.2466 88.6808 83.5236 87.4039 83.5236 85.8292V85.4328C87.3497 84.2987 90.1306 80.9463 90.1306 76.997C90.1306 72.1184 85.8873 68.1492 80.6719 68.1492C78.6013 68.1492 76.9169 66.7388 76.9169 65.0049C76.9169 63.2711 78.6013 61.8604 80.6719 61.8604Z" fill="#099F9F"/>
<path d="M145.571 95.2584C144.453 91.3812 141.306 88.4517 137.359 87.6122C134.832 87.0741 132.203 87.4668 129.959 88.6599C131.258 80.5769 130.576 72.2156 127.901 64.4217C127.39 62.932 125.767 62.1401 124.278 62.65C122.788 63.1613 121.995 64.7833 122.506 66.273C125.665 75.4773 125.691 85.5744 122.596 94.7898L99.871 114.973C98.4689 116.218 96.9313 117.274 95.297 118.131C95.7589 116.262 95.7276 114.282 95.1726 112.402C94.2963 109.432 92.1921 106.962 89.3997 105.625L69.2682 95.9824C60.4668 91.7668 50.1655 91.2792 41.0054 94.6421L38.9591 95.3935C33.2791 79.3481 37.2327 61.5535 49.3961 49.3903L69.5283 29.2585H91.8159L108.874 46.3162C109.988 47.4295 111.793 47.4295 112.907 46.3162C114.02 45.2027 114.02 43.397 112.907 42.2831L96.6084 25.9856L102.5 9.03023C103.29 6.75717 102.418 4.27737 100.379 2.99926C98.3405 1.72143 95.7279 2.01772 94.0263 3.71845L93.9912 3.75352C92.8126 4.93268 90.894 4.93268 89.7154 3.75352C84.7105 -1.25085 76.5676 -1.25085 71.5626 3.75352C70.9917 4.32471 70.2323 4.63896 69.4247 4.63896C68.6171 4.63896 67.8577 4.32443 67.2868 3.75352C65.5836 2.05023 62.9694 1.75537 60.9294 3.03719C58.8896 4.31872 58.0207 6.80195 58.8166 9.07586L64.734 25.9873L45.3633 45.3578C38.1945 52.5268 33.4291 61.5655 31.583 71.4964C29.9635 80.2053 30.665 89.0857 33.6008 97.3615L29.1052 99.012C27.6092 97.0672 25.2608 95.8102 22.6233 95.8102H8.17485C3.66723 95.8104 0 99.4777 0 103.985V137.824C0 142.332 3.66723 145.999 8.17485 145.999H83.3343C95.1395 145.999 106.304 141.468 114.769 133.24L142.692 106.102C145.586 103.291 146.689 99.1355 145.571 95.2584ZM69.4245 10.3426C71.7554 10.3426 73.9469 9.43488 75.5954 7.78662C78.3764 5.00569 82.9014 5.00569 85.6823 7.78662C87.3306 9.43488 89.5224 10.3426 91.8533 10.3426C93.5084 10.3426 95.0928 9.88516 96.4627 9.02966L91.4153 23.5554H69.9255L64.8501 9.05133C66.2121 9.89257 67.7833 10.3426 69.4245 10.3426ZM5.70331 137.825V103.985C5.70331 102.622 6.81204 101.513 8.17485 101.513H22.6231C23.9859 101.513 25.0946 102.622 25.0946 103.985V137.824C25.0946 139.187 23.9859 140.296 22.6231 140.296H8.17485C6.81204 140.296 5.70331 139.188 5.70331 137.825ZM138.717 102.013L110.794 129.151C103.399 136.338 93.6467 140.296 83.3343 140.296H30.4149C30.663 139.516 30.7979 138.686 30.7979 137.825V104.466L42.9711 99.9967C50.6953 97.1607 59.3829 97.5719 66.8046 101.127L86.9362 110.769C88.2939 111.419 89.2763 112.573 89.7023 114.017C90.1283 115.461 89.9296 116.963 89.1422 118.247C87.8772 120.308 85.3835 121.236 83.0788 120.504L56.3342 111.999C54.8337 111.522 53.2299 112.351 52.7522 113.852C52.2752 115.353 53.1047 116.957 54.6058 117.434L81.3504 125.939C82.452 126.289 83.5735 126.457 84.6808 126.457C84.8143 126.457 84.9472 126.449 85.08 126.444C91.9386 126.346 98.5216 123.8 103.658 119.238L131.634 94.3903C132.866 93.2973 134.563 92.849 136.172 93.1912C138.084 93.5978 139.548 94.9615 140.09 96.8393C140.632 98.7166 140.119 100.651 138.717 102.013Z" fill="#099F9F"/>
<path d="M119.41 56.7449C120.16 56.7449 120.896 56.4427 121.426 55.9094C121.956 55.379 122.261 54.6459 122.261 53.8934C122.261 53.1434 121.956 52.4106 121.426 51.8773C120.896 51.3472 120.16 51.0418 119.41 51.0418C118.66 51.0418 117.927 51.3469 117.394 51.8773C116.863 52.4106 116.558 53.1434 116.558 53.8934C116.558 54.6462 116.863 55.379 117.394 55.9094C117.924 56.443 118.66 56.7449 119.41 56.7449Z" fill="#099F9F"/>
</svg>
