<svg width="114" height="144" viewBox="0 0 114 144" fill="none" xmlns="http://www.w3.org/2000/svg">
<path d="M114 8.61633H0V143.826H114V8.61633Z" fill="#099F9F"/>
<path d="M106.709 13.9186H7.29077V137.86H106.709V13.9186Z" fill="white"/>
<path d="M80.4066 5.77026H33.5882C30.2042 5.77026 27.4609 8.51287 27.4609 11.8961V14.1513C27.4609 17.5345 30.2042 20.2771 33.5882 20.2771H80.4066C83.7906 20.2771 86.5339 17.5345 86.5339 14.1513V11.8961C86.5339 8.51287 83.7906 5.77026 80.4066 5.77026Z" fill="#263057"/>
<path d="M69.7321 0H46.3356C44.0066 0 42.1187 1.88753 42.1187 4.21593V4.22101C42.1187 6.5494 44.0066 8.43693 46.3356 8.43693H69.7321C72.061 8.43693 73.949 6.5494 73.949 4.22101V4.21593C73.949 1.88753 72.061 0 69.7321 0Z" fill="#263057"/>
<path d="M15.6687 27.2359H70.4485C70.8797 27.2332 71.2925 27.0604 71.597 26.7551C71.9014 26.4497 72.073 26.0365 72.0743 25.6054C72.073 25.1747 71.9012 24.7621 71.5966 24.4575C71.292 24.153 70.8793 23.9813 70.4485 23.98H15.6687C15.2375 23.9813 14.8242 24.1528 14.5188 24.4572C14.2134 24.7616 14.0405 25.1743 14.0378 25.6054C14.0405 26.037 14.2132 26.4502 14.5185 26.7554C14.8237 27.0606 15.237 27.2332 15.6687 27.2359Z" fill="#4969A1"/>
<path d="M30.4841 49.88H86.7322C86.9675 49.8786 87.1929 49.7846 87.3594 49.6182C87.5258 49.4517 87.6199 49.2264 87.6213 48.9911C87.6199 48.7557 87.5258 48.5304 87.3594 48.364C87.1929 48.1976 86.9675 48.1035 86.7322 48.1022H30.4841C30.2487 48.1035 30.0233 48.1976 29.8569 48.364C29.6904 48.5304 29.5963 48.7557 29.595 48.9911C29.5963 49.2264 29.6904 49.4517 29.8569 49.6182C30.0233 49.7846 30.2487 49.8786 30.4841 49.88Z" fill="#099F9F"/>
<path d="M30.4841 53.8775H86.7322C86.9675 53.8762 87.1929 53.7821 87.3594 53.6157C87.5258 53.4493 87.6199 53.224 87.6213 52.9886C87.6199 52.7533 87.5258 52.528 87.3594 52.3616C87.1929 52.1951 86.9675 52.1011 86.7322 52.0997H30.4841C30.2487 52.1011 30.0233 52.1951 29.8569 52.3616C29.6904 52.528 29.5963 52.7533 29.595 52.9886C29.5963 53.224 29.6904 53.4493 29.8569 53.6157C30.0233 53.7821 30.2487 53.8762 30.4841 53.8775Z" fill="#099F9F"/>
<path d="M15.6687 31.6753H45.9444C46.3766 31.674 46.7906 31.5018 47.0962 31.1963C47.4017 30.8908 47.574 30.4769 47.5753 30.0448C47.566 29.6181 47.3903 29.212 47.0856 28.913C46.7809 28.6141 46.3713 28.446 45.9444 28.4448H15.6687C15.2375 28.4462 14.8242 28.6177 14.5188 28.9221C14.2134 29.2265 14.0405 29.6391 14.0378 30.0702C14.0458 30.4978 14.221 30.9053 14.5258 31.2053C14.8307 31.5054 15.241 31.6741 15.6687 31.6753Z" fill="#4969A1"/>
<path d="M27.6642 39.965H13.1538V54.4718H27.6642V39.965Z" fill="#A1CACA"/>
<path d="M30.4841 72.6765H86.7322C86.9675 72.6751 87.1929 72.5811 87.3594 72.4146C87.5258 72.2482 87.6199 72.0229 87.6213 71.7876C87.6199 71.5522 87.5258 71.3269 87.3594 71.1605C87.1929 70.9941 86.9675 70.9 86.7322 70.8987H30.4841C30.2487 70.9 30.0233 70.9941 29.8569 71.1605C29.6904 71.3269 29.5963 71.5522 29.595 71.7876C29.5963 72.0229 29.6904 72.2482 29.8569 72.4146C30.0233 72.5811 30.2487 72.6751 30.4841 72.6765Z" fill="#099F9F"/>
<path d="M30.4841 76.6688H86.7322C86.9671 76.6688 87.1925 76.5759 87.3591 76.4103C87.5257 76.2447 87.6199 76.0199 87.6213 75.785C87.6213 75.5493 87.5276 75.3232 87.3608 75.1565C87.1941 74.9898 86.968 74.8961 86.7322 74.8961H30.4841C30.2483 74.8961 30.0221 74.9898 29.8554 75.1565C29.6886 75.3232 29.595 75.5493 29.595 75.785C29.5963 76.0199 29.6906 76.2447 29.8572 76.4103C30.0238 76.5759 30.2492 76.6688 30.4841 76.6688Z" fill="#099F9F"/>
<path d="M27.6642 62.7563H13.1538V77.2632H27.6642V62.7563Z" fill="#A1CACA"/>
<path d="M30.4841 95.4932H86.7322C86.968 95.4932 87.1941 95.3995 87.3608 95.2328C87.5276 95.0661 87.6213 94.84 87.6213 94.6043C87.6199 94.3694 87.5257 94.1446 87.3591 93.979C87.1925 93.8134 86.9671 93.7205 86.7322 93.7205H30.4841C30.2492 93.7205 30.0238 93.8134 29.8572 93.979C29.6906 94.1446 29.5963 94.3694 29.595 94.6043C29.595 94.84 29.6886 95.0661 29.8554 95.2328C30.0221 95.3995 30.2483 95.4932 30.4841 95.4932Z" fill="#099F9F"/>
<path d="M30.4841 99.4653H86.7322C86.9675 99.464 87.1929 99.3699 87.3594 99.2035C87.5258 99.0371 87.6199 98.8117 87.6213 98.5764C87.6199 98.3411 87.5258 98.1157 87.3594 97.9493C87.1929 97.7829 86.9675 97.6888 86.7322 97.6875H30.4841C30.2487 97.6888 30.0233 97.7829 29.8569 97.9493C29.6904 98.1157 29.5963 98.3411 29.595 98.5764C29.5963 98.8117 29.6904 99.0371 29.8569 99.2035C30.0233 99.3699 30.2487 99.464 30.4841 99.4653Z" fill="#099F9F"/>
<path d="M27.6642 85.5527H13.1538V100.06H27.6642V85.5527Z" fill="#A1CACA"/>
<path d="M30.4841 118.264H86.7322C86.9675 118.263 87.1929 118.169 87.3594 118.003C87.5258 117.836 87.6199 117.611 87.6213 117.375C87.6199 117.14 87.5258 116.915 87.3594 116.748C87.1929 116.582 86.9675 116.488 86.7322 116.487H30.4841C30.2487 116.488 30.0233 116.582 29.8569 116.748C29.6904 116.915 29.5963 117.14 29.595 117.375C29.5963 117.611 29.6904 117.836 29.8569 118.003C30.0233 118.169 30.2487 118.263 30.4841 118.264Z" fill="#099F9F"/>
<path d="M30.484 122.262H86.732C86.9674 122.26 87.1928 122.166 87.3593 122C87.5257 121.834 87.6198 121.608 87.6212 121.373C87.6198 121.138 87.5257 120.912 87.3593 120.746C87.1928 120.579 86.9674 120.485 86.732 120.484H30.484C30.3644 120.483 30.2459 120.507 30.1355 120.552C30.025 120.598 29.9249 120.666 29.8411 120.751C29.7572 120.836 29.6913 120.938 29.6473 121.049C29.6033 121.16 29.582 121.279 29.5847 121.398C29.5926 121.631 29.691 121.851 29.859 122.013C30.0269 122.174 30.2511 122.263 30.484 122.262Z" fill="#099F9F"/>
<path d="M27.6642 108.344H13.1538V122.851H27.6642V108.344Z" fill="#A1CACA"/>
</svg>
