<svg width="93" height="90" viewBox="0 0 93 90" fill="none" xmlns="http://www.w3.org/2000/svg">
<path d="M6.29917 10.4018L54.5219 10.8004C55.8024 10.8119 57.0296 11.3151 57.9502 12.2063C58.8707 13.0974 59.4142 14.3084 59.4686 15.5891L62.4514 85.6076C62.4726 86.1015 62.3944 86.5946 62.2214 87.0577C62.0485 87.5207 61.7843 87.9443 61.4447 88.3031C61.105 88.662 60.6968 88.9488 60.2442 89.1466C59.7916 89.3445 59.3039 89.4492 58.8101 89.4546L3.53164 89.9997C3.06713 90.0043 2.60635 89.9162 2.17622 89.7406C1.74609 89.5649 1.35523 89.3053 1.02646 88.9767C0.697687 88.6482 0.437598 88.2574 0.26138 87.8271C0.085161 87.3968 -0.00365601 86.9357 0.000115251 86.4707L0.581213 16.0307C0.593911 14.5252 1.20345 13.0864 2.27576 12.0308C3.34806 10.9752 4.79531 10.3893 6.29917 10.4018Z" fill="#099F9F"/>
<path opacity="0.7" d="M11.6179 88.902L5.4349 88.7712C4.43046 88.7463 3.47581 88.3282 2.77587 87.6066C2.07594 86.885 1.68652 85.9174 1.6912 84.9116L1.7675 75.5644C1.77195 75.5259 1.79038 75.4904 1.81928 75.4646C1.84819 75.4388 1.88555 75.4246 1.92427 75.4246C1.96299 75.4246 2.00035 75.4388 2.02926 75.4646C2.05816 75.4904 2.07659 75.5259 2.08104 75.5644L2.0037 84.9116C1.99958 85.8346 2.35696 86.7225 2.99919 87.3847C3.64142 88.047 4.51734 88.431 5.43908 88.4542L11.6232 88.585C11.6616 88.5902 11.6968 88.6093 11.722 88.6388C11.7472 88.6682 11.7607 88.706 11.76 88.7447C11.7592 88.7835 11.7442 88.8207 11.7178 88.8491C11.6914 88.8776 11.6555 88.8953 11.6169 88.8989L11.6179 88.902Z" fill="white"/>
<path opacity="0.7" d="M1.94509 72.8275C1.9036 72.8267 1.8641 72.8095 1.83515 72.7798C1.8062 72.75 1.79013 72.71 1.79041 72.6685L1.80295 71.1556C1.80309 71.1349 1.80731 71.1143 1.81536 71.0952C1.82342 71.0761 1.83516 71.0588 1.84991 71.0442C1.86466 71.0296 1.88214 71.0181 1.90134 71.0103C1.92054 71.0025 1.94109 70.9985 1.96181 70.9987C2.0034 70.9995 2.043 71.0166 2.07212 71.0463C2.10124 71.0761 2.11755 71.1161 2.11754 71.1577L2.105 72.6716C2.10444 72.7133 2.08743 72.7532 2.05767 72.7824C2.02791 72.8116 1.98781 72.8278 1.94613 72.8275H1.94509Z" fill="white"/>
<path d="M6.45177 9.8348C13.0299 10.7838 35.6519 13.7363 54.3861 12.4504C54.5893 12.4354 54.7935 12.4613 54.9865 12.5268C55.1796 12.5922 55.3575 12.6957 55.5098 12.8312C55.6622 12.9667 55.7858 13.1315 55.8734 13.3157C55.9609 13.4999 56.0107 13.6999 56.0196 13.9037L59.1728 84.2349C59.1935 84.698 59.0305 85.1506 58.7191 85.4938C58.4078 85.837 57.9735 86.043 57.511 86.0669C49.6328 86.4676 17.1885 88.0035 5.63133 86.6946C5.29157 86.656 4.97802 86.4931 4.75082 86.2373C4.52361 85.9815 4.39874 85.6507 4.40016 85.3084L4.5747 11.4649C4.57542 11.2292 4.62653 10.9964 4.72459 10.7822C4.82265 10.568 4.96539 10.3772 5.14321 10.2228C5.32103 10.0684 5.5298 9.95389 5.75551 9.88696C5.98122 9.82003 6.21862 9.80225 6.45177 9.8348Z" fill="#D6EEEE"/>
<path d="M7.14161 11.6646C13.472 12.577 35.2423 15.4186 53.272 14.183C53.4672 14.1688 53.6632 14.194 53.8485 14.2569C54.0337 14.3199 54.2045 14.4195 54.3507 14.5497C54.4969 14.68 54.6155 14.8382 54.6995 15.0151C54.7835 15.192 54.8311 15.384 54.8397 15.5797L57.8706 83.2629C57.8908 83.7086 57.734 84.1442 57.4343 84.4745C57.1347 84.8049 56.7167 85.0031 56.2716 85.0258C48.6891 85.4119 17.4665 86.8892 6.34521 85.6295C6.01884 85.5917 5.71781 85.4349 5.49958 85.1891C5.28136 84.9432 5.16122 84.6255 5.16211 84.2966L5.33038 13.233C5.33059 13.0056 5.37962 12.781 5.47415 12.5742C5.56869 12.3675 5.70651 12.1836 5.87828 12.0348C6.05005 11.8861 6.25176 11.7761 6.46973 11.7122C6.6877 11.6483 6.91683 11.6321 7.14161 11.6646Z" fill="#A1CACA"/>
<path d="M52.7609 20.1225C52.815 20.1236 52.8688 20.1133 52.9186 20.0923C52.9685 20.0713 53.0135 20.0401 53.0506 20.0007C53.0877 19.9613 53.1161 19.9145 53.1341 19.8634C53.1521 19.8123 53.1592 19.758 53.155 19.704L53.1466 19.5659C53.1381 19.4531 53.0883 19.3475 53.0067 19.2692C52.9251 19.191 52.8174 19.1458 52.7045 19.1422L11.6681 18.4789C11.4382 18.4789 11.3661 18.6201 11.5082 18.8011L12.0193 19.4603C12.1919 19.6563 12.435 19.7759 12.6955 19.793L52.7609 20.1225Z" fill="url(#paint0_linear_275_1324)"/>
<path d="M11.6462 21.1865C11.4163 21.1865 11.3442 21.3278 11.4853 21.5098L11.9963 22.1627C12.1684 22.3588 12.4113 22.4785 12.6715 22.4954L52.738 22.827C52.7921 22.8281 52.8458 22.8178 52.8957 22.7968C52.9456 22.7758 52.9905 22.7446 53.0276 22.7052C53.0647 22.6658 53.0932 22.619 53.1112 22.5679C53.1292 22.5168 53.1362 22.4625 53.132 22.4085L53.1247 22.2704C53.1163 22.1575 53.0665 22.0517 52.9849 21.9733C52.9033 21.8949 52.7956 21.8495 52.6826 21.8457L11.6462 21.1865Z" fill="url(#paint1_linear_275_1324)"/>
<path d="M18.5535 45.8196H18.5389L13.1114 45.8991C12.3297 45.9096 11.6712 45.3865 11.5803 44.6813L10.994 40.1353C10.9769 40.0005 10.9875 39.8636 11.0251 39.733C11.0626 39.6024 11.1264 39.4808 11.2124 39.3757C11.3145 39.2514 11.4404 39.1488 11.5828 39.074C11.7251 38.9993 11.881 38.9539 12.0412 38.9405C12.4979 38.8986 13.1271 38.8296 13.818 38.7532C15.3251 38.5879 17.0328 38.4006 18.0382 38.364H18.0602C18.7792 38.3473 19.4084 38.771 19.5955 39.4019C19.909 40.4481 19.9268 42.4245 19.9237 44.5359C19.9247 45.2274 19.3112 45.8008 18.5535 45.8196ZM12.082 39.382C11.9813 39.39 11.8833 39.418 11.7936 39.4643C11.7038 39.5107 11.6242 39.5744 11.5594 39.6519C11.5106 39.7108 11.4743 39.7791 11.4528 39.8524C11.4312 39.9258 11.4248 40.0029 11.434 40.0788L12.0193 44.6248C12.082 45.1061 12.5481 45.4618 13.1052 45.4555L18.5326 45.377H18.543C19.0656 45.3645 19.4837 44.9889 19.4837 44.54C19.4837 42.4622 19.4648 40.5161 19.1701 39.5316C19.0405 39.0964 18.5608 38.7815 18.0529 38.8118C17.0642 38.8484 15.2906 39.043 13.865 39.1989C13.17 39.2753 12.5377 39.3443 12.0788 39.3872L12.082 39.382Z" fill="white"/>
<path d="M12.6767 39.8256C13.8138 39.721 16.2855 39.4071 17.4603 39.3652C17.9578 39.3464 18.4009 39.6373 18.5284 40.0662C18.7761 40.9032 18.7855 42.5772 18.7834 44.1194C18.7834 44.5818 18.3654 44.9616 17.8491 44.969L13.5128 45.0317C12.9798 45.0401 12.5283 44.6865 12.4676 44.2136L11.9994 40.581C11.9493 40.2054 12.2544 39.8622 12.6767 39.8256Z" fill="url(#paint2_linear_275_1324)"/>
<path d="M23.1751 40.9754C23.1251 40.9715 23.0751 40.9803 23.0294 41.0009C22.9838 41.0215 22.9441 41.0533 22.914 41.0933C22.8839 41.1334 22.8644 41.1804 22.8572 41.23C22.85 41.2796 22.8555 41.3302 22.873 41.3771L23.4217 43.2708C23.4595 43.3833 23.5311 43.4813 23.6267 43.5513C23.7223 43.6214 23.8373 43.6601 23.9558 43.6621L51.3301 43.0009C51.3845 42.9997 51.4382 42.9876 51.4879 42.9653C51.5376 42.943 51.5823 42.911 51.6194 42.8711C51.6565 42.8312 51.6853 42.7843 51.704 42.7331C51.7227 42.6819 51.7309 42.6274 51.7283 42.573L51.6739 41.3844C51.6676 41.2723 51.619 41.1667 51.5379 41.089C51.4568 41.0113 51.3493 40.9674 51.2371 40.9659L23.1751 40.9754Z" fill="url(#paint3_linear_275_1324)"/>
<path d="M12.9244 40.5339C13.0189 40.4759 13.1238 40.4373 13.2333 40.4203C13.3428 40.4033 13.4545 40.4082 13.5621 40.4347C13.6696 40.4613 13.7708 40.509 13.8598 40.5751C13.9488 40.6411 14.0237 40.7242 14.0804 40.8196L15.1966 42.7143C15.2213 42.7579 15.2577 42.7938 15.3016 42.8178C15.3456 42.8418 15.3954 42.853 15.4454 42.8502C15.4954 42.8473 15.5436 42.8306 15.5846 42.8018C15.6256 42.773 15.6577 42.7332 15.6773 42.6871L18.1857 36.7067C18.2125 36.644 18.2602 36.5925 18.3205 36.5608C18.3809 36.529 18.4503 36.5191 18.5172 36.5326C18.584 36.5461 18.6442 36.5822 18.6875 36.6349C18.7309 36.6876 18.7548 36.7536 18.7553 36.8218C18.772 38.6319 18.3748 42.0834 15.5561 45.0318C15.5561 45.0318 13.9497 44.4511 12.6004 41.6639C12.5046 41.4689 12.4846 41.2452 12.5445 41.0363C12.6044 40.8274 12.7399 40.6483 12.9244 40.5339Z" fill="#099F9F"/>
<path d="M18.7646 33.6192H18.7489L13.3226 33.6977C12.5408 33.7092 11.8823 33.1861 11.7914 32.4809L11.2041 27.9349C11.1874 27.8 11.1981 27.663 11.2356 27.5323C11.2732 27.4016 11.3367 27.2798 11.4225 27.1743C11.5249 27.0502 11.651 26.9478 11.7936 26.8732C11.9361 26.7986 12.0921 26.7534 12.2523 26.7401C12.7091 26.6972 13.3382 26.6282 14.0291 26.5528C15.5362 26.3875 17.2439 26.2002 18.2493 26.1636H18.2713C18.9903 26.1458 19.6206 26.5706 19.8076 27.2005C20.116 28.2467 20.139 30.2241 20.1358 32.3355C20.1358 33.027 19.5213 33.6004 18.7646 33.6192ZM12.2931 27.1816C12.1924 27.1896 12.0944 27.2176 12.0047 27.2639C11.9149 27.3103 11.8353 27.3741 11.7705 27.4516C11.7219 27.5105 11.6857 27.5788 11.6642 27.6521C11.6426 27.7255 11.6361 27.8025 11.6451 27.8784L12.2283 32.4244C12.29 32.9057 12.7571 33.2614 13.3142 33.2551L18.7406 33.1756H18.7521C19.2746 33.1631 19.6927 32.7874 19.6927 32.3386C19.6927 30.2607 19.6739 28.3137 19.3791 27.3302C19.2506 26.8939 18.7709 26.58 18.2629 26.6104C17.2732 26.647 15.4996 26.8416 14.074 26.9975C13.379 27.0739 12.7477 27.1429 12.2889 27.1858L12.2931 27.1816Z" fill="white"/>
<path d="M12.8867 27.6211C14.0248 27.5164 16.4955 27.2026 17.6703 27.1618C18.1678 27.1429 18.6109 27.4338 18.7395 27.8627C18.9861 28.6997 18.9966 30.3737 18.9945 31.9159C18.9945 32.3784 18.5764 32.7582 18.0601 32.7655L13.7228 32.8283C13.1898 32.8356 12.7383 32.483 12.6776 32.0101L12.2084 28.3775C12.1603 28.005 12.4644 27.664 12.8867 27.6211Z" fill="url(#paint4_linear_275_1324)"/>
<path d="M23.3852 28.772C23.3353 28.768 23.2852 28.7767 23.2395 28.7973C23.1939 28.818 23.1542 28.8498 23.1242 28.8899C23.0941 28.93 23.0747 28.977 23.0677 29.0267C23.0607 29.0763 23.0664 29.1269 23.0842 29.1737L23.6318 31.0737C23.6693 31.1865 23.7408 31.2848 23.8365 31.355C23.9321 31.4253 24.0472 31.4641 24.1659 31.4661L51.5402 30.8048C51.5954 30.8042 51.6499 30.7924 51.7005 30.7701C51.751 30.7478 51.7965 30.7155 51.8342 30.6751C51.8719 30.6347 51.901 30.5871 51.9198 30.5351C51.9386 30.4832 51.9467 30.4279 51.9436 30.3727L51.8882 29.1831C51.8819 29.071 51.8333 28.9654 51.7522 28.8877C51.6711 28.81 51.5636 28.7661 51.4514 28.7646L23.3852 28.772Z" fill="url(#paint5_linear_275_1324)"/>
<path d="M13.1344 28.3335C13.2288 28.2753 13.3339 28.2366 13.4435 28.2194C13.553 28.2023 13.6649 28.2072 13.7726 28.2338C13.8803 28.2604 13.9816 28.3081 14.0706 28.3743C14.1597 28.4404 14.2347 28.5237 14.2913 28.6191L15.4075 30.5128C15.4325 30.5558 15.4689 30.591 15.5127 30.6144C15.5565 30.6378 15.606 30.6484 15.6556 30.6452C15.7051 30.6419 15.7528 30.6248 15.7932 30.5959C15.8335 30.567 15.8651 30.5273 15.8841 30.4814L18.3925 24.5011C18.4193 24.4383 18.467 24.3868 18.5273 24.3551C18.5877 24.3234 18.6571 24.3134 18.724 24.3269C18.7908 24.3404 18.851 24.3765 18.8943 24.4292C18.9377 24.4819 18.9616 24.5479 18.9621 24.6161C18.9777 26.4262 18.5816 29.8767 15.7629 32.8261C15.7629 32.8261 14.1565 32.2444 12.8062 29.4582C12.7124 29.2633 12.6941 29.0405 12.7547 28.8328C12.8153 28.6251 12.9505 28.4473 13.1344 28.3335Z" fill="#099F9F"/>
<path d="M18.8346 57.4602H18.8189L13.3925 57.5387C12.6097 57.5502 11.9523 57.0271 11.8614 56.3219L11.274 51.7759C11.2571 51.641 11.2678 51.504 11.3053 51.3732C11.3429 51.2425 11.4065 51.1207 11.4925 51.0153C11.5948 50.891 11.7209 50.7885 11.8634 50.7137C12.006 50.639 12.162 50.5935 12.3223 50.5801C12.779 50.5382 13.4082 50.4692 14.099 50.3928C15.6061 50.2285 17.3139 50.0402 18.3193 50.0036H18.3413C19.0603 49.9858 19.6905 50.4095 19.8776 51.0404C20.1912 52.0815 20.2089 54.0631 20.2058 56.1754C20.2058 56.8691 19.5912 57.4393 18.8346 57.4602ZM12.3631 51.0226C12.2623 51.0306 12.1642 51.0587 12.0744 51.1053C11.9847 51.1518 11.9051 51.2158 11.8405 51.2936C11.7918 51.3524 11.7556 51.4204 11.7341 51.4936C11.7125 51.5668 11.706 51.6437 11.7151 51.7194L12.3024 56.2654C12.3641 56.7477 12.8313 57.1024 13.3883 57.0961L18.8126 57.0208H18.8231C19.3456 57.0083 19.7637 56.6327 19.7637 56.1786C19.7637 54.1007 19.7449 52.1547 19.4502 51.1712C19.3216 50.7349 18.8419 50.4263 18.3339 50.4514C17.3442 50.487 15.5706 50.6816 14.145 50.8385C13.45 50.9138 12.8187 50.9839 12.3599 51.0258L12.3631 51.0226Z" fill="white"/>
<path d="M12.9598 51.4661C14.098 51.3615 16.5687 51.0476 17.7434 51.0058C18.2409 50.988 18.6841 51.2788 18.8126 51.7078C19.0593 52.5448 19.0697 54.2188 19.0676 55.7599C19.0676 56.2234 18.6496 56.5969 18.1333 56.6105L13.7959 56.6733C13.2629 56.6806 12.8114 56.327 12.7508 55.8551L12.2815 52.2226C12.2282 51.8459 12.5345 51.5048 12.9598 51.4661Z" fill="url(#paint6_linear_275_1324)"/>
<path d="M23.4551 52.616C23.4052 52.6122 23.3551 52.6211 23.3095 52.6419C23.2639 52.6626 23.2242 52.6946 23.1942 52.7347C23.1642 52.7749 23.1448 52.822 23.1378 52.8716C23.1308 52.9213 23.1364 52.9719 23.1541 53.0188L23.7018 54.9115C23.7395 55.024 23.8111 55.1222 23.9067 55.1924C24.0023 55.2626 24.1173 55.3016 24.2359 55.3038L51.6102 54.6426C51.6646 54.6412 51.7183 54.629 51.7679 54.6067C51.8176 54.5844 51.8624 54.5524 51.8995 54.5125C51.9367 54.4727 51.9656 54.4258 51.9844 54.3747C52.0033 54.3235 52.0118 54.2691 52.0094 54.2147L51.954 53.0251C51.9479 52.9128 51.8994 52.8071 51.8182 52.7294C51.7371 52.6516 51.6295 52.6077 51.5172 52.6066L23.4551 52.616Z" fill="url(#paint7_linear_275_1324)"/>
<path d="M13.2044 52.1755C13.2988 52.1173 13.4039 52.0785 13.5134 52.0613C13.6229 52.0441 13.7348 52.0489 13.8424 52.0754C13.9501 52.1019 14.0514 52.1495 14.1405 52.2156C14.2296 52.2816 14.3047 52.3647 14.3614 52.4601L15.4776 54.3549C15.5029 54.3975 15.5395 54.4323 15.5833 54.4553C15.6271 54.4784 15.6765 54.4888 15.7259 54.4854C15.7753 54.4821 15.8228 54.4651 15.8631 54.4363C15.9034 54.4075 15.9349 54.3681 15.9542 54.3224L18.4625 48.3431C18.4894 48.2805 18.5369 48.229 18.5972 48.1972C18.6574 48.1655 18.7268 48.1555 18.7935 48.1689C18.8603 48.1822 18.9205 48.2182 18.9639 48.2707C19.0073 48.3232 19.0314 48.389 19.0321 48.4572C19.0478 50.2672 18.6517 53.7188 15.833 56.6671C15.833 56.6671 14.2266 56.0864 12.8763 53.3003C12.7825 53.1053 12.7642 52.8825 12.8248 52.6749C12.8854 52.4672 13.0206 52.2893 13.2044 52.1755Z" fill="#099F9F"/>
<path d="M18.5954 68.6509H18.5807L13.1544 68.7294C12.3726 68.742 11.7142 68.2178 11.6222 67.5126L11.0359 62.9677C11.019 62.8327 11.0296 62.6957 11.0672 62.5649C11.1047 62.4342 11.1684 62.3125 11.2543 62.2071C11.3565 62.0829 11.4825 61.9804 11.6248 61.9057C11.7671 61.8309 11.9229 61.7854 12.0831 61.7718C12.5398 61.73 13.169 61.6609 13.8598 61.5845C15.2927 61.4276 17.0768 61.2319 18.0822 61.1953C18.796 61.1744 19.4513 61.595 19.6405 62.2322C19.954 63.2784 19.9718 65.2548 19.9687 67.3661C19.9676 68.0588 19.3531 68.6342 18.5954 68.6509ZM12.1239 62.2133C12.0231 62.2213 11.925 62.2494 11.8352 62.296C11.7455 62.3425 11.6659 62.4065 11.6013 62.4843C11.5526 62.5431 11.5164 62.6111 11.4949 62.6843C11.4733 62.7575 11.4668 62.8344 11.4759 62.9101L12.0632 67.4561C12.1249 67.9374 12.5921 68.2931 13.1491 68.2868L18.5755 68.2084C19.0866 68.1864 19.5255 67.8223 19.5266 67.3714C19.5266 65.2935 19.5078 63.3475 19.213 62.3629C19.0845 61.9277 18.6048 61.6243 18.0968 61.6442C17.1071 61.6797 15.3324 61.8743 13.9058 62.0302C13.2118 62.1066 12.5806 62.1757 12.1228 62.2186L12.1239 62.2133Z" fill="white"/>
<path d="M12.7184 62.6568C13.8566 62.5522 16.3273 62.2383 17.502 62.1965C17.9995 62.1787 18.4426 62.4685 18.5712 62.8985C18.8178 63.7355 18.8283 65.4095 18.8262 66.9506C18.8262 67.4131 18.4081 67.7929 17.8918 67.8002L13.5545 67.863C13.0215 67.8713 12.57 67.5177 12.5094 67.0448L12.0401 63.4122C11.991 63.0366 12.2962 62.6955 12.7184 62.6568Z" fill="url(#paint8_linear_275_1324)"/>
<path d="M23.2168 63.8068C23.1669 63.8028 23.1168 63.8115 23.0712 63.8321C23.0256 63.8528 22.9859 63.8846 22.9558 63.9247C22.9258 63.9648 22.9064 64.0118 22.8994 64.0615C22.8924 64.1111 22.8981 64.1617 22.9158 64.2085L23.4635 66.1023C23.5013 66.2147 23.5729 66.3127 23.6685 66.3828C23.7641 66.4528 23.8791 66.4915 23.9976 66.4936L51.3719 65.8323C51.4264 65.8311 51.48 65.819 51.5298 65.7967C51.5795 65.7745 51.6243 65.7424 51.6615 65.7026C51.6987 65.6627 51.7276 65.6158 51.7464 65.5646C51.7652 65.5134 51.7736 65.4589 51.7711 65.4044L51.7157 64.2159C51.7094 64.1037 51.6607 63.9981 51.5797 63.9204C51.4986 63.8428 51.3911 63.7988 51.2788 63.7974L23.2168 63.8068Z" fill="url(#paint9_linear_275_1324)"/>
<path d="M12.9662 63.3652C13.0606 63.307 13.1657 63.2682 13.2753 63.2511C13.3848 63.234 13.4967 63.2389 13.6044 63.2655C13.7121 63.292 13.8134 63.3398 13.9024 63.406C13.9915 63.4721 14.0665 63.5553 14.1231 63.6508L15.2393 65.5455C15.2646 65.5882 15.3012 65.623 15.345 65.646C15.3888 65.6691 15.4382 65.6795 15.4876 65.6761C15.537 65.6728 15.5845 65.6557 15.6248 65.627C15.6651 65.5982 15.6967 65.5588 15.7159 65.5131L18.2243 59.5338C18.2511 59.4711 18.2986 59.4196 18.3589 59.3879C18.4192 59.3562 18.4885 59.3462 18.5553 59.3595C18.622 59.3729 18.6822 59.4088 18.7256 59.4613C18.7691 59.5138 18.7932 59.5797 18.7939 59.6478C18.8095 61.4578 18.4134 64.9094 15.5947 67.8578C15.5947 67.8578 13.9883 67.2771 12.638 64.4899C12.5442 64.2949 12.5259 64.0722 12.5865 63.8645C12.6471 63.6568 12.7823 63.4789 12.9662 63.3652Z" fill="#099F9F"/>
<path d="M18.2577 80.1931H18.242L12.8156 80.2726C12.0328 80.2841 11.3754 79.7599 11.2845 79.0547L10.6971 74.5098C10.6802 74.3748 10.6909 74.2378 10.7284 74.1071C10.766 73.9763 10.8296 73.8546 10.9155 73.7492C11.0179 73.6249 11.144 73.5223 11.2865 73.4476C11.429 73.3728 11.5851 73.3274 11.7454 73.3139C12.2021 73.2721 12.8313 73.203 13.5221 73.1266C15.0292 72.9613 16.737 72.7741 17.7424 72.7374C18.474 72.7291 19.1115 73.1371 19.3007 73.7743C19.609 74.8205 19.632 76.7969 19.6289 78.9093C19.6289 79.6019 19.0143 80.1753 18.2577 80.1931ZM11.7862 73.7607C11.6854 73.7687 11.5873 73.7968 11.4975 73.8433C11.4078 73.8898 11.3282 73.9539 11.2636 74.0317C11.2149 74.0904 11.1787 74.1585 11.1572 74.2317C11.1356 74.3049 11.1291 74.3817 11.1382 74.4575L11.7255 79.0035C11.7872 79.4847 12.2544 79.8405 12.8114 79.8342L18.2378 79.7557H18.2493C18.7719 79.7432 19.1899 79.3676 19.1899 78.9187C19.1899 76.8409 19.1711 74.8948 18.8764 73.9103C18.7478 73.475 18.2681 73.1779 17.7602 73.1915C16.7704 73.2271 14.9968 73.4217 13.5713 73.5776C12.8762 73.654 12.245 73.723 11.7862 73.7659V73.7607Z" fill="white"/>
<path d="M12.3798 74.1992C13.5179 74.0945 15.9887 73.7807 17.1634 73.7388C17.6609 73.721 18.104 74.0108 18.2326 74.4408C18.4792 75.2779 18.4897 76.9518 18.4876 78.493C18.4876 78.9565 18.0695 79.33 17.5532 79.3425L13.2159 79.4064C12.6829 79.4137 12.2314 79.06 12.1708 78.5871L11.7057 74.9546C11.6534 74.579 11.9576 74.2379 12.3798 74.1992Z" fill="url(#paint10_linear_275_1324)"/>
<path d="M22.8782 75.3489C22.8284 75.3447 22.7783 75.3532 22.7326 75.3735C22.687 75.3939 22.6472 75.4255 22.6169 75.4653C22.5867 75.5052 22.567 75.5521 22.5597 75.6016C22.5524 75.6511 22.5577 75.7017 22.5751 75.7486L23.1228 77.6423C23.1603 77.7549 23.2318 77.8531 23.3275 77.9232C23.4232 77.9933 23.5383 78.0319 23.6569 78.0336L51.0312 77.3734C51.0857 77.3721 51.1394 77.3599 51.1892 77.3375C51.2389 77.3151 51.2837 77.2829 51.3209 77.243C51.3581 77.203 51.3869 77.156 51.4057 77.1048C51.4245 77.0535 51.4329 76.999 51.4304 76.9444L51.375 75.7559C51.3687 75.6437 51.32 75.5381 51.239 75.4605C51.1579 75.3828 51.0504 75.3388 50.9381 75.3374L22.8782 75.3489Z" fill="url(#paint11_linear_275_1324)"/>
<path d="M12.6275 74.9116C12.7219 74.8534 12.8269 74.8146 12.9365 74.7974C13.046 74.7802 13.1579 74.785 13.2655 74.8115C13.3732 74.8379 13.4745 74.8856 13.5636 74.9517C13.6527 75.0177 13.7278 75.1008 13.7845 75.1962L14.9007 77.091C14.926 77.1336 14.9626 77.1684 15.0064 77.1914C15.0502 77.2145 15.0996 77.2249 15.149 77.2215C15.1984 77.2182 15.2459 77.2012 15.2862 77.1724C15.3265 77.1436 15.358 77.1042 15.3773 77.0585L17.8856 71.0792C17.9125 71.0166 17.96 70.965 18.0203 70.9333C18.0805 70.9016 18.1499 70.8916 18.2166 70.9049C18.2834 70.9183 18.3436 70.9543 18.387 71.0067C18.4304 71.0592 18.4545 71.1251 18.4552 71.1932C18.4709 73.0033 18.0748 76.4548 15.2561 79.4032C15.2561 79.4032 13.6497 78.8225 12.2994 76.0363C12.2056 75.8414 12.1873 75.6186 12.2479 75.4109C12.3085 75.2033 12.4437 75.0254 12.6275 74.9116Z" fill="#099F9F"/>
<path d="M33.4802 1.08278C31.7484 -0.144474 30.2329 -0.132965 29.1648 0.172541C28.692 0.309242 28.2811 0.605868 28.0023 1.01186C27.7235 1.41785 27.5939 1.90807 27.6357 2.39897L28.0538 7.42621L33.5209 7.95771C33.5209 7.95771 36.8758 3.49021 33.4802 1.08278ZM31.0408 5.11609C30.7706 5.114 30.5071 5.03166 30.2837 4.87951C30.0602 4.72736 29.8869 4.51225 29.7857 4.26142C29.6845 4.0106 29.66 3.73535 29.7152 3.47054C29.7704 3.20574 29.9029 2.9633 30.0959 2.77393C30.2888 2.58457 30.5336 2.45681 30.7992 2.40683C31.0648 2.35686 31.3392 2.38692 31.5877 2.49321C31.8362 2.59949 32.0475 2.77723 32.195 3.00389C32.3425 3.23054 32.4195 3.49593 32.4162 3.76642C32.4149 3.94557 32.3781 4.12269 32.3082 4.28759C32.2383 4.4525 32.1365 4.60195 32.0087 4.72736C31.8809 4.85278 31.7296 4.95168 31.5635 5.01839C31.3974 5.08509 31.2198 5.1183 31.0408 5.11609Z" fill="#099F9F"/>
<path d="M28.5241 5.44051C28.476 5.42252 28.434 5.39125 28.4029 5.35033C28.3718 5.3094 28.353 5.2605 28.3485 5.20929L28.2827 4.40786C28.2788 4.33744 28.3026 4.26829 28.3488 4.21511C28.3951 4.16192 28.4603 4.1289 28.5305 4.12304C28.6007 4.11718 28.6704 4.13896 28.7248 4.18374C28.7793 4.22852 28.8141 4.29279 28.822 4.36287L28.8888 5.1643C28.8929 5.20991 28.8853 5.2558 28.8668 5.29767C28.8483 5.33953 28.8194 5.37599 28.7829 5.40361C28.7465 5.43124 28.7036 5.44912 28.6583 5.45557C28.613 5.46203 28.5668 5.45685 28.5241 5.44051ZM28.3935 3.87113C28.3454 3.8529 28.3035 3.8214 28.2726 3.78029C28.2417 3.73918 28.2231 3.69014 28.2189 3.63887L28.1677 3.03413C28.1263 2.53455 28.2588 2.03601 28.5426 1.623C28.8264 1.20999 29.2441 0.907909 29.725 0.767947C30.3978 0.574445 31.1081 0.551078 31.7922 0.699941C31.8286 0.7058 31.8634 0.718995 31.8945 0.738726C31.9256 0.758457 31.9524 0.784312 31.9732 0.81472C31.994 0.845128 32.0084 0.879455 32.0156 0.915616C32.0228 0.951777 32.0225 0.989018 32.0149 1.02508C32.0072 1.06114 31.9923 1.09526 31.9711 1.12538C31.9498 1.1555 31.9227 1.18098 31.8913 1.20028C31.8599 1.21958 31.825 1.23229 31.7885 1.23765C31.7521 1.243 31.715 1.24089 31.6794 1.23144C31.0822 1.10089 30.4619 1.12103 29.8744 1.29003C29.5139 1.3948 29.2007 1.62129 28.9881 1.93103C28.7754 2.24077 28.6765 2.61465 28.708 2.98914L28.7582 3.59702C28.7612 3.63254 28.7572 3.66832 28.7464 3.70228C28.7355 3.73625 28.7181 3.76774 28.6951 3.79496C28.6721 3.82217 28.6439 3.84457 28.6123 3.86088C28.5806 3.87718 28.546 3.88707 28.5105 3.88997C28.4706 3.89229 28.4306 3.88586 28.3935 3.87113Z" fill="#BDD0FB"/>
<path d="M20.5591 10.6121L20.58 8.08541C20.5818 7.87855 20.6251 7.67416 20.7074 7.48441C20.7897 7.29466 20.9093 7.12343 21.0591 6.98091C21.2089 6.83839 21.3858 6.72749 21.5793 6.65481C21.7727 6.58214 21.9789 6.54918 22.1853 6.55789L39.5775 7.29863C39.9499 7.31478 40.303 7.46929 40.5677 7.73201C40.8325 7.99472 40.9899 8.34677 41.0093 8.71944L41.1348 11.1478L20.5591 10.6121Z" fill="#79111E"/>
<path d="M26.3219 7.56961C26.2835 7.56516 26.248 7.54671 26.2222 7.51777C26.1965 7.48884 26.1823 7.45143 26.1823 7.41267C26.1823 7.37392 26.1965 7.33651 26.2222 7.30758C26.248 7.27864 26.2835 7.26019 26.3219 7.25574L27.0703 7.26202C27.0924 7.25946 27.1148 7.26161 27.136 7.26832C27.1572 7.27504 27.1768 7.28618 27.1934 7.301C27.21 7.31582 27.2233 7.33399 27.2324 7.35432C27.2415 7.37465 27.2462 7.39667 27.2462 7.41895C27.2462 7.44123 27.2415 7.46326 27.2324 7.48359C27.2233 7.50391 27.21 7.52209 27.1934 7.53691C27.1768 7.55173 27.1572 7.56286 27.136 7.56958C27.1148 7.5763 27.0924 7.57845 27.0703 7.57589L26.323 7.56961H26.3219Z" fill="#BDD0FB"/>
<path d="M21.413 9.9477C21.361 9.92817 21.3163 9.8931 21.2849 9.84724C21.2535 9.80139 21.2369 9.74697 21.2374 9.69137L21.2458 8.67023C21.2476 8.46404 21.2899 8.26023 21.3704 8.07043C21.4509 7.88064 21.568 7.70858 21.7149 7.5641C21.8619 7.41962 22.0358 7.30554 22.2268 7.22839C22.4179 7.15123 22.6222 7.11252 22.8281 7.11445L25.579 7.13747C25.648 7.14176 25.7128 7.17223 25.7601 7.22267C25.8075 7.27312 25.8338 7.33974 25.8338 7.40897C25.8338 7.4782 25.8075 7.54482 25.7601 7.59526C25.7128 7.64571 25.648 7.67618 25.579 7.68047L22.8281 7.65745C22.5557 7.6555 22.2937 7.76182 22.0995 7.95307C21.9053 8.14431 21.7949 8.40487 21.7924 8.67755L21.784 9.69974C21.7838 9.73542 21.7765 9.77069 21.7625 9.80353C21.7486 9.83637 21.7284 9.86613 21.7029 9.89112C21.6775 9.9161 21.6474 9.93581 21.6143 9.94911C21.5812 9.96241 21.5459 9.96904 21.5102 9.96863C21.4768 9.96813 21.4437 9.96102 21.413 9.9477Z" fill="#BDD0FB"/>
<path d="M15.116 9.64213L45.5379 9.89323C46.0675 9.89746 46.5785 10.0887 46.981 10.4332C47.3835 10.7778 47.6515 11.2535 47.7379 11.7765L47.763 11.9271C47.8087 12.2052 47.7932 12.4898 47.7174 12.7612C47.6417 13.0325 47.5077 13.2841 47.3247 13.4981C47.1417 13.7122 46.9142 13.8837 46.6581 14.0005C46.402 14.1173 46.1235 14.1767 45.842 14.1745L14.6321 13.915C14.4621 13.9137 14.2942 13.8779 14.1384 13.8096C13.9827 13.7414 13.8425 13.6422 13.7263 13.518C13.6101 13.3938 13.5203 13.2473 13.4624 13.0873C13.4044 12.9273 13.3796 12.7572 13.3894 12.5873L13.4678 11.1895C13.4919 10.7692 13.6764 10.3743 13.9831 10.0863C14.2899 9.7983 14.6954 9.63929 15.116 9.64213Z" fill="#79111E"/>
<path d="M71.9842 89.0925C73.1736 89.1972 75.2377 89.3625 76.865 89.4347C77.8433 89.4775 78.4066 89.3813 78.7306 89.2516C78.7306 89.2885 78.7306 89.3234 78.7306 89.3562C78.725 89.4387 78.6894 89.5162 78.6304 89.5741C78.5714 89.632 78.4933 89.6661 78.4108 89.6701C76.2826 89.7915 74.1492 89.7936 72.0208 89.6763C71.9797 89.6742 71.9398 89.6615 71.905 89.6395C71.8702 89.6175 71.8416 89.5869 71.822 89.5507C71.8024 89.5145 71.7924 89.4738 71.793 89.4326C71.7936 89.3914 71.8047 89.351 71.8254 89.3154C71.8731 89.2375 71.9262 89.163 71.9842 89.0925Z" fill="url(#paint12_linear_275_1324)"/>
<path d="M76.865 89.4346C75.2377 89.3625 73.1735 89.1951 71.9841 89.0925C73.1536 87.656 76.865 86.6862 76.865 86.6862H77.9101C78.4436 87.434 78.7294 88.3305 78.7274 89.2495C78.4065 89.3813 77.8432 89.4775 76.865 89.4346Z" fill="url(#paint13_linear_275_1324)"/>
<path d="M78.0899 84.9756L77.9916 86.9185C77.9867 87.0213 77.9463 87.1192 77.8773 87.1955C77.8083 87.2719 77.715 87.3218 77.6133 87.337C77.3494 87.3766 77.0799 87.354 76.8263 87.2711C76.7366 87.2421 76.6564 87.1893 76.5942 87.1184C76.532 87.0475 76.4901 86.9611 76.473 86.8683L76.1344 84.9766L78.0899 84.9756Z" fill="url(#paint14_linear_275_1324)"/>
<path d="M91.7049 89.4201C92.2201 89.3479 92.4542 89.079 92.5514 88.7924V88.8007C92.6277 89.1031 92.4469 89.4159 92.0999 89.5655C91.7011 89.7213 91.2731 89.7881 90.8458 89.7612C90.4591 89.7455 90.1037 89.5854 89.9052 89.328C90.3002 89.5174 90.8447 89.5394 91.7049 89.4201Z" fill="url(#paint15_linear_275_1324)"/>
<path d="M89.2729 84.963H90.1372C91.4541 84.9358 92.2808 87.7157 92.5515 88.7923C92.4543 89.0789 92.2202 89.3478 91.7049 89.42C90.8448 89.5393 90.2992 89.5173 89.9104 89.3248C89.1997 88.3832 88.8465 87.0147 88.6772 86.2143C88.6163 85.9689 88.6424 85.71 88.7511 85.4818C88.8597 85.2535 89.0442 85.0702 89.2729 84.963Z" fill="url(#paint16_linear_275_1324)"/>
<path d="M90.0265 83.1593L90.5093 85.0708C90.5368 85.1849 90.5251 85.3049 90.4762 85.4115C90.4273 85.5182 90.344 85.6053 90.2397 85.6588C89.9711 85.7959 89.5938 85.9413 89.2457 85.8994C89.1659 85.8888 89.0906 85.8561 89.0283 85.8052C88.9659 85.7542 88.9189 85.6868 88.8925 85.6107L88.1849 83.5956L90.0265 83.1593Z" fill="url(#paint17_linear_275_1324)"/>
<path d="M90.5991 83.7118C90.0013 84.2423 88.0594 84.3124 88.0594 84.3124C81.0622 67.5001 78.1996 65.1115 78.1996 65.1115C79.2102 71.4571 78.3626 85.5061 78.3626 85.5061C77.213 86.0157 75.7195 85.5061 75.7195 85.5061C75.6341 76.5283 74.4337 67.5959 72.1461 58.9146C76.8754 58.8099 79.39 57.1882 80.2115 56.5375C84.1537 62.8997 90.5991 83.7118 90.5991 83.7118Z" fill="url(#paint18_linear_275_1324)"/>
<path d="M79.0126 37.2036C79.9073 41.6732 79.5864 49.6739 79.3764 53.3222C79.3168 54.3485 80.0317 55.7704 80.6096 56.7403C80.6313 56.776 80.6453 56.8158 80.6508 56.8572C80.6564 56.8987 80.6533 56.9408 80.6418 56.9809C80.6303 57.0211 80.6107 57.0585 80.5841 57.0907C80.5575 57.1229 80.5246 57.1493 80.4873 57.1682C79.5195 57.6662 76.2409 59.2094 72.4398 59.4009C72.3163 59.406 72.1948 59.3686 72.0955 59.295C71.9962 59.2213 71.9252 59.1158 71.8942 58.996C69.0723 48.4592 65.801 41.7265 65.801 41.7265C69.4151 35.9481 79.0126 37.2036 79.0126 37.2036Z" fill="#099F9F"/>
<path d="M77.722 64.7139C77.7633 64.7135 77.8038 64.7019 77.8391 64.6804C77.8642 64.6652 77.8861 64.6451 77.9034 64.6214C77.9208 64.5976 77.9333 64.5707 77.9402 64.5421C77.9471 64.5135 77.9482 64.4838 77.9436 64.4548C77.939 64.4257 77.9287 64.3979 77.9133 64.3728C77.2176 63.3391 76.2605 62.5087 75.1395 61.9664C75.086 61.9405 75.0244 61.9369 74.9682 61.9564C74.9121 61.9759 74.866 62.017 74.8401 62.0705C74.8141 62.1241 74.8105 62.1857 74.83 62.242C74.8495 62.2982 74.8905 62.3443 74.944 62.3703C75.9855 62.8806 76.8768 63.6528 77.5307 64.6114C77.5513 64.6433 77.5797 64.6695 77.6131 64.6874C77.6466 64.7053 77.6841 64.7145 77.722 64.7139Z" fill="url(#paint19_linear_275_1324)"/>
<path d="M84.6251 50.0317C84.3377 52.1138 83.488 54.3852 81.7886 56.7978L81.1427 56.2747C81.6009 54.1513 81.7096 51.9673 81.4646 49.8089C82.5129 49.5996 83.7514 49.811 84.6251 50.0317Z" fill="url(#paint20_linear_275_1324)"/>
<path d="M78.0104 42.7185L79.0127 37.2037C79.0127 37.2037 85.6911 42.3157 84.6251 50.0319C83.7513 49.8111 82.5128 49.5998 81.4646 49.8048C81.1594 47.3283 80.247 44.6395 78.0104 42.7185Z" fill="#099F9F"/>
<path d="M65.8001 41.7266L68.3785 47.2905C67.9604 50.6469 66.1607 52.1033 64.2188 52.6547C64.1232 51.4094 63.8307 50.1871 63.3524 49.0336C65.8346 46.465 65.8001 41.7266 65.8001 41.7266Z" fill="#099F9F"/>
<path d="M63.3523 49.0294C63.8306 50.183 64.1231 51.4052 64.2187 52.6505C59.0369 54.6624 57.6667 50.7599 57.6667 50.7599L58.6241 50.5904C60.7865 50.8185 62.2967 50.1207 63.3523 49.0294Z" fill="url(#paint21_linear_275_1324)"/>
<path d="M68.1757 34.8631L69.4204 39.4436C69.4534 39.5649 69.5117 39.6779 69.5913 39.775C69.671 39.8722 69.7703 39.9514 69.8828 40.0074C69.9952 40.0634 70.1182 40.095 70.2437 40.1001C70.3691 40.1052 70.4943 40.0836 70.6108 40.0369C71.2235 39.796 71.8226 39.5218 72.4053 39.2156C72.5523 39.1359 72.6809 39.0263 72.783 38.8939C72.8852 38.7615 72.9585 38.6091 72.9984 38.4467C73.0382 38.2842 73.0437 38.1152 73.0145 37.9505C72.9853 37.7858 72.9219 37.6291 72.8286 37.4903L70.2409 33.6265L68.1757 34.8631Z" fill="url(#paint22_linear_275_1324)"/>
<path d="M55.2881 47.6945L87.191 59.3162C87.5074 59.4317 87.7965 59.6113 88.0403 59.8439C88.284 60.0765 88.4771 60.357 88.6074 60.6678C88.7378 60.9787 88.8025 61.3131 88.7976 61.6502C88.7927 61.9873 88.7182 62.3197 88.5789 62.6266L88.4817 62.8358C88.3579 63.1087 88.1814 63.3543 87.9623 63.5586C87.7432 63.7629 87.486 63.9217 87.2054 64.0261C86.9247 64.1304 86.6262 64.1782 86.3271 64.1666C86.0279 64.155 85.734 64.0842 85.4623 63.9585L54.4885 49.6175L55.2881 47.6945Z" fill="#79111E"/>
<path opacity="0.2" d="M40.6299 56.1828C49.3268 56.1828 56.377 49.2524 56.377 40.7034C56.377 32.1545 49.3268 25.2241 40.6299 25.2241C31.933 25.2241 24.8828 32.1545 24.8828 40.7034C24.8828 49.2524 31.933 56.1828 40.6299 56.1828Z" fill="url(#paint23_linear_275_1324)"/>
<path d="M23.1082 40.6992C23.1082 50.2117 30.953 57.9226 40.6299 57.9226C50.3069 57.9226 58.1517 50.2201 58.1517 40.6992C58.1517 31.1783 50.3069 23.4789 40.6299 23.4789C30.953 23.4789 23.1082 31.1908 23.1082 40.6992ZM25.6823 40.6992C25.6823 32.5834 32.3712 26.0045 40.6278 26.0045C48.8844 26.0045 55.5733 32.5834 55.5733 40.6992C55.5733 48.8149 48.8844 55.3927 40.6278 55.3927C32.3712 55.3927 25.6823 48.8181 25.6823 40.6992Z" fill="#79111E"/>
<path d="M56.8192 42.7697H56.8129C56.7997 42.7679 56.7877 42.761 56.7795 42.7504C56.7713 42.7399 56.7675 42.7265 56.769 42.7132C56.8202 42.3104 56.8568 41.8993 56.8735 41.4912C56.8736 41.4845 56.8751 41.4778 56.8779 41.4717C56.8807 41.4656 56.8847 41.4601 56.8897 41.4556C56.8947 41.451 56.9006 41.4476 56.907 41.4455C56.9134 41.4433 56.9201 41.4425 56.9268 41.4431C56.9335 41.4433 56.9401 41.445 56.9461 41.4478C56.9522 41.4506 56.9576 41.4547 56.9621 41.4596C56.9666 41.4646 56.97 41.4704 56.9722 41.4767C56.9744 41.4831 56.9753 41.4898 56.9749 41.4964C56.955 41.9066 56.9185 42.3209 56.8704 42.7258C56.8684 42.738 56.8622 42.7491 56.8528 42.7571C56.8434 42.7652 56.8315 42.7696 56.8192 42.7697ZM56.699 37.957C56.6872 37.9569 56.6758 37.9526 56.6668 37.945C56.6578 37.9373 56.6518 37.9268 56.6499 37.9151C56.4528 36.8166 56.1392 35.7423 55.7145 34.7104C54.5046 31.7831 52.4561 29.2799 49.8272 27.5164C47.1842 25.7436 44.0862 24.7722 40.9052 24.7189C37.7242 24.6657 34.5954 25.5328 31.8947 27.2161C31.8832 27.2228 31.8696 27.2248 31.8567 27.2216C31.8438 27.2184 31.8326 27.2103 31.8256 27.199C31.8185 27.1877 31.8161 27.1742 31.8189 27.1612C31.8216 27.1482 31.8293 27.1367 31.8403 27.1293C34.5579 25.4359 37.706 24.5638 40.9067 24.6176C44.1073 24.6714 47.2244 25.6489 49.8836 27.4327C52.5299 29.2056 54.5923 31.7235 55.8106 34.6686C56.2377 35.7073 56.553 36.7886 56.7512 37.8942C56.7524 37.9007 56.7523 37.9074 56.7509 37.9139C56.7495 37.9204 56.7469 37.9266 56.7431 37.932C56.7393 37.9375 56.7344 37.9421 56.7289 37.9457C56.7233 37.9492 56.717 37.9516 56.7105 37.9528L56.699 37.957Z" fill="#91B3FA"/>
<path d="M81.4092 56.1837L78.3939 55.9379L77.0875 57.1431C77.0875 57.1431 77.4011 57.571 78.3626 57.3252C79.3241 57.0793 80.6514 57.0186 80.6514 57.0186C80.6514 57.0186 81.985 57.6212 82.0018 56.4955L81.4092 56.1837Z" fill="url(#paint24_linear_275_1324)"/>
<path d="M58.0503 51.4757C57.7901 51.6797 56.9007 51.2539 56.3499 50.9599C56.2203 50.8911 56.1189 50.779 56.0633 50.6431C56.0078 50.5072 56.0016 50.356 56.0458 50.216C56.1775 49.7975 56.3969 49.2639 56.6666 49.197C57.115 49.0819 59.1258 50.6387 58.0503 51.4757Z" fill="url(#paint25_linear_275_1324)"/>
<path d="M86.5619 63.4479C86.55 63.4476 86.5385 63.4433 86.5294 63.4354C86.5204 63.4276 86.5143 63.4169 86.5123 63.4051C86.5103 63.3933 86.5125 63.3812 86.5185 63.3708C86.5245 63.3605 86.534 63.3526 86.5452 63.3485C87.4733 63.0273 87.9603 62.5031 87.9917 61.7895C88.0001 61.4286 87.8956 61.074 87.6928 60.7753C87.4901 60.4767 87.1992 60.249 86.8608 60.1239L83.0304 58.6288C83.0179 58.6238 83.0079 58.614 83.0026 58.6017C82.9973 58.5893 82.9972 58.5754 83.0022 58.5629C83.0071 58.5504 83.0169 58.5404 83.0292 58.5351C83.0416 58.5298 83.0555 58.5296 83.068 58.5346L86.8974 60.0297C87.2557 60.1622 87.5636 60.4037 87.7778 60.7202C87.9921 61.0368 88.1019 61.4125 88.092 61.7948C88.0596 62.5533 87.5506 63.1078 86.5786 63.4447L86.5619 63.4479Z" fill="#91B3FA"/>
<path d="M81.8691 58.1717H81.8502L81.3538 57.9781C81.3425 57.9724 81.3337 57.9626 81.3291 57.9508C81.3245 57.9389 81.3245 57.9258 81.3291 57.914C81.3337 57.9021 81.3424 57.8924 81.3538 57.8866C81.3651 57.8809 81.3781 57.8796 81.3904 57.8829L81.8868 58.0765C81.8994 58.0814 81.9095 58.0911 81.915 58.1034C81.9205 58.1157 81.9209 58.1298 81.9161 58.1424C81.9118 58.1512 81.9051 58.1586 81.8968 58.1638C81.8884 58.169 81.8788 58.1717 81.8691 58.1717Z" fill="#91B3FA"/>
<path d="M67.907 30.3654C67.907 30.3654 66.8765 32.7351 66.8075 33.9791C66.7386 35.2231 66.47 36.0298 67.907 36.2809C69.3441 36.532 70.5534 35.8153 71.2087 34.5765C71.2087 34.5765 72.236 32.6671 72.0061 31.8856C71.7762 31.104 67.907 30.3654 67.907 30.3654Z" fill="url(#paint26_linear_275_1324)"/>
<path d="M70.7185 33.6894H70.5366C70.5366 33.6894 71.2849 32.1524 70.6276 31.8825C69.9702 31.6126 67.3657 31.0811 66.8034 30.1562C66.262 29.2648 66.7449 28.1128 67.4681 27.7895C67.4907 27.7803 67.5159 27.78 67.5387 27.7885C67.5616 27.797 67.5804 27.8138 67.5914 27.8356L67.651 27.9486C67.6599 27.9659 67.6739 27.9801 67.691 27.9894C67.7081 27.9987 67.7276 28.0026 67.7469 28.0007C67.7663 27.9988 67.7846 27.9911 67.7996 27.9787C67.8145 27.9662 67.8254 27.9495 67.8308 27.9308C67.8355 27.9126 67.8454 27.8961 67.8593 27.8835C67.8732 27.8708 67.8905 27.8626 67.9091 27.8597C67.9277 27.8568 67.9467 27.8594 67.9638 27.8672C67.9809 27.875 67.9953 27.8877 68.0053 27.9036C68.1778 28.1798 68.6439 28.6297 69.8928 28.8609C71.6696 29.1884 72.837 29.9072 72.8652 31.1323C72.8656 31.1498 72.8706 31.1669 72.8797 31.1818C72.8889 31.1967 72.9019 31.2089 72.9173 31.2171C72.9328 31.2254 72.9501 31.2293 72.9676 31.2285C72.9851 31.2278 73.002 31.2224 73.0167 31.2129C73.1474 31.1323 73.3564 31.0957 73.6365 31.3311C74.1235 31.7402 73.9239 32.8032 72.8579 33.6779C72.8456 33.6868 72.8356 33.6985 72.8286 33.712C72.8217 33.7256 72.8181 33.7406 72.8181 33.7558C72.8181 33.771 72.8217 33.786 72.8286 33.7996C72.8356 33.8131 72.8456 33.8248 72.8579 33.8337C73.0512 33.9603 73.3397 34.2596 72.5924 34.6592C71.8284 35.0683 71.3759 35.0244 71.2055 34.9804C71.1826 34.975 71.1624 34.9614 71.1487 34.9421C71.1351 34.9229 71.1289 34.8993 71.1313 34.8758L71.1982 33.7898C71.1994 33.7764 71.1977 33.7629 71.1933 33.7501C71.189 33.7374 71.182 33.7257 71.1728 33.7159C71.1637 33.706 71.1525 33.6982 71.1402 33.6929C71.1278 33.6876 71.1145 33.685 71.101 33.6852L70.7185 33.6894Z" fill="url(#paint27_linear_275_1324)"/>
<path d="M70.6736 33.9121C70.6736 33.9121 71.0666 32.3982 71.7449 32.823C72.4232 33.2478 71.3926 34.519 70.8481 34.5755L70.6736 33.9121Z" fill="url(#paint28_linear_275_1324)"/>
<path d="M33.0934 38.0407L39.056 42.686L50.5023 33.2938L53.4559 36.669L39.056 51.7508L29.8295 41.6346L33.0934 38.0407Z" fill="#099F9F"/>
<defs>
<linearGradient id="paint0_linear_275_1324" x1="11.4351" y1="19.3033" x2="53.155" y2="19.3033" gradientUnits="userSpaceOnUse">
<stop stop-color="#DAE3FE"/>
<stop offset="1" stop-color="#E9EFFD"/>
</linearGradient>
<linearGradient id="paint1_linear_275_1324" x1="4567.25" y1="366.268" x2="21221.1" y2="366.268" gradientUnits="userSpaceOnUse">
<stop stop-color="#DAE3FE"/>
<stop offset="1" stop-color="#E9EFFD"/>
</linearGradient>
<linearGradient id="paint2_linear_275_1324" x1="791.101" y1="2325.24" x2="1232.29" y2="2325.24" gradientUnits="userSpaceOnUse">
<stop stop-color="#DAE3FE"/>
<stop offset="1" stop-color="#E9EFFD"/>
</linearGradient>
<linearGradient id="paint3_linear_275_1324" x1="6337.74" y1="1131.41" x2="14314.4" y2="1131.41" gradientUnits="userSpaceOnUse">
<stop stop-color="#DAE3FE"/>
<stop offset="1" stop-color="#E9EFFD"/>
</linearGradient>
<linearGradient id="paint4_linear_275_1324" x1="805.154" y1="1652.08" x2="1246.45" y2="1652.08" gradientUnits="userSpaceOnUse">
<stop stop-color="#DAE3FE"/>
<stop offset="1" stop-color="#E9EFFD"/>
</linearGradient>
<linearGradient id="paint5_linear_275_1324" x1="6397.34" y1="806.289" x2="14375" y2="806.289" gradientUnits="userSpaceOnUse">
<stop stop-color="#DAE3FE"/>
<stop offset="1" stop-color="#E9EFFD"/>
</linearGradient>
<linearGradient id="paint6_linear_275_1324" x1="809.897" y1="2967.91" x2="1251.26" y2="2967.91" gradientUnits="userSpaceOnUse">
<stop stop-color="#DAE3FE"/>
<stop offset="1" stop-color="#E9EFFD"/>
</linearGradient>
<linearGradient id="paint7_linear_275_1324" x1="6415.75" y1="1443.57" x2="14392.2" y2="1443.57" gradientUnits="userSpaceOnUse">
<stop stop-color="#DAE3FE"/>
<stop offset="1" stop-color="#E9EFFD"/>
</linearGradient>
<linearGradient id="paint8_linear_275_1324" x1="794.074" y1="3584.79" x2="1235.38" y2="3584.79" gradientUnits="userSpaceOnUse">
<stop stop-color="#DAE3FE"/>
<stop offset="1" stop-color="#E9EFFD"/>
</linearGradient>
<linearGradient id="paint9_linear_275_1324" x1="6349.71" y1="1742.61" x2="14326.2" y2="1742.61" gradientUnits="userSpaceOnUse">
<stop stop-color="#DAE3FE"/>
<stop offset="1" stop-color="#E9EFFD"/>
</linearGradient>
<linearGradient id="paint10_linear_275_1324" x1="771.34" y1="4222.29" x2="1212.42" y2="4222.29" gradientUnits="userSpaceOnUse">
<stop stop-color="#DAE3FE"/>
<stop offset="1" stop-color="#E9EFFD"/>
</linearGradient>
<linearGradient id="paint11_linear_275_1324" x1="6255.66" y1="2051.59" x2="14231.9" y2="2051.59" gradientUnits="userSpaceOnUse">
<stop stop-color="#DAE3FE"/>
<stop offset="1" stop-color="#E9EFFD"/>
</linearGradient>
<linearGradient id="paint12_linear_275_1324" x1="78.7306" y1="89.4284" x2="71.7877" y2="89.4284" gradientUnits="userSpaceOnUse">
<stop stop-color="#4042E2"/>
<stop offset="1" stop-color="#4F52FF"/>
</linearGradient>
<linearGradient id="paint13_linear_275_1324" x1="-57653.5" y1="2408.87" x2="-58088.8" y2="2408.87" gradientUnits="userSpaceOnUse">
<stop/>
<stop offset="1" stop-color="#1A0F91"/>
</linearGradient>
<linearGradient id="paint14_linear_275_1324" x1="78.0899" y1="86.1652" x2="76.1344" y2="86.1652" gradientUnits="userSpaceOnUse">
<stop stop-color="#FF928E"/>
<stop offset="1" stop-color="#FEB3B1"/>
</linearGradient>
<linearGradient id="paint15_linear_275_1324" x1="22871.2" y1="920.448" x2="22939" y2="920.448" gradientUnits="userSpaceOnUse">
<stop stop-color="#4042E2"/>
<stop offset="1" stop-color="#4F52FF"/>
</linearGradient>
<linearGradient id="paint16_linear_275_1324" x1="-32514.9" y1="3862.31" x2="-32660.8" y2="3862.31" gradientUnits="userSpaceOnUse">
<stop stop-color="#09005D"/>
<stop offset="1" stop-color="#1A0F91"/>
</linearGradient>
<linearGradient id="paint17_linear_275_1324" x1="20138.7" y1="2302.99" x2="20191" y2="2302.99" gradientUnits="userSpaceOnUse">
<stop stop-color="#FF928E"/>
<stop offset="1" stop-color="#FEB3B1"/>
</linearGradient>
<linearGradient id="paint18_linear_275_1324" x1="16826.6" y1="5028.18" x2="11862.4" y2="17429.3" gradientUnits="userSpaceOnUse">
<stop stop-color="#085D5D"/>
<stop offset="1" stop-color="#4F52FF"/>
</linearGradient>
<linearGradient id="paint19_linear_275_1324" x1="2237.29" y1="410.847" x2="2319.52" y2="1533" gradientUnits="userSpaceOnUse">
<stop stop-color="#09005D"/>
<stop offset="1" stop-color="#1A0F91"/>
</linearGradient>
<linearGradient id="paint20_linear_275_1324" x1="30291.2" y1="3459.9" x2="29875.6" y2="3641.07" gradientUnits="userSpaceOnUse">
<stop stop-color="#FF928E"/>
<stop offset="1" stop-color="#FEB3B1"/>
</linearGradient>
<linearGradient id="paint21_linear_275_1324" x1="57873.9" y1="2100.19" x2="58284.7" y2="2100.19" gradientUnits="userSpaceOnUse">
<stop stop-color="#FF928E"/>
<stop offset="1" stop-color="#FEB3B1"/>
</linearGradient>
<linearGradient id="paint22_linear_275_1324" x1="69.294" y1="32.0655" x2="72.5455" y2="43.2292" gradientUnits="userSpaceOnUse">
<stop stop-color="#FF928E"/>
<stop offset="0.11" stop-color="#FF9592"/>
<stop offset="1" stop-color="#FEB3B1"/>
</linearGradient>
<linearGradient id="paint23_linear_275_1324" x1="56.376" y1="40.7034" x2="24.8828" y2="40.7034" gradientUnits="userSpaceOnUse">
<stop stop-color="#B37CFF"/>
<stop offset="1" stop-color="#F895E7"/>
</linearGradient>
<linearGradient id="paint24_linear_275_1324" x1="42862.7" y1="813.302" x2="42791.8" y2="1024.16" gradientUnits="userSpaceOnUse">
<stop stop-color="#FF928E"/>
<stop offset="1" stop-color="#FEB3B1"/>
</linearGradient>
<linearGradient id="paint25_linear_275_1324" x1="20890" y1="1174.61" x2="20942.6" y2="1174.61" gradientUnits="userSpaceOnUse">
<stop stop-color="#FF928E"/>
<stop offset="1" stop-color="#FEB3B1"/>
</linearGradient>
<linearGradient id="paint26_linear_275_1324" x1="-21423.6" y1="27051.3" x2="-21675.6" y2="26636.6" gradientUnits="userSpaceOnUse">
<stop stop-color="#FF928E"/>
<stop offset="1" stop-color="#FEB3B1"/>
</linearGradient>
<linearGradient id="paint27_linear_275_1324" x1="-46284.7" y1="2022.95" x2="-46652.2" y2="2502.12" gradientUnits="userSpaceOnUse">
<stop stop-color="#09005D"/>
<stop offset="1" stop-color="#1A0F91"/>
</linearGradient>
<linearGradient id="paint28_linear_275_1324" x1="-4711.41" y1="8297.17" x2="-4795.27" y2="8187.05" gradientUnits="userSpaceOnUse">
<stop stop-color="#FF928E"/>
<stop offset="1" stop-color="#FEB3B1"/>
</linearGradient>
</defs>
</svg>
