<svg width="25" height="25" viewBox="0 0 25 25" fill="none" xmlns="http://www.w3.org/2000/svg">
<path d="M13.8137 10.5923C14.1683 10.5923 14.4567 10.8338 14.4567 11.1307C14.4567 11.4003 14.6754 11.619 14.945 11.619C15.2147 11.619 15.4333 11.4003 15.4333 11.1307C15.4333 10.4545 14.9571 9.88037 14.302 9.68617V9.6183C14.302 9.34866 14.0833 9.13 13.8137 9.13C13.5441 9.13 13.3254 9.34866 13.3254 9.6183V9.68617C12.6702 9.88042 12.1941 10.4545 12.1941 11.1307C12.1941 11.9661 12.9206 12.6457 13.8137 12.6457C14.1683 12.6457 14.4567 12.8872 14.4567 13.1841C14.4567 13.481 14.1683 13.7225 13.8137 13.7225C13.4591 13.7225 13.1707 13.481 13.1707 13.1841C13.1707 12.9145 12.952 12.6958 12.6824 12.6958C12.4128 12.6958 12.1941 12.9145 12.1941 13.1841C12.1941 13.8604 12.6702 14.4344 13.3254 14.6286V14.6965C13.3254 14.9661 13.5441 15.1848 13.8137 15.1848C14.0833 15.1848 14.302 14.9661 14.302 14.6965V14.6286C14.9571 14.4344 15.4333 13.8604 15.4333 13.1841C15.4333 12.3488 14.7067 11.6691 13.8137 11.6691C13.4591 11.6691 13.1707 11.4276 13.1707 11.1307C13.1707 10.8338 13.4591 10.5923 13.8137 10.5923Z" fill="black"/>
<path d="M24.9265 16.3113C24.7351 15.6474 24.1963 15.1458 23.5205 15.0021C23.0877 14.9099 22.6376 14.9771 22.2532 15.1815C22.4757 13.7974 22.3589 12.3656 21.9009 11.0311C21.8133 10.776 21.5355 10.6404 21.2805 10.7277C21.0254 10.8152 20.8896 11.093 20.9771 11.3481C21.518 12.9241 21.5224 14.6531 20.9925 16.2311L17.1012 19.6871C16.8611 19.9003 16.5978 20.0811 16.318 20.2279C16.3971 19.9078 16.3917 19.5689 16.2967 19.2469C16.1466 18.7384 15.7863 18.3154 15.3082 18.0864L11.861 16.4353C10.3539 15.7135 8.58998 15.63 7.02147 16.2058L6.67107 16.3345C5.69848 13.587 6.37546 10.5399 8.45824 8.4572L11.9055 5.00997H15.7219L18.6428 7.93082C18.8335 8.12145 19.1426 8.12145 19.3334 7.93082C19.524 7.74014 19.524 7.43095 19.3334 7.24022L16.5425 4.44955L17.5514 1.54623C17.6867 1.15701 17.5373 0.732385 17.1882 0.51353C16.8391 0.294724 16.3918 0.345458 16.1004 0.636679L16.0944 0.642685C15.8926 0.844596 15.564 0.844596 15.3622 0.642685C14.5052 -0.214228 13.1109 -0.214228 12.2539 0.642685C12.1561 0.740491 12.0261 0.794301 11.8878 0.794301C11.7495 0.794301 11.6195 0.740442 11.5217 0.642685C11.2301 0.351025 10.7824 0.300535 10.4331 0.520025C10.0838 0.739466 9.93505 1.16468 10.0713 1.55404L11.0846 4.44984L7.76769 7.7667C6.54016 8.99428 5.72416 10.542 5.40804 12.2425C5.13074 13.7337 5.25086 15.2544 5.75356 16.6714L4.98376 16.9541C4.7276 16.6211 4.32549 16.4058 3.87386 16.4058H1.3998C0.627951 16.4059 0 17.0338 0 17.8056V23.6C0 24.3719 0.627951 24.9998 1.3998 24.9998H14.2696C16.291 24.9998 18.2027 24.2239 19.6523 22.8151L24.4336 18.1682C24.9291 17.6867 25.1179 16.9752 24.9265 16.3113ZM11.8877 1.77095C12.2869 1.77095 12.6621 1.61552 12.9444 1.33328C13.4206 0.857096 14.1954 0.857096 14.6716 1.33328C14.9539 1.61552 15.3292 1.77095 15.7283 1.77095C16.0117 1.77095 16.283 1.69262 16.5176 1.54613L15.6533 4.03342H11.9735L11.1045 1.54984C11.3377 1.69389 11.6067 1.77095 11.8877 1.77095ZM0.976595 23.6001V17.8056C0.976595 17.5723 1.16645 17.3824 1.3998 17.3824H3.87381C4.10717 17.3824 4.29702 17.5723 4.29702 17.8056V23.6C4.29702 23.8334 4.10717 24.0233 3.87381 24.0233H1.3998C1.16645 24.0233 0.976595 23.8335 0.976595 23.6001ZM23.753 17.4679L18.9716 22.1148C17.7053 23.3455 16.0354 24.0233 14.2696 24.0233H5.20803C5.25052 23.8897 5.27361 23.7476 5.27361 23.6001V17.888L7.35806 17.1227C8.68071 16.6371 10.1683 16.7075 11.4392 17.3162L14.8863 18.9673C15.1188 19.0786 15.287 19.2761 15.36 19.5234C15.4329 19.7707 15.3989 20.028 15.2641 20.2477C15.0475 20.6007 14.6205 20.7595 14.2258 20.6341L9.64627 19.1778C9.38933 19.0962 9.11471 19.2382 9.03292 19.4952C8.95123 19.7522 9.09327 20.0268 9.35031 20.1086L13.9299 21.5648C14.1185 21.6248 14.3105 21.6536 14.5001 21.6536C14.523 21.6536 14.5457 21.6522 14.5685 21.6514C15.7429 21.6345 16.8701 21.1985 17.7496 20.4174L22.5402 16.1627C22.751 15.9755 23.0415 15.8988 23.3172 15.9574C23.6445 16.027 23.8953 16.2605 23.988 16.582C24.0809 16.9035 23.993 17.2346 23.753 17.4679Z" fill="black"/>
<path d="M20.4469 9.71643C20.5753 9.71643 20.7013 9.66467 20.7921 9.57336C20.8829 9.48254 20.9352 9.35701 20.9352 9.22815C20.9352 9.09973 20.8829 8.97424 20.7921 8.88293C20.7013 8.79216 20.5753 8.73987 20.4469 8.73987C20.3184 8.73987 20.193 8.79211 20.1017 8.88293C20.0109 8.97424 19.9586 9.09973 19.9586 9.22815C19.9586 9.35706 20.0108 9.48254 20.1017 9.57336C20.1925 9.66472 20.3184 9.71643 20.4469 9.71643Z" fill="black"/>
</svg>
