<svg width="122" height="139" viewBox="0 0 122 139" fill="none" xmlns="http://www.w3.org/2000/svg">
<g opacity="0.3">
<path d="M65.9945 138.123C71.9467 138.123 76.7718 135.206 76.7718 131.607C76.7718 128.009 71.9467 125.091 65.9945 125.091C60.0424 125.091 55.2173 128.009 55.2173 131.607C55.2173 135.206 60.0424 138.123 65.9945 138.123Z" fill="#EAE4D3"/>
<path style="mix-blend-mode:multiply" opacity="0.16" d="M59.9592 130.237C63.077 130.69 66.2139 131.024 69.3667 131.193C71.8393 131.34 74.3088 131.429 76.7846 131.486C76.6893 127.934 71.9029 125.072 66.0105 125.072C61.1447 125.072 57.0353 127.022 55.6941 129.699C57.1306 129.938 58.6276 130.046 59.9592 130.237Z" fill="url(#paint0_linear_247_433)"/>
<path d="M119.636 114.736C119.032 114.064 118.381 113.427 117.78 112.751C109.453 103.349 107.47 88.95 106.599 76.8965C105.678 64.1101 106.107 51.1135 103.183 38.5438C101.685 32.2317 98.6112 26.4051 94.2497 21.6117C89.8881 16.8183 84.3822 13.2155 78.2497 11.1423C78.1323 9.9323 77.8873 8.73823 77.5188 7.58005C77.0976 6.24381 76.4164 5.00448 75.5147 3.93368C74.613 2.86287 73.5086 1.98182 72.2652 1.34142C66.983 -1.44972 60.8237 0.493883 58.119 5.77665C57.3739 7.27795 56.9311 8.91174 56.816 10.5847C51.1108 12.1463 45.8543 15.0372 41.4748 19.0218C32.8524 26.9173 29.5312 39.4137 28.3743 50.6547C27.3922 60.2134 28.2599 69.3355 27.8118 78.9516C27.4939 85.6012 26.5055 92.8404 24.6685 99.2925C23.7636 102.589 22.3571 105.726 20.4987 108.593C18.8747 111.046 16.4052 112.821 14.9242 115.31C14.3616 116.266 13.8499 117.04 14.1106 118.193C14.6826 120.704 18.3121 121.956 20.3843 122.699C24.9196 124.33 29.7791 125.13 34.5337 125.796C47.7836 127.65 61.2877 128.026 74.652 127.746C86.6847 127.497 99.1241 126.962 110.883 124.043C113.881 123.301 117.92 122.37 120.1 120.003C121.861 118.043 121.063 116.32 119.636 114.736ZM61.7581 9.55233C62.4319 6.93644 64.1258 4.49897 67.053 4.24726C71.0607 3.89996 72.4273 6.63374 73.0915 9.78492C69.3493 9.11172 65.5247 9.03323 61.7581 9.55233Z" fill="#099F9F"/>
<path style="mix-blend-mode:multiply" opacity="0.16" d="M119.636 114.86C119.032 114.188 118.384 113.554 117.783 112.879C112.409 106.825 110.356 100.612 108.668 92.4866C108.474 91.5499 108.01 89.3737 108.01 88.9818C108.01 87.5607 104.594 87.2899 103.3 86.7036C90.6924 81.0067 77.5569 76.1891 65.3749 69.635C58.9 66.1467 52.7518 62.0805 47.0049 57.4859C44.1339 55.1918 41.37 52.7713 38.713 50.2245C35.9797 47.6022 34.8992 45.9454 33.7645 42.3927C33.3895 41.2138 33.0685 40.0222 32.7698 38.8242C32.5219 37.8269 32.4519 36.221 31.8989 35.3894C30.9709 35.724 30.3925 38.5756 30.1287 39.4773C29.678 41.022 29.3204 42.5925 29.0576 44.1802C28.581 47.2556 28.2628 50.3535 28.1042 53.4617C27.6243 60.7741 28.1042 63.1319 28.1264 66.6686C28.1741 70.9955 28.0088 74.7043 27.8086 79.0503C27.4908 85.7 26.5024 92.9391 24.6654 99.3944C23.7597 102.69 22.3533 105.826 20.4956 108.692C18.8715 111.148 16.402 112.92 14.921 115.408C14.3585 116.364 13.8468 117.138 14.1074 118.292C14.6795 120.803 18.309 122.055 20.3811 122.8C24.9164 124.432 29.7759 125.228 34.5305 125.894C47.7804 127.749 61.2845 128.125 74.6489 127.844C86.6815 127.596 99.121 127.06 110.88 124.145C113.877 123.399 117.917 122.469 120.097 120.102C121.861 118.171 121.063 116.431 119.636 114.86Z" fill="url(#paint1_linear_247_433)"/>
<path d="M27.6051 82.1219C27.6051 82.1219 74.3913 93.2737 107.124 82.8101C107.124 82.8101 106.806 79.9776 106.599 76.8965C106.599 76.8965 73.1868 86.7738 27.9134 75.6475C27.9134 75.6475 27.7068 80.806 27.656 81.4655L27.6051 82.1219Z" fill="#EAE4D3"/>
<path d="M27.0712 87.2834C27.0712 87.2834 69.6591 100.481 107.772 87.8315C107.772 87.8315 108.436 92.5917 109.428 95.9468C110.419 99.3019 64.4818 112.802 25.5234 95.9468C25.5234 95.9468 26.9663 88.0258 27.0712 87.2834Z" fill="#EAE4D3"/>
<g style="mix-blend-mode:multiply" opacity="0.12">
<g style="mix-blend-mode:multiply" opacity="0.12">
<path style="mix-blend-mode:multiply" opacity="0.12" d="M109.428 95.9469C108.436 92.5918 107.772 87.8315 107.772 87.8315C106.547 88.2351 105.321 88.6143 104.092 88.969L106.091 98.3557C108.395 97.3902 109.599 96.5204 109.428 95.9469Z" fill="url(#paint2_linear_247_433)"/>
</g>
<g style="mix-blend-mode:multiply" opacity="0.12">
<path style="mix-blend-mode:multiply" opacity="0.12" d="M93.0125 91.4989L95.1514 101.542C97.1314 101.118 98.943 100.672 100.554 100.216L98.4694 90.406C96.6515 90.8202 94.8325 91.1845 93.0125 91.4989Z" fill="url(#paint3_linear_247_433)"/>
</g>
<g style="mix-blend-mode:multiply" opacity="0.12">
<path style="mix-blend-mode:multiply" opacity="0.12" d="M82.0382 92.8754L83.2459 103.438C85.4135 103.199 87.4888 102.918 89.4561 102.603L87.2727 92.3433C85.5183 92.5599 83.7735 92.7373 82.0382 92.8754Z" fill="url(#paint4_linear_247_433)"/>
</g>
<g style="mix-blend-mode:multiply" opacity="0.12">
<path style="mix-blend-mode:multiply" opacity="0.12" d="M59.4061 92.8784L58.1603 103.807C60.2992 103.982 62.6098 104.103 64.5167 104.17V93.1716C62.9149 93.1015 61.062 93.0027 59.4061 92.8784Z" fill="url(#paint5_linear_247_433)"/>
</g>
<g style="mix-blend-mode:multiply" opacity="0.12">
<path style="mix-blend-mode:multiply" opacity="0.12" d="M27.0712 87.2834C26.9663 88.0258 25.5234 95.9468 25.5234 95.9468C26.8742 96.5331 28.2344 97.0747 29.5979 97.5877L31.5366 88.4878C28.6794 87.7805 27.0712 87.2834 27.0712 87.2834Z" fill="url(#paint6_linear_247_433)"/>
</g>
<g style="mix-blend-mode:multiply" opacity="0.12">
<path style="mix-blend-mode:multiply" opacity="0.12" d="M48.3905 91.7026L46.1658 102.192C48.2507 102.587 50.326 102.918 52.3919 103.186L53.6314 92.3526C51.8155 92.1551 50.0686 91.9384 48.3905 91.7026Z" fill="url(#paint7_linear_247_433)"/>
</g>
<g style="mix-blend-mode:multiply" opacity="0.12">
<path style="mix-blend-mode:multiply" opacity="0.12" d="M70.2247 93.3119V104.228C72.7673 104.199 75.1255 104.1 77.452 103.948L76.2125 93.2131C74.1911 93.2896 72.1316 93.3215 70.2247 93.3119Z" fill="url(#paint8_linear_247_433)"/>
</g>
<g style="mix-blend-mode:multiply" opacity="0.12">
<path style="mix-blend-mode:multiply" opacity="0.12" d="M37.1842 89.7688L35.1216 99.4709C36.9098 100.019 38.7034 100.515 40.5023 100.959L42.6603 90.8075C40.6771 90.4634 38.8432 90.1097 37.1842 89.7688Z" fill="url(#paint9_linear_247_433)"/>
</g>
</g>
<path d="M22.9968 45.2508C35.461 45.2508 45.5652 35.1211 45.5652 22.6254C45.5652 10.1297 35.461 0 22.9968 0C10.5327 0 0.428467 10.1297 0.428467 22.6254C0.428467 35.1211 10.5327 45.2508 22.9968 45.2508Z" fill="url(#paint10_linear_247_433)"/>
<path d="M20.0315 36.065C20.0315 34.2329 21.3028 32.9106 23.0285 32.9106C24.856 32.9106 26.0224 34.2329 26.0224 36.065C26.0224 37.8493 24.856 39.2226 23.0285 39.2226C21.2519 39.2226 20.0315 37.8493 20.0315 36.065Z" fill="#099F9F"/>
<path d="M25.6347 6.02502C25.5934 5.98042 25.533 5.8689 25.4726 5.8689H20.5909C20.5305 5.8689 20.4701 5.98042 20.4288 6.02502C20.3846 6.08609 20.3612 6.15984 20.3621 6.23531L21.074 30.5845C21.074 30.7056 21.1789 30.7215 21.3028 30.7215H24.7544C24.8783 30.7215 24.98 30.7215 24.9832 30.6036L25.6919 6.18752C25.6952 6.15786 25.6918 6.12783 25.6819 6.09969C25.672 6.07154 25.6559 6.04602 25.6347 6.02502Z" fill="#099F9F"/>
<path style="mix-blend-mode:multiply" opacity="0.16" d="M28.6222 40.8887C22.215 35.9724 16.9805 30.0555 11.8413 23.852C8.53281 19.8628 5.80274 15.469 3.4032 10.8936C0.838498 15.028 -0.327247 19.8817 0.0791773 24.7334C0.485602 29.5851 2.44251 34.1759 5.65912 37.8237C8.87574 41.4714 13.1804 43.9815 17.9335 44.9808C22.6866 45.9802 27.6345 45.4155 32.0419 43.3708C30.8883 42.5519 29.7314 41.7395 28.6222 40.8887Z" fill="url(#paint11_linear_247_433)"/>
<path d="M74.8555 133.187C74.5342 133.228 74.2085 133.161 73.9288 132.998C73.6491 132.834 73.4308 132.583 73.3077 132.283C72.7452 130.887 74.3374 129.45 75.5134 130.629C76.2698 131.387 75.9964 132.999 74.8555 133.187Z" fill="white"/>
<path d="M73.8225 131.183C73.8348 131.139 73.8557 131.098 73.8841 131.062C73.9125 131.026 73.9477 130.995 73.9878 130.973C74.0605 130.929 74.1422 130.901 74.2268 130.892C74.3114 130.884 74.397 130.894 74.4772 130.922C74.5248 130.939 74.5683 130.965 74.6053 131C74.6422 131.034 74.6717 131.076 74.692 131.122C74.7123 131.168 74.7228 131.218 74.7231 131.269C74.7233 131.319 74.7132 131.37 74.6933 131.416C74.6563 131.478 74.6064 131.531 74.5472 131.571C74.488 131.612 74.4208 131.639 74.3501 131.652C74.2547 131.668 74.1565 131.656 74.0682 131.616C73.9799 131.576 73.9054 131.511 73.8543 131.429C73.8329 131.392 73.8191 131.351 73.8137 131.309C73.8082 131.267 73.8112 131.224 73.8225 131.183Z" fill="black"/>
<path d="M58.8691 133.14C59.1911 133.18 59.5173 133.112 59.7975 132.948C60.0777 132.784 60.2964 132.532 60.42 132.232C60.9826 130.839 59.3903 129.399 58.2144 130.581C57.458 131.34 57.7345 132.949 58.8691 133.14Z" fill="white"/>
<path d="M59.9052 131.132C59.8785 131.044 59.8195 130.969 59.7399 130.922C59.6668 130.879 59.5852 130.852 59.5007 130.843C59.4163 130.834 59.3309 130.844 59.2505 130.871C59.2026 130.887 59.1587 130.914 59.1215 130.948C59.0843 130.982 59.0546 131.024 59.0343 131.07C59.014 131.117 59.0035 131.167 59.0035 131.218C59.0035 131.268 59.014 131.318 59.0344 131.365C59.0704 131.427 59.1195 131.481 59.1782 131.522C59.2369 131.563 59.3039 131.591 59.3744 131.604C59.4698 131.62 59.5678 131.607 59.656 131.568C59.7443 131.528 59.8188 131.463 59.8702 131.381C59.8925 131.344 59.9071 131.303 59.9131 131.26C59.9191 131.217 59.9164 131.174 59.9052 131.132Z" fill="black"/>
<path d="M54.5754 138.286C53.0498 137.33 52.0487 135.944 52.1695 134.07C52.1695 133.952 51.9788 133.924 51.9597 134.041C51.6673 135.902 52.5699 138.005 54.3815 138.748C54.6516 138.862 54.8074 138.432 54.5754 138.286Z" fill="url(#paint12_linear_247_433)"/>
<path d="M50.1068 138.015C49.4914 137.358 49.0729 136.541 48.8992 135.657C48.7255 134.772 48.8037 133.857 49.1247 133.015C49.2328 132.713 48.7401 132.502 48.6098 132.796C48.2042 133.717 48.1127 134.747 48.3494 135.726C48.5861 136.705 49.1378 137.579 49.9193 138.212C50.0337 138.308 50.2117 138.142 50.1068 138.015Z" fill="url(#paint13_linear_247_433)"/>
<path d="M80.2997 134.692C80.6258 134.519 80.8962 134.257 81.0791 133.936C81.262 133.615 81.3499 133.248 81.3326 132.879C81.3353 132.868 81.3413 132.859 81.3496 132.853C81.3579 132.847 81.3682 132.843 81.3787 132.843C81.3892 132.843 81.3994 132.847 81.4078 132.853C81.4161 132.859 81.4221 132.868 81.4248 132.879C81.4957 133.284 81.4322 133.701 81.2439 134.066C81.0556 134.432 80.753 134.725 80.3823 134.902C80.2647 134.937 80.198 134.752 80.2997 134.692Z" fill="url(#paint14_linear_247_433)"/>
<path d="M82.2257 134.574C82.4914 134.292 82.6721 133.94 82.7469 133.56C82.8217 133.179 82.7876 132.785 82.6484 132.423C82.6039 132.295 82.8168 132.203 82.8709 132.331C83.0442 132.726 83.083 133.168 82.9813 133.587C82.8797 134.007 82.6432 134.382 82.3083 134.653C82.2511 134.698 82.1748 134.628 82.2257 134.574Z" fill="url(#paint15_linear_247_433)"/>
</g>
<defs>
<linearGradient id="paint0_linear_247_433" x1="66.2235" y1="129.673" x2="66.2235" y2="125.63" gradientUnits="userSpaceOnUse">
<stop/>
<stop offset="0.06"/>
<stop offset="0.91"/>
</linearGradient>
<linearGradient id="paint1_linear_247_433" x1="-20.1758" y1="22.3864" x2="64.2494" y2="106.602" gradientUnits="userSpaceOnUse">
<stop/>
<stop offset="0.91"/>
</linearGradient>
<linearGradient id="paint2_linear_247_433" x1="2276.38" y1="4326.42" x2="2366.51" y2="4326.42" gradientUnits="userSpaceOnUse">
<stop/>
<stop offset="0.91"/>
</linearGradient>
<linearGradient id="paint3_linear_247_433" x1="2891.04" y1="4676.16" x2="3070.24" y2="4676.16" gradientUnits="userSpaceOnUse">
<stop/>
<stop offset="0.91"/>
</linearGradient>
<linearGradient id="paint4_linear_247_433" x1="2577.94" y1="4727.73" x2="2751.08" y2="4727.73" gradientUnits="userSpaceOnUse">
<stop/>
<stop offset="0.91"/>
</linearGradient>
<linearGradient id="paint5_linear_247_433" x1="1719.34" y1="4833.26" x2="1846.21" y2="4833.26" gradientUnits="userSpaceOnUse">
<stop/>
<stop offset="0.91"/>
</linearGradient>
<linearGradient id="paint6_linear_247_433" x1="979.51" y1="4216.1" x2="1093.28" y2="4216.1" gradientUnits="userSpaceOnUse">
<stop/>
<stop offset="0.91"/>
</linearGradient>
<linearGradient id="paint7_linear_247_433" x1="1715.32" y1="4873.4" x2="1890.69" y2="4873.4" gradientUnits="userSpaceOnUse">
<stop/>
<stop offset="0.91"/>
</linearGradient>
<linearGradient id="paint8_linear_247_433" x1="2233.33" y1="4724.06" x2="2397.68" y2="4724.06" gradientUnits="userSpaceOnUse">
<stop/>
<stop offset="0.91"/>
</linearGradient>
<linearGradient id="paint9_linear_247_433" x1="1458.8" y1="4676.34" x2="1637.62" y2="4676.34" gradientUnits="userSpaceOnUse">
<stop/>
<stop offset="0.91"/>
</linearGradient>
<linearGradient id="paint10_linear_247_433" x1="0.428467" y1="22.6254" x2="45.5652" y2="22.6254" gradientUnits="userSpaceOnUse">
<stop offset="0.02" stop-color="#FFF0E5"/>
<stop offset="0.5" stop-color="#FFF9F4"/>
<stop offset="1" stop-color="white"/>
</linearGradient>
<linearGradient id="paint11_linear_247_433" x1="899.075" y1="7508.12" x2="5359.56" y2="8416.13" gradientUnits="userSpaceOnUse">
<stop/>
<stop offset="0.91"/>
</linearGradient>
<linearGradient id="paint12_linear_247_433" x1="724.389" y1="2719.47" x2="748.739" y2="2719.47" gradientUnits="userSpaceOnUse">
<stop offset="0.02" stop-color="#FFF0E5"/>
<stop offset="0.5" stop-color="#FFF9F4"/>
<stop offset="1" stop-color="white"/>
</linearGradient>
<linearGradient id="paint13_linear_247_433" x1="489.404" y1="3124.76" x2="501.008" y2="3124.76" gradientUnits="userSpaceOnUse">
<stop offset="0.02" stop-color="#FFF0E5"/>
<stop offset="0.5" stop-color="#FFF9F4"/>
<stop offset="1" stop-color="white"/>
</linearGradient>
<linearGradient id="paint14_linear_247_433" x1="-318.09" y1="1227.79" x2="-322.614" y2="1227.79" gradientUnits="userSpaceOnUse">
<stop offset="0.02" stop-color="#FFF0E5"/>
<stop offset="0.5" stop-color="#FFF9F4"/>
<stop offset="1" stop-color="white"/>
</linearGradient>
<linearGradient id="paint15_linear_247_433" x1="-191.073" y1="1401.91" x2="-193.234" y2="1401.91" gradientUnits="userSpaceOnUse">
<stop offset="0.02" stop-color="#FFF0E5"/>
<stop offset="0.5" stop-color="#FFF9F4"/>
<stop offset="1" stop-color="white"/>
</linearGradient>
</defs>
</svg>
