<svg width="228" height="145" viewBox="0 0 228 145" fill="none" xmlns="http://www.w3.org/2000/svg">
<g clip-path="url(#clip0_17:576)">
<path d="M16.5231 144.717C16.5231 144.717 -8.46868 117.865 12.2975 88.7931C30.7213 62.9993 50.0184 73.4974 68.0113 79.3406C81.0595 83.5751 94.028 75.7834 110.497 49.5369C132.959 13.7442 210.822 35.4527 196.625 90.5211C189.755 117.171 217.534 118.139 203.379 144.778L16.5231 144.717Z" fill="#EBF3FA"/>
<path d="M138.553 144.364C138.574 144.374 138.596 144.383 138.623 144.393H152.508C152.378 143.896 151.923 142.998 150.335 142.735C148.181 142.385 144.447 141.133 143.614 138.374C143.587 138.285 143.563 138.194 143.543 138.102C142.88 135.155 138.074 139.005 138.074 139.005C138.074 139.005 138.059 139.123 138.039 139.323C137.925 140.408 137.64 143.906 138.553 144.364Z" fill="#2C3A64"/>
<path d="M156.916 94.4606C156.916 94.4606 147.887 126.559 145.163 138.969C145.163 138.969 138.462 140.314 137.42 138.207C137.42 138.207 139.579 103.252 143.551 98.812C148.496 93.2923 156.916 94.4606 156.916 94.4606Z" fill="#2C3A64"/>
<path d="M157.663 61.9273C157.663 61.9273 157.426 60.4911 157.796 59.2955C158.165 58.0998 159.711 54.9457 159.222 53.8495C158.732 52.7533 156.962 49.8048 155.87 49.8139C154.778 49.823 157.018 52.9689 156.71 53.9523C156.402 54.9357 156.301 55.0153 155.921 54.9282C155.542 54.8412 154.964 52.9598 154.775 53.3984C154.585 53.8371 154.692 56.7499 155.055 57.4771C155.418 58.2043 154.676 62.3045 154.676 62.3045L157.663 61.9273Z" fill="#ED975D"/>
<path d="M158.536 61.2879C158.536 61.2879 156.118 59.914 154.248 60.4928C154.248 60.4928 150.538 71.189 148.494 79.0529C144.572 69.3665 142.158 59.7059 142.158 59.7059C142.158 59.7059 137.401 66.2787 135.685 70.6509C133.968 75.0231 144.229 90.3561 148.21 91.5592C152.366 92.8146 151.607 91.5592 153.953 90.2143C154.708 89.2334 157.12 84.3587 158.536 61.2879Z" fill="#FFA412"/>
<path d="M169.474 144.864C169.497 144.875 169.52 144.885 169.544 144.893H183.428C183.298 144.396 182.844 143.498 181.255 143.24C179.101 142.89 175.367 141.637 174.534 138.878C174.508 138.79 174.484 138.699 174.463 138.607C173.8 135.66 168.994 139.51 168.994 139.51C168.994 139.51 168.979 139.627 168.959 139.828C168.845 140.908 168.56 144.407 169.474 144.864Z" fill="#2C3A64"/>
<path d="M159.611 93.681C159.611 93.681 158.258 94.2838 156.589 95.5151C156.487 94.9691 156.332 94.4345 156.125 93.919C144.21 90.8137 112.317 91.0667 112.317 91.0667C112.317 91.0667 105.46 92.7855 107.473 102.775C109.327 111.967 139.952 107.71 149.84 104.952C150.072 104.888 150.295 104.82 150.512 104.75C149.725 110.607 155.235 118.962 160.062 126.65C164.039 132.989 167.423 139.405 167.423 139.405C169.421 140.648 176.123 139.928 176.123 139.928C171.888 127.948 159.611 93.681 159.611 93.681Z" fill="#35488B"/>
<path d="M133.315 56.4605C133.315 56.4605 136.737 67.4196 141.874 69.8707C141.874 69.8707 142.36 66.5457 141.529 64.0167C142.207 63.4977 142.809 63.0151 143.333 62.5806C145.073 61.1296 145.956 60.2001 145.956 60.2001L145.192 54.8569L144.674 51.231C143.908 52.115 143.05 52.915 142.115 53.6173C137.68 56.9274 133.315 56.4605 133.315 56.4605Z" fill="#FFB27D"/>
<path d="M142.115 53.6173C142.115 53.6173 140.392 58.361 143.333 62.5806C145.073 61.1296 145.956 60.2001 145.956 60.2001L145.192 54.8569C143.352 53.8271 142.115 53.6173 142.115 53.6173Z" fill="#ED975D"/>
<path d="M147.259 61.2391C147.259 61.2391 139.684 56.2093 142.886 51.5378C146.089 46.8662 147.268 43.0686 152.24 46.0827C157.212 49.0967 156.92 51.517 156.23 53.3371C155.539 55.1571 149.312 62.4264 147.259 61.2391Z" fill="#FFB27D"/>
<path d="M143.767 41.7544C143.734 41.6267 143.592 41.4675 143.209 41.2528C143.497 41.2333 143.785 41.2848 144.049 41.4028C144.404 40.8863 145.179 40.0422 146.24 40.2652C146.24 40.2652 145.598 40.2918 145.245 40.8514C146.897 40.247 149.646 40.5645 155.878 44.2651C164.09 49.1423 158.55 53.3238 157.12 53.444C155.691 53.5643 153.794 50.3811 151.652 49.5362C149.51 48.6912 147.634 51.5262 146.731 51.6C145.828 51.6738 146.463 51.0726 145.729 50.1738C144.996 49.275 144.125 50.8247 143.892 51.998C143.658 53.1713 141.683 53.8959 141.683 53.8959L141.074 51.8139C140.464 49.731 142.208 43.0313 143.442 42.0297L143.767 41.7544Z" fill="#2B478B"/>
<path d="M142.533 74.7196C140.258 80.1092 138.178 83.5561 137.906 84.0063C136.925 85.6282 135.873 87.1165 134.91 88.4167L134.819 88.5402C132.923 91.0924 130.024 91.7955 130.113 92.4373C130.295 93.7217 127.054 96.802 121.71 98.1685C115.509 99.7539 108.324 100.517 106.508 98.4173C105.9 97.7133 105.698 96.4182 105.762 94.8079C105.895 91.4158 110.161 77.7561 110.161 77.7561C117.46 55.6529 138.36 55.6529 138.36 55.6529C138.36 55.6529 137.946 60.948 143.083 62.7838C143.092 62.797 144.288 70.5622 142.533 74.7196Z" fill="#FFB93E"/>
<path d="M154.808 90.4474C154.808 90.4474 157.946 91.5576 158.807 92.0966C159.668 92.6355 161.649 95.3502 161.873 96.3013C162.097 97.2523 162.358 100.049 162.195 100.517C162.033 100.984 159.627 99.1901 159.096 97.5027C158.566 95.8154 157.191 95.3593 157.243 95.4505C157.295 95.5417 157.998 97.7025 157.849 97.7962C157.701 97.8899 157.061 98.0508 156.482 96.8444C155.903 95.6379 154.756 94.7557 154.972 93.5095C155.188 92.2632 154.808 90.4474 154.808 90.4474Z" fill="#FFB27D"/>
<path d="M130.218 92.6181C130.398 93.9025 127.054 96.8046 121.71 98.1735C117.253 89.3014 125.728 68.9826 125.728 68.9826L134.91 88.4233C132.972 91.0344 130.127 91.9639 130.218 92.6181Z" fill="#FFA412"/>
<path d="M137.906 84.0063C136.925 85.6282 135.873 87.1165 134.91 88.4167L134.819 88.5402C133.559 88.0543 132.309 87.085 131.679 86.1937C130.233 84.1506 130.113 71.8648 130.113 71.8648C130.113 71.8648 136.034 79.1855 137.906 84.0063Z" fill="#FFA412"/>
<path d="M156.012 90.7226C156.012 90.7226 141.692 86.7111 134.341 84.9558C134.989 76.2768 137.111 50.0378 123.757 60.5417C123.757 60.5417 122.747 88.6613 129.218 94.3577C129.218 94.3577 149.992 94.798 153.948 94.555C153.948 94.555 155.108 93.9531 155.398 93.5518C156.322 92.2682 156.012 90.7226 156.012 90.7226Z" fill="#FFB93E"/>
<path d="M73.0787 132.825L73.6065 132.777C73.4043 128.928 70.4936 126.774 70.4936 126.774C68.4554 124.966 67.7933 122.981 67.7933 122.981C67.7933 122.981 71.2327 118.966 68.0055 116.415C68.0055 116.415 65.6482 114.987 63.726 115.103C63.726 115.103 66.4494 119.673 65.5687 120.128C64.6879 120.583 62.9007 114.816 62.9007 114.816C62.9007 114.816 57.5358 114.296 55.8099 115.126C55.8099 115.126 60.396 118.881 59.4299 119.106C58.4638 119.331 53.5107 115.643 53.5107 115.643C53.5107 115.643 48.5178 116.493 48.7879 119.54C49.058 122.588 50.7765 123.53 51.5304 123.449C52.2844 123.368 56.7097 121.678 56.8059 122.298C56.902 122.918 54.2373 124.944 52.3756 125.039C52.3756 125.039 55.8953 128.924 58.2351 127.803C60.575 126.682 60.7738 124.901 62.2321 124.238C63.6903 123.574 64.9357 123.574 64.3333 124.253C63.7309 124.931 61.092 125.593 60.2585 127.072C59.4249 128.55 58.6759 129.544 61.0961 129.179C63.5163 128.815 67.4512 127.043 67.6235 125.013C67.6318 124.924 67.6384 124.84 67.6459 124.759C67.6497 124.844 67.6421 124.93 67.6235 125.013C68.1289 125.103 69.1779 126.033 69.9352 126.762C70.052 126.89 70.2243 127.061 70.4704 127.29C70.5632 127.383 70.6361 127.462 70.6983 127.521C72.2294 129.204 73.0787 132.825 73.0787 132.825Z" fill="#82B378"/>
<path d="M79.8158 117.931C79.8158 117.931 74.3474 114.863 76.8985 110.704C76.8985 110.704 78.9409 108.148 81.1291 107.492C81.1291 107.492 79.9625 113.697 81.1291 113.843C82.2957 113.989 81.932 106.835 81.932 106.835C81.932 106.835 87.6946 104.061 89.9558 104.279C89.9558 104.279 86.3813 110.339 87.5529 110.193C88.7245 110.047 92.7323 103.915 92.7323 103.915C92.7323 103.915 98.6415 102.819 99.5894 106.319C100.537 109.819 99.0094 111.576 98.1303 111.792C97.2512 112.007 91.6377 111.938 91.7844 112.667C91.931 113.397 95.7234 114.565 97.8387 113.911C97.8387 113.911 95.5046 119.678 92.4406 119.384C89.3766 119.089 88.4287 117.194 86.5313 117.048C84.6339 116.902 83.2486 117.413 84.1973 117.923C85.146 118.434 88.3558 118.089 89.887 119.394C91.4182 120.699 92.6593 121.5 89.8141 122.085C86.9688 122.67 81.8599 122.304 80.8416 120.114L79.8158 117.931Z" fill="#A8D29F"/>
<path d="M96.8866 107.419C96.8866 107.419 81.5665 112.383 79.8183 117.931C79.8183 117.931 79.8912 120.413 78.36 123.26C78.36 123.26 75.997 126.85 77.3442 131.22L77.9515 131.054C77.9515 131.054 77.4204 126.718 78.423 124.207C78.4644 124.115 78.5241 123.981 78.5987 123.818C78.7801 123.462 78.9019 123.201 78.9798 123.011C79.5258 121.889 80.3146 120.425 80.8399 120.118C80.8374 120.122 77.4088 115.303 96.8866 107.419Z" fill="#82B378"/>
<path d="M71.1119 113.703C71.1119 113.703 78.3203 109.661 74.9588 104.176C74.9588 104.176 72.266 100.808 69.381 99.9412C69.381 99.9412 70.9196 108.121 69.381 108.316C67.8424 108.511 68.3229 99.0781 68.3229 99.0781C68.3229 99.0781 60.7267 95.4214 57.7455 95.71C57.7455 95.71 62.4576 103.697 60.9189 103.504C59.3803 103.311 54.0916 95.2291 54.0916 95.2291C54.0916 95.2291 46.3032 93.7855 45.0529 98.404C43.8026 103.022 45.8218 105.333 46.9759 105.618C48.1301 105.902 55.5341 105.81 55.3444 106.772C55.1546 107.734 50.1518 109.274 47.3629 108.408C47.3629 108.408 50.4401 116.011 54.4785 115.622C58.5169 115.233 59.7672 112.735 62.267 112.542C64.7668 112.35 66.5937 113.023 65.3443 113.697C64.0948 114.371 59.8625 113.918 57.8433 115.636C55.8241 117.354 54.1894 118.412 57.9394 119.182C61.6895 119.952 68.4215 119.471 69.7671 116.584L71.1119 113.703Z" fill="#A8D29F"/>
<path d="M73.0348 120.727C71.0156 116.974 71.1117 113.702 71.1117 113.702C68.8042 106.388 48.6106 99.8443 48.6106 99.8443C74.2851 110.238 69.7645 116.589 69.7645 116.589C70.4564 116.993 71.4945 118.919 72.2146 120.397C72.3165 120.646 72.4789 120.996 72.72 121.469C72.8177 121.683 72.8965 121.857 72.9503 121.98C74.2727 125.287 73.5759 131.009 73.5759 131.009L74.3771 131.224C76.1494 125.46 73.0348 120.727 73.0348 120.727Z" fill="#82B378"/>
<path d="M57.2276 129.576C57.2074 131.445 57.5579 133.3 58.2587 135.033C58.9596 136.766 59.997 138.343 61.3108 139.672C62.6246 141.001 64.1888 142.056 65.9128 142.776C67.6368 143.496 69.4864 143.867 71.3545 143.867C73.2227 143.867 75.0723 143.496 76.7963 142.776C78.5203 142.056 80.0845 141.001 81.3983 139.672C82.7121 138.343 83.7495 136.766 84.4503 135.033C85.1512 133.3 85.5017 131.445 85.4814 129.576H57.2276Z" fill="#ED7D2B"/>
<path d="M66.5265 129.576C66.5265 134.873 67.795 140.267 72.1035 142.689C72.8194 143.091 75.2172 142.655 76.0044 142.93C78.7727 141.963 81.1722 140.159 82.8704 137.767C84.5686 135.375 85.4813 132.514 85.4822 129.58L66.5265 129.576Z" fill="#F99746"/>
<path d="M71.3554 143.713C71.9296 143.785 69.0354 143.713 69.6337 143.713C73.3803 143.713 76.9736 142.224 79.6229 139.572C82.2722 136.921 83.7605 133.325 83.7605 129.576H80.2508C80.2508 136.79 78.3294 142.848 71.3554 143.713Z" fill="#FFB176"/>
<path d="M57.0328 144.434H85.677C85.6776 144.205 85.633 143.978 85.5458 143.766C85.4586 143.554 85.3305 143.362 85.1689 143.2C85.0072 143.038 84.8152 142.909 84.6039 142.821C84.3925 142.733 84.1659 142.688 83.937 142.688H58.7753C58.5462 142.688 58.3194 142.733 58.1077 142.82C57.8961 142.908 57.7038 143.037 57.5419 143.199C57.38 143.361 57.2517 143.554 57.1643 143.765C57.077 143.977 57.0323 144.204 57.0328 144.434Z" fill="#ED7D2B"/>
<path d="M70.4539 144.434H85.677C85.6776 144.205 85.633 143.978 85.5458 143.766C85.4586 143.554 85.3305 143.362 85.1689 143.2C85.0072 143.038 84.8152 142.909 84.6039 142.821C84.3925 142.733 84.1659 142.688 83.937 142.688H72.1963C71.9673 142.688 71.7404 142.733 71.5287 142.82C71.3171 142.908 71.1248 143.037 70.9629 143.199C70.801 143.361 70.6727 143.554 70.5854 143.765C70.498 143.977 70.4533 144.204 70.4539 144.434Z" fill="#F99746"/>
<path d="M56.907 130.01H85.9471V129.576H56.907V130.01Z" fill="#DB6A1F"/>
<path d="M141.707 105.911H109.051C107.906 105.911 106.978 106.84 106.978 107.986V113.515C106.978 114.66 107.906 115.589 109.051 115.589H141.707C142.852 115.589 143.78 114.66 143.78 113.515V107.986C143.78 106.84 142.852 105.911 141.707 105.911Z" fill="#F99746"/>
<path d="M143.78 112.508V113.513C143.779 114.062 143.56 114.588 143.172 114.977C142.784 115.365 142.258 115.584 141.709 115.586H109.051C108.502 115.584 107.976 115.365 107.588 114.977C107.2 114.588 106.981 114.062 106.979 113.513V112.424H143.187C143.388 112.424 143.588 112.452 143.78 112.508Z" fill="#ED7D2B"/>
<path d="M114.838 115.586L113.367 121.166L107.235 144.39H106.591L110.133 125.122C110.133 125.103 110.141 125.084 110.144 125.063L111.897 115.535L114.838 115.586Z" fill="#E8C6A7"/>
<path d="M114.838 115.586L113.367 121.166C113.284 121.208 110.602 122.594 110.148 125.063L111.9 115.535L114.838 115.586Z" fill="#C69D7B"/>
<path d="M143.78 144.395H143.136L138.143 125.476L137.008 121.175L135.535 115.594L138.476 115.545L139.479 120.993L140.228 125.073C140.228 125.094 140.237 125.113 140.24 125.132L143.78 144.395Z" fill="#E8C6A7"/>
<path d="M133.827 122.897C133.827 122.897 133.82 122.897 133.816 122.891C133.802 122.866 133.805 122.871 133.827 122.897Z" fill="#E8C6A7"/>
<path d="M139.477 120.988C138.934 121.778 138.186 123.263 138.143 125.473L137.008 121.171L135.535 115.591L138.476 115.541L139.477 120.988Z" fill="#C69D7B"/>
<path d="M105.599 36.4204C104.669 40.815 103.355 44.8248 101.657 48.4176C101.58 48.5834 101.502 48.7493 101.421 48.9093C101.381 48.9922 101.338 49.0751 101.3 49.158C101.199 49.3648 101.095 49.5696 100.99 49.7725C100.934 49.8819 100.878 49.9905 100.824 50.0992C100.722 50.2948 100.618 50.4889 100.512 50.6796C100.407 50.8703 100.299 51.0676 100.189 51.26C100.002 51.5917 99.8102 51.9192 99.6141 52.2425C99.5769 52.3047 99.5396 52.3669 99.5006 52.4283C99.3987 52.5941 99.296 52.7599 99.1899 52.9258C99.151 52.9896 99.1071 53.0535 99.069 53.1165C98.9668 53.2762 98.8632 53.4352 98.7582 53.5933C98.7027 53.6762 98.6456 53.7591 98.5884 53.847C98.4862 53.9996 98.3826 54.1507 98.2777 54.3005C98.2224 54.3818 98.1653 54.4631 98.1062 54.5443C98.1009 54.5524 98.0951 54.5602 98.0888 54.5675C97.9877 54.7129 97.8841 54.8566 97.7781 54.9987C97.7391 55.0543 97.6952 55.1098 97.6571 55.1645C97.5543 55.3038 97.4508 55.442 97.3464 55.5791C97.2909 55.6529 97.2345 55.7259 97.1807 55.7989C97.0788 55.9324 96.9752 56.0642 96.8691 56.196C96.7631 56.3279 96.652 56.468 96.5377 56.6015C96.4234 56.735 96.3322 56.8502 96.227 56.9746C96.1508 57.0658 96.0734 57.1562 95.995 57.2458C95.9894 57.2533 95.9833 57.2605 95.9768 57.2673L95.9337 57.3171C95.8318 57.4356 95.7282 57.5525 95.623 57.6695C95.3976 57.9243 95.1673 58.1747 94.932 58.4207C94.8298 58.5312 94.7262 58.639 94.6213 58.7441C94.3793 58.9928 94.1316 59.2416 93.8805 59.4812C93.7778 59.5818 93.6739 59.6807 93.569 59.778C93.3884 59.9488 93.2044 60.1172 93.0197 60.283L93.0138 60.288C92.9086 60.3825 92.8017 60.477 92.6949 60.5699C92.588 60.6628 92.4885 60.7498 92.3841 60.8369C91.8224 61.3161 91.2443 61.7747 90.65 62.2125C90.5472 62.2893 90.4437 62.365 90.3393 62.4397C89.9139 62.7453 89.4809 63.0408 89.0401 63.326C88.8225 63.4681 88.6015 63.6063 88.3772 63.7406C87.8967 64.0358 87.4067 64.3188 86.9074 64.5897C86.5246 64.7975 86.1379 64.9982 85.7474 65.1917C85.1519 65.4846 84.5443 65.761 83.9246 66.0208C83.8218 66.0645 83.7183 66.1076 83.6139 66.1502C83.4332 66.2237 83.2515 66.2959 83.0687 66.3666C82.8041 66.4694 82.5378 66.5692 82.2699 66.6659C81.6756 66.8804 81.0705 67.08 80.4546 67.2646C80.2367 67.3309 80.0171 67.3939 79.7967 67.4553C78.9483 67.6941 78.0805 67.9047 77.1934 68.0871C76.5145 68.227 75.824 68.3505 75.122 68.4578C73.4569 68.7126 71.779 68.8743 70.0959 68.942C69.8134 68.9544 69.5284 68.9636 69.2425 68.9702C68.826 68.9807 68.4054 68.9859 67.9806 68.9859C67.4714 68.9859 66.959 68.9801 66.4437 68.9685C62.0311 68.8699 57.6374 68.3602 53.3193 67.4462C52.9929 67.3765 52.6672 67.3047 52.3424 67.2306C48.5054 66.3517 44.8084 65.1394 41.4627 63.5823C41.3798 63.5433 41.2928 63.4993 41.2091 63.4637C40.3673 63.0668 39.5492 62.6472 38.7549 62.205C29.9449 57.303 24.3861 49.6846 26.8138 39.1972C30.587 22.8999 53.3525 5.4476 73.6828 1.16744C103.399 -5.0903 110.172 14.8346 105.599 36.4204Z" fill="#EBF3FA"/>
<path d="M89.0343 63.3285C88.8167 63.4706 88.5958 63.6088 88.3715 63.7431C87.8909 64.0383 87.401 64.3213 86.9016 64.5922C86.5188 64.8 86.1322 65.0007 85.7417 65.1942C85.1462 65.4871 84.5386 65.7635 83.9188 66.0233C83.8161 66.067 83.7125 66.1101 83.6081 66.1527C83.4275 66.2262 83.2458 66.2983 83.0629 66.3691H71.599C71.4928 66.3694 71.3882 66.3438 71.2941 66.2945C71.1963 66.2436 71.1127 66.1691 71.051 66.0777C70.9892 65.9864 70.9512 65.881 70.9403 65.7713V65.7414V63.9562C70.9494 63.7865 71.0233 63.6268 71.1466 63.51C71.2699 63.3933 71.4334 63.3283 71.6032 63.3285H89.0343Z" fill="#FFB93E"/>
<path d="M83.918 63.3285V66.025C83.8153 66.0687 83.7117 66.1118 83.6073 66.1543V63.3285H83.918Z" fill="#FFA412"/>
<path d="M81.2965 63.3285H80.9857V66.3716H81.2965V63.3285Z" fill="#FFA412"/>
<path d="M93.0139 60.2855L93.0081 60.2905C92.9029 60.385 92.796 60.4795 92.6891 60.5724C92.5822 60.6652 92.4828 60.7523 92.3784 60.8394C91.8166 61.3186 91.2386 61.7771 90.6442 62.2149C90.5415 62.2918 90.4379 62.3675 90.3335 62.4421C89.9082 62.7478 89.4751 63.0433 89.0343 63.3285H72.2544C72.0845 63.3287 71.9209 63.2636 71.7976 63.1467C71.6742 63.0297 71.6005 62.8698 71.5916 62.7C71.5916 62.6892 71.5916 62.6776 71.5916 62.666V60.948C71.5916 60.9364 71.5916 60.9256 71.5916 60.914C71.5997 60.7585 71.6623 60.6107 71.7683 60.4967C71.8744 60.3827 72.0171 60.3097 72.1715 60.2905C72.1976 60.2871 72.2239 60.2855 72.2503 60.2855H93.0139Z" fill="#FFB93E"/>
<path d="M92.6891 60.2855V60.5724C92.5864 60.6628 92.4828 60.7523 92.3784 60.8394V60.2855H92.6891Z" fill="#FFA412"/>
<path d="M90.6442 60.2855V62.215C90.5415 62.2918 90.4379 62.3675 90.3335 62.4422V60.2863L90.6442 60.2855Z" fill="#FFA412"/>
<path d="M87.5081 60.2855H87.1974V63.3285H87.5081V60.2855Z" fill="#FFA412"/>
<path d="M84.5725 60.2855H84.2618V63.3285H84.5725V60.2855Z" fill="#FFA412"/>
<path d="M81.9518 60.2855H81.6411V63.3285H81.9518V60.2855Z" fill="#FFA412"/>
<path d="M94.9262 57.2482V58.4232C95.1615 58.1766 95.3918 57.9262 95.6172 57.6719V57.2482H94.9262ZM94.9262 57.2482V58.4232C95.1615 58.1766 95.3918 57.9262 95.6172 57.6719C95.7224 57.555 95.826 57.4381 95.9279 57.3195L95.971 57.2698C95.9775 57.263 95.9836 57.2558 95.9892 57.2482H94.9262ZM94.9262 57.2482V58.4232C95.1615 58.1766 95.3918 57.9262 95.6172 57.6719C95.7224 57.555 95.826 57.4381 95.9279 57.3195L95.971 57.2698C95.9775 57.263 95.9836 57.2558 95.9892 57.2482H94.9262ZM94.9262 57.2482V58.4232C95.1615 58.1766 95.3918 57.9262 95.6172 57.6719C95.7224 57.555 95.826 57.4381 95.9279 57.3195L95.971 57.2698C95.9775 57.263 95.9836 57.2558 95.9892 57.2482H94.9262ZM94.9262 57.2482V58.4232C95.1615 58.1766 95.3918 57.9262 95.6172 57.6719C95.7224 57.555 95.826 57.4381 95.9279 57.3195L95.971 57.2698C95.9775 57.263 95.9836 57.2558 95.9892 57.2482H94.9262ZM94.9262 57.2482V58.4232C95.1615 58.1766 95.3918 57.9262 95.6172 57.6719C95.7224 57.555 95.826 57.4381 95.9279 57.3195L95.971 57.2698C95.9775 57.263 95.9836 57.2558 95.9892 57.2482H94.9262ZM94.9262 57.2482V58.4232C95.1615 58.1766 95.3918 57.9262 95.6172 57.6719V57.2482H94.9262ZM70.2434 57.2482C70.1952 57.248 70.1471 57.2533 70.1001 57.264H70.0802C69.9567 57.2955 69.8448 57.3621 69.7581 57.4556C69.6714 57.5491 69.6135 57.6657 69.5913 57.7913C69.5913 57.8088 69.5864 57.8262 69.5847 57.8444V57.8718C69.5847 57.8834 69.5847 57.8942 69.5847 57.9058V59.6238C69.5847 59.6354 69.5847 59.647 69.5847 59.6578C69.5852 59.6731 69.5866 59.6883 69.5889 59.7034C69.5929 59.7333 69.5987 59.7629 69.6063 59.7921C69.6429 59.9342 69.7256 60.06 69.8413 60.15C69.957 60.2401 70.0993 60.2892 70.2459 60.2896H93.0105L93.0163 60.2847C93.2011 60.1188 93.385 59.953 93.5657 59.7797C93.6706 59.6818 93.7745 59.5829 93.8772 59.4828C94.1258 59.2424 94.3743 58.9961 94.6179 58.7457C94.7229 58.639 94.8264 58.5312 94.9286 58.4223C95.1639 58.1758 95.3943 57.9254 95.6197 57.6711C95.7249 57.5542 95.8285 57.4373 95.9304 57.3187L95.9734 57.269C95.98 57.2622 95.9861 57.255 95.9917 57.2474L70.2434 57.2482Z" fill="#FFB93E"/>
<path d="M84.8244 60.2905H70.1722C69.8574 60.2905 69.5988 60.011 69.5823 59.6628C69.5823 59.6512 69.5823 59.6396 69.5823 59.6288V57.9099C69.5823 57.8991 69.5823 57.8875 69.5823 57.8759C69.5823 57.8643 69.5823 57.8577 69.5823 57.8486C69.5902 57.7165 69.6383 57.5901 69.7203 57.4863C69.8022 57.3825 69.914 57.3064 70.0405 57.2681L70.0662 57.2623C70.1006 57.2557 70.1355 57.2523 70.1706 57.2524H83.0215C83.0215 57.259 83.0215 57.2665 83.0273 57.2739C83.2344 58.1661 83.7125 59.3892 84.8153 60.2896L84.8244 60.2905Z" fill="#FFA412"/>
<path d="M94.9262 57.2482V58.4232C94.824 58.5337 94.7204 58.6415 94.6155 58.7466V57.2482H94.9262Z" fill="#FFA412"/>
<path d="M93.8756 57.2482V59.487C93.7729 59.5876 93.669 59.6866 93.5641 59.7838V57.2482H93.8756Z" fill="#FFA412"/>
<path d="M92.612 57.2482H92.3013V60.2913H92.612V57.2482Z" fill="#FFA412"/>
<path d="M90.6781 57.2482H90.3674V60.2913H90.6781V57.2482Z" fill="#FFA412"/>
<path d="M88.6333 57.2482H88.3226V60.2913H88.6333V57.2482Z" fill="#FFA412"/>
<path d="M85.4981 57.2482H85.1874V60.2913H85.4981V57.2482Z" fill="#FFA412"/>
<path d="M82.5624 57.2482H82.2517V60.2913H82.5624V57.2482Z" fill="#FFA412"/>
<path d="M79.9408 57.2482H79.6301V60.2913H79.9408V57.2482Z" fill="#FFA412"/>
<path d="M95.9279 57.2482V57.3196C95.826 57.4381 95.7224 57.555 95.6172 57.672V57.2482H95.9279Z" fill="#FFA412"/>
<path d="M95.971 54.3022V54.2276H95.8707V57.2491H95.9892C96.0677 57.1595 96.145 57.0691 96.2212 56.9779C96.3262 56.8541 96.4297 56.7297 96.5319 56.6048V54.3022H95.971ZM98.0838 54.5195C98.0656 54.493 98.0456 54.4678 98.0242 54.444L98.0184 54.4382L98.0134 54.4324C98.0084 54.4266 98.0026 54.4216 97.9976 54.4166L97.9761 54.3967L97.9546 54.3777C97.9396 54.3652 97.9239 54.3536 97.9073 54.342C97.8859 54.3272 97.8635 54.3139 97.8402 54.3022L97.8079 54.2856L97.7913 54.2782L97.7739 54.2715C97.7349 54.2561 97.6943 54.2447 97.653 54.2375H97.6439H97.6356H97.6231H97.6107H97.5867C97.5698 54.2367 97.553 54.2367 97.5361 54.2375H70.1863C70.0164 54.2373 69.8528 54.3024 69.7295 54.4194C69.6061 54.5363 69.5324 54.6962 69.5234 54.866C69.5234 54.8768 69.5234 54.8884 69.5234 54.9V56.6073C69.5234 56.6189 69.5234 56.6297 69.5234 56.6413C69.5234 56.6529 69.5234 56.6811 69.5284 56.701C69.5484 56.8385 69.6111 56.9663 69.7076 57.0663C69.804 57.1663 69.9295 57.2334 70.0661 57.2582L70.0985 57.264C70.1259 57.2675 70.1536 57.2694 70.1813 57.2698H95.966C95.9726 57.263 95.9787 57.2558 95.9842 57.2482C96.0627 57.1587 96.14 57.0683 96.2162 56.9771C96.3212 56.8533 96.4248 56.7289 96.527 56.604C96.638 56.4705 96.7474 56.3345 96.8584 56.1985C96.9694 56.0625 97.068 55.9348 97.1699 55.8013C97.2279 55.7284 97.2843 55.6554 97.3356 55.5816C97.44 55.4445 97.5436 55.3063 97.6463 55.167C97.6878 55.1123 97.7292 55.0568 97.7673 55.0012C97.8734 54.8586 97.9769 54.7149 98.078 54.57C98.0843 54.5627 98.0902 54.5549 98.0954 54.5468L98.0838 54.5195ZM95.971 54.3022V54.2276H95.8707V57.2491H95.9892C96.0677 57.1595 96.145 57.0691 96.2212 56.9779C96.3262 56.8541 96.4297 56.7297 96.5319 56.6048V54.3022H95.971Z" fill="#FFB93E"/>
<path d="M84.7673 57.2698H70.1151H70.0803C70.0676 57.2707 70.0549 57.2707 70.0422 57.2698C69.7613 57.2317 69.5392 56.9688 69.5251 56.6471C69.5251 56.6355 69.5251 56.6247 69.5251 56.6131V54.8909C69.5251 54.8793 69.5251 54.8677 69.5251 54.8569C69.5409 54.5078 69.8002 54.2284 70.1151 54.2284H82.9677L82.9851 54.3039C83.198 55.1853 83.6744 56.3685 84.7408 57.2499L84.7673 57.2698Z" fill="#FFA412"/>
<path d="M94.8691 54.2268H94.5583V57.269H94.8691V54.2268Z" fill="#FFA412"/>
<path d="M93.8168 54.2268H93.5061V57.269H93.8168V54.2268Z" fill="#FFA412"/>
<path d="M92.5549 54.2268H92.2441V57.269H92.5549V54.2268Z" fill="#FFA412"/>
<path d="M90.621 54.2268H90.3103V57.269H90.621V54.2268Z" fill="#FFA412"/>
<path d="M88.5754 54.2268H88.2646V57.269H88.5754V54.2268Z" fill="#FFA412"/>
<path d="M85.44 54.2268H85.1293V57.269H85.44V54.2268Z" fill="#FFA412"/>
<path d="M82.5044 54.2268H82.1937V57.269H82.5044V54.2268Z" fill="#FFA412"/>
<path d="M79.8837 54.2268H79.573V57.269H79.8837V54.2268Z" fill="#FFA412"/>
<path d="M95.8699 54.2268H95.5592V57.269H95.8699V54.2268Z" fill="#FFA412"/>
<path d="M96.5319 54.2276V56.6048C96.4297 56.7297 96.3261 56.8541 96.2212 56.9779V54.2276H96.5319Z" fill="#FFA412"/>
<path d="M97.1715 54.2276V55.803C97.0696 55.9365 96.966 56.0683 96.86 56.2002V54.2276H97.1715Z" fill="#FFA412"/>
<path d="M97.6521 54.2375V55.167C97.5494 55.3063 97.4458 55.4445 97.3414 55.5816V54.2276H97.5353C97.5522 54.2267 97.569 54.2267 97.5859 54.2276H97.6099H97.6223H97.6347H97.643L97.6521 54.2375Z" fill="#FFA412"/>
<path d="M99.6101 51.9217V52.2417C99.5728 52.3039 99.5355 52.3661 99.4966 52.4275C99.3947 52.5933 99.2919 52.7591 99.1859 52.925C99.1469 52.9888 99.103 53.0527 99.0649 53.1157C98.9627 53.2754 98.8591 53.4343 98.7542 53.5924C98.6987 53.6754 98.6415 53.7583 98.5843 53.8462C98.4821 53.9987 98.3786 54.1499 98.2736 54.2997H71.599C71.4682 54.2994 71.3404 54.2603 71.2317 54.1874C71.1231 54.1145 71.0384 54.0111 70.9884 53.8901C70.9626 53.83 70.9464 53.7662 70.9403 53.7011V53.6712V51.8877C70.9442 51.812 70.9613 51.7377 70.9908 51.6679C71.041 51.5471 71.1258 51.4439 71.2344 51.3711C71.3431 51.2984 71.4708 51.2594 71.6015 51.2592H98.9506C98.9898 51.2589 99.0289 51.2625 99.0674 51.2699C99.1088 51.2769 99.1494 51.2882 99.1884 51.3039C99.3149 51.353 99.4234 51.4399 99.4991 51.5527C99.5725 51.6616 99.6112 51.7903 99.6101 51.9217Z" fill="#FFB93E"/>
<path d="M86.18 54.3022H71.5278C71.4321 54.3022 71.3382 54.2765 71.256 54.2276C71.1655 54.1718 71.0897 54.0953 71.0348 54.0043C70.9799 53.9133 70.9475 53.8104 70.9403 53.7044V53.6745C70.9403 53.6629 70.9403 53.6521 70.9403 53.6405V51.9217C70.9403 51.9101 70.9403 51.8984 70.9403 51.8877C70.9569 51.5386 71.2162 51.2592 71.5302 51.2592H84.3803C84.58 52.1306 85.0382 53.3263 86.0897 54.2267L86.18 54.3022Z" fill="#FFA412"/>
<path d="M96.2817 51.2592H95.9709V54.3022H96.2817V51.2592Z" fill="#FFA412"/>
<path d="M95.2294 51.2592H94.9187V54.3022H95.2294V51.2592Z" fill="#FFA412"/>
<path d="M93.9676 51.2592H93.6569V54.3022H93.9676V51.2592Z" fill="#FFA412"/>
<path d="M92.0337 51.2592H91.723V54.3022H92.0337V51.2592Z" fill="#FFA412"/>
<path d="M89.9888 51.2592H89.6781V54.3022H89.9888V51.2592Z" fill="#FFA412"/>
<path d="M86.8535 51.2592H86.5428V54.3022H86.8535V51.2592Z" fill="#FFA412"/>
<path d="M83.918 51.2592H83.6073V54.3022H83.918V51.2592Z" fill="#FFA412"/>
<path d="M81.2965 51.2592H80.9857V54.3022H81.2965V51.2592Z" fill="#FFA412"/>
<path d="M97.2835 51.2592H96.9728V54.3022H97.2835V51.2592Z" fill="#FFA412"/>
<path d="M97.9455 51.2592H97.6348V54.3022H97.9455V51.2592Z" fill="#FFA412"/>
<path d="M98.5843 51.2592V53.847C98.4821 53.9996 98.3785 54.1507 98.2736 54.3005V51.2592H98.5843Z" fill="#FFA412"/>
<path d="M99.0649 51.2699V53.1165C98.9627 53.2762 98.8591 53.4352 98.7542 53.5933V51.2592H98.948C98.9872 51.2589 99.0264 51.2625 99.0649 51.2699Z" fill="#FFA412"/>
<path d="M99.4965 51.5519V52.4275C99.3946 52.5933 99.2918 52.7591 99.1858 52.925V51.3039C99.3123 51.3528 99.4207 51.4394 99.4965 51.5519Z" fill="#FFA412"/>
<path d="M101.657 48.4176C101.58 48.5834 101.502 48.7493 101.421 48.9093C101.381 48.9922 101.338 49.0751 101.3 49.1581C101.199 49.3648 101.095 49.5696 100.99 49.7725C100.934 49.8819 100.878 49.9905 100.824 50.0992C100.722 50.2949 100.618 50.4889 100.512 50.6796C100.407 50.8703 100.299 51.0676 100.189 51.26H73.8411C73.6711 51.2603 73.5076 51.1952 73.3842 51.0782C73.2609 50.9612 73.1871 50.8013 73.1782 50.6315C73.1782 50.6207 73.1782 50.6091 73.1782 50.5975V48.8786C73.1782 48.867 73.1782 48.8562 73.1782 48.8446C73.1864 48.6891 73.2489 48.5414 73.355 48.4274C73.461 48.3134 73.6038 48.2403 73.7582 48.2211C73.7857 48.2176 73.8134 48.2159 73.8411 48.2161H101.183C101.223 48.2163 101.262 48.2199 101.3 48.2269C101.342 48.2344 101.382 48.2458 101.421 48.2609L101.456 48.2758C101.465 48.2793 101.473 48.2834 101.481 48.2882C101.504 48.2993 101.527 48.3123 101.548 48.3272L101.575 48.3463L101.584 48.3529L101.605 48.3695C101.624 48.3844 101.641 48.4005 101.657 48.4176Z" fill="#FFB93E"/>
<path d="M88.4145 51.2592H73.7632C73.4483 51.2592 73.189 50.9797 73.1732 50.6315C73.1732 50.6199 73.1732 50.6083 73.1732 50.5967V48.8786C73.1732 48.867 73.1732 48.8562 73.1732 48.8446C73.1873 48.5229 73.411 48.2592 73.6927 48.2211C73.716 48.2178 73.7396 48.2161 73.7632 48.2161H86.6157C86.6157 48.2161 86.6157 48.2161 86.6157 48.2211C86.8229 49.1166 87.301 50.3529 88.4145 51.2592Z" fill="#FFA412"/>
<path d="M98.5171 48.2169H98.2064V51.26H98.5171V48.2169Z" fill="#FFA412"/>
<path d="M97.4649 48.2169H97.1542V51.26H97.4649V48.2169Z" fill="#FFA412"/>
<path d="M96.203 48.2169H95.8923V51.26H96.203V48.2169Z" fill="#FFA412"/>
<path d="M94.2691 48.2169H93.9584V51.26H94.2691V48.2169Z" fill="#FFA412"/>
<path d="M92.2234 48.2169H91.9127V51.26H92.2234V48.2169Z" fill="#FFA412"/>
<path d="M89.0882 48.2169H88.7775V51.26H89.0882V48.2169Z" fill="#FFA412"/>
<path d="M86.1526 48.2169H85.8419V51.26H86.1526V48.2169Z" fill="#FFA412"/>
<path d="M83.5319 48.2169H83.2212V51.26H83.5319V48.2169Z" fill="#FFA412"/>
<path d="M99.5188 48.2169H99.2081V51.26H99.5188V48.2169Z" fill="#FFA412"/>
<path d="M100.18 48.2169H99.8694V51.26H100.18V48.2169Z" fill="#FFA412"/>
<path d="M100.82 48.2169V50.0975C100.718 50.2932 100.613 50.4872 100.508 50.6779V48.2153L100.82 48.2169Z" fill="#FFA412"/>
<path d="M101.3 48.2269V49.1564C101.199 49.3631 101.095 49.5679 100.99 49.7708V48.2161H101.184C101.223 48.2163 101.262 48.2199 101.3 48.2269Z" fill="#FFA412"/>
<path d="M101.657 48.4176C101.58 48.5834 101.502 48.7493 101.421 48.9093V48.2576L101.456 48.2725C101.465 48.276 101.473 48.2801 101.481 48.2849C101.504 48.296 101.527 48.309 101.548 48.3239L101.575 48.343L101.584 48.3496L101.605 48.3662C101.624 48.3822 101.641 48.3994 101.657 48.4176Z" fill="#FFA412"/>
<path d="M98.2545 45.8405V47.5594C98.2541 47.693 98.2134 47.8234 98.1377 47.9335C98.062 48.0436 97.9548 48.1282 97.8302 48.1763C97.7913 48.1922 97.7507 48.2036 97.7093 48.2103C97.6967 48.213 97.684 48.2149 97.6712 48.2161H97.6397H70.2434C70.0736 48.2164 69.9102 48.1514 69.7869 48.0346C69.6635 47.9178 69.5897 47.7581 69.5806 47.5884C69.5806 47.5768 69.5806 47.5652 69.5806 47.5544V45.8405C69.5806 45.8298 69.5806 45.8182 69.5806 45.8065C69.5897 45.6369 69.6635 45.4772 69.7869 45.3604C69.9102 45.2436 70.0736 45.1786 70.2434 45.1789H97.6272C97.655 45.1804 97.6827 45.1837 97.7101 45.1888C97.7516 45.1956 97.7921 45.207 97.8311 45.2228C97.8505 45.2301 97.8696 45.2384 97.8882 45.2477L97.9222 45.2668H97.9263L97.9595 45.2875H97.9653L97.9943 45.309C98.0179 45.3263 98.04 45.3454 98.0606 45.3663L98.0788 45.3862L98.0904 45.3986C98.0972 45.4062 98.1036 45.4143 98.1095 45.4226C98.1186 45.4342 98.1277 45.4459 98.136 45.4583C98.2139 45.5705 98.2552 45.704 98.2545 45.8405Z" fill="#FFB93E"/>
<path d="M84.8244 48.2211H70.1722C69.8574 48.2211 69.5988 47.9417 69.5823 47.5934C69.5823 47.5818 69.5823 47.5702 69.5823 47.5594V45.8405C69.5823 45.8298 69.5823 45.8182 69.5823 45.8065C69.5988 45.4583 69.8574 45.1789 70.1722 45.1789H83.0215C83.0273 45.2021 83.0323 45.2253 83.0389 45.2485C83.2518 46.1366 83.7324 47.3322 84.8153 48.2161L84.8244 48.2211Z" fill="#FFA412"/>
<path d="M94.9262 45.1789H94.6155V48.2219H94.9262V45.1789Z" fill="#FFA412"/>
<path d="M93.8739 45.1789H93.5632V48.2219H93.8739V45.1789Z" fill="#FFA412"/>
<path d="M92.612 45.1789H92.3013V48.2219H92.612V45.1789Z" fill="#FFA412"/>
<path d="M90.6781 45.1789H90.3674V48.2219H90.6781V45.1789Z" fill="#FFA412"/>
<path d="M88.6333 45.1789H88.3226V48.2219H88.6333V45.1789Z" fill="#FFA412"/>
<path d="M85.4981 45.1789H85.1874V48.2219H85.4981V45.1789Z" fill="#FFA412"/>
<path d="M82.5624 45.1789H82.2517V48.2219H82.5624V45.1789Z" fill="#FFA412"/>
<path d="M79.9408 45.1789H79.6301V48.2219H79.9408V45.1789Z" fill="#FFA412"/>
<path d="M95.9279 45.1789H95.6172V48.2219H95.9279V45.1789Z" fill="#FFA412"/>
<path d="M96.5891 45.1789H96.2784V48.2219H96.5891V45.1789Z" fill="#FFA412"/>
<path d="M97.2288 45.1789H96.9181V48.2219H97.2288V45.1789Z" fill="#FFA412"/>
<path d="M97.7093 45.1897V48.2103C97.6708 48.2177 97.6316 48.2213 97.5924 48.2211H97.3986V45.1789H97.5924C97.6316 45.1787 97.6708 45.1823 97.7093 45.1897Z" fill="#FFA412"/>
<path d="M98.141 45.4707V47.9259C98.0654 48.0387 97.9569 48.1255 97.8303 48.1747V45.2236C97.9567 45.2723 98.0651 45.3585 98.141 45.4707Z" fill="#FFA412"/>
<path d="M100.265 42.868V44.586C100.265 44.7178 100.225 44.8465 100.152 44.9558C100.102 45.0293 100.039 45.0921 99.9646 45.1405C99.8904 45.1889 99.8074 45.222 99.7202 45.2378C99.6817 45.2444 99.6426 45.2478 99.6034 45.2477H72.2544C72.1517 45.248 72.0504 45.2241 71.9586 45.178C71.8579 45.1278 71.7717 45.0527 71.7081 44.9598C71.6445 44.867 71.6055 44.7595 71.5948 44.6474C71.5948 44.6383 71.5948 44.6291 71.5948 44.62C71.5948 44.6109 71.5948 44.5976 71.5948 44.586V42.868C71.5948 42.8564 71.5948 42.8448 71.5948 42.8332C71.6032 42.6778 71.6658 42.5303 71.7719 42.4164C71.8779 42.3026 72.0205 42.2297 72.1748 42.2105C72.2009 42.2071 72.2272 42.2054 72.2535 42.2055H99.6026C99.6839 42.2058 99.7645 42.221 99.8404 42.2502C99.967 42.2994 100.075 42.3862 100.151 42.499C100.225 42.6078 100.265 42.7364 100.265 42.868Z" fill="#FFB93E"/>
<path d="M86.8329 45.2485H72.1831C72.0907 45.2485 71.9999 45.2245 71.9196 45.1789C71.8266 45.1233 71.7485 45.046 71.6919 44.9536C71.6354 44.8611 71.6021 44.7563 71.5948 44.6482C71.5948 44.6391 71.5948 44.63 71.5948 44.6208C71.5948 44.6117 71.5948 44.5984 71.5948 44.5868V42.868C71.5948 42.8564 71.5948 42.8448 71.5948 42.8332C71.6098 42.5114 71.8326 42.2478 72.1152 42.2105C72.1382 42.2071 72.1615 42.2054 72.1848 42.2055H85.0374C85.0378 42.2071 85.0378 42.2088 85.0374 42.2105C85.2379 43.0827 85.7002 44.2784 86.7517 45.178C86.7782 45.2021 86.8063 45.2261 86.8329 45.2485Z" fill="#FFA412"/>
<path d="M96.9371 42.2063H96.6263V45.2486H96.9371V42.2063Z" fill="#FFA412"/>
<path d="M95.8848 42.2063H95.5741V45.2486H95.8848V42.2063Z" fill="#FFA412"/>
<path d="M94.623 42.2063H94.3123V45.2486H94.623V42.2063Z" fill="#FFA412"/>
<path d="M92.6891 42.2063H92.3784V45.2486H92.6891V42.2063Z" fill="#FFA412"/>
<path d="M90.6442 42.2063H90.3335V45.2486H90.6442V42.2063Z" fill="#FFA412"/>
<path d="M87.5081 42.2063H87.1974V45.2486H87.5081V42.2063Z" fill="#FFA412"/>
<path d="M84.5725 42.2063H84.2618V45.2486H84.5725V42.2063Z" fill="#FFA412"/>
<path d="M81.9518 42.2063H81.6411V45.2486H81.9518V42.2063Z" fill="#FFA412"/>
<path d="M97.9389 42.2063H97.6282V45.2486H97.9389V42.2063Z" fill="#FFA412"/>
<path d="M98.6 42.2063H98.2893V45.2486H98.6V42.2063Z" fill="#FFA412"/>
<path d="M99.2388 42.2063H98.9281V45.2486H99.2388V42.2063Z" fill="#FFA412"/>
<path d="M99.7202 42.2171V45.2386C99.6816 45.2452 99.6426 45.2486 99.6034 45.2485H99.4087V42.2046H99.6034C99.6426 42.205 99.6818 42.2092 99.7202 42.2171Z" fill="#FFA412"/>
<path d="M100.152 42.499V44.9567C100.076 45.0695 99.9678 45.1563 99.8412 45.2054V42.2511C99.9677 42.3 100.076 42.3865 100.152 42.499Z" fill="#FFA412"/>
<path d="M98.2545 39.8307V41.5488C98.2542 41.6806 98.2147 41.8093 98.1409 41.9186C98.0914 41.992 98.0277 42.0548 97.9536 42.1032C97.8795 42.1517 97.7964 42.1847 97.7093 42.2005L97.6712 42.2063H97.6496H97.6272H97.5924H70.2434C70.0735 42.2065 69.9099 42.1414 69.7866 42.0245C69.6632 41.9075 69.5895 41.7476 69.5806 41.5778C69.5806 41.5662 69.5806 41.5554 69.5806 41.5438V39.8307C69.5806 39.8191 69.5806 39.8075 69.5806 39.7967C69.5895 39.6269 69.6632 39.467 69.7866 39.35C69.9099 39.2331 70.0735 39.168 70.2434 39.1682H97.5924C97.6316 39.1684 97.6707 39.172 97.7093 39.179C97.7507 39.1861 97.7912 39.1975 97.8302 39.213C97.9567 39.2624 98.065 39.3491 98.1409 39.4617C98.2148 39.5706 98.2543 39.6991 98.2545 39.8307Z" fill="#FFB93E"/>
<path d="M84.8244 42.2112H70.1722C69.8574 42.2112 69.5988 41.931 69.5823 41.5827C69.5823 41.5711 69.5823 41.5603 69.5823 41.5487V39.8307C69.5823 39.8191 69.5823 39.8075 69.5823 39.7967C69.5988 39.4476 69.8574 39.1682 70.1722 39.1682H83.0215C83.227 40.0629 83.7034 41.2983 84.8153 42.2063L84.8244 42.2112Z" fill="#FFA412"/>
<path d="M94.9262 39.1682H94.6155V42.2112H94.9262V39.1682Z" fill="#FFA412"/>
<path d="M93.8739 39.1682H93.5632V42.2112H93.8739V39.1682Z" fill="#FFA412"/>
<path d="M92.612 39.1682H92.3013V42.2112H92.612V39.1682Z" fill="#FFA412"/>
<path d="M90.6781 39.1682H90.3674V42.2112H90.6781V39.1682Z" fill="#FFA412"/>
<path d="M88.6333 39.1682H88.3226V42.2112H88.6333V39.1682Z" fill="#FFA412"/>
<path d="M85.4981 39.1682H85.1874V42.2112H85.4981V39.1682Z" fill="#FFA412"/>
<path d="M82.5624 39.1682H82.2517V42.2112H82.5624V39.1682Z" fill="#FFA412"/>
<path d="M79.9408 39.1682H79.6301V42.2112H79.9408V39.1682Z" fill="#FFA412"/>
<path d="M95.9279 39.1682H95.6172V42.2112H95.9279V39.1682Z" fill="#FFA412"/>
<path d="M96.5891 39.1682H96.2784V42.2112H96.5891V39.1682Z" fill="#FFA412"/>
<path d="M97.2288 39.1682H96.9181V42.2112H97.2288V39.1682Z" fill="#FFA412"/>
<path d="M97.7093 39.179V42.2047C97.6707 42.2116 97.6316 42.2152 97.5924 42.2155H97.3986V39.1724H97.5924C97.6315 39.1708 97.6706 39.173 97.7093 39.179Z" fill="#FFA412"/>
<path d="M98.141 39.4609V41.9186C98.0651 42.0312 97.9567 42.1179 97.8303 42.1673V39.213C97.9566 39.2622 98.065 39.3486 98.141 39.4609Z" fill="#FFA412"/>
<path d="M88.3739 33.505L75.0722 18.6488C73.6388 17.0485 70.9883 18.0626 70.9883 20.2118V57.6463C70.9883 57.6463 88.3739 60.0592 88.3739 57.6463V33.505Z" fill="#ED7D2B"/>
<path d="M65.0641 57.1297L70.8897 56.3834C70.8897 56.3834 70.4025 52.7898 71.2327 47.9367C71.845 44.3513 73.1757 40.0786 75.9506 36.058C80.6825 29.2008 95.401 24.8642 95.401 24.8642L95.3654 24.0035L94.8285 23.9671C94.9894 23.8513 95.1657 23.7584 95.3521 23.691L95.2693 21.6562C94.7007 21.6675 94.1355 21.7465 93.5856 21.8917C94.1349 21.7257 94.6957 21.6007 95.2635 21.5177L95.2187 20.4481C73.6994 21.9157 67.2134 35.228 65.4262 45.3978C64.2811 51.9059 65.0641 57.1297 65.0641 57.1297Z" fill="#82B378"/>
<path d="M39.4004 56.2914L65.0641 57.1297C65.0343 53.1804 65.8927 49.0594 66.761 45.9268C67.2476 44.1376 67.8284 42.3753 68.501 40.6475C75.4608 23.5467 95.2153 20.4514 95.2153 20.4514L72.8144 12.3339C62.2089 13.5776 54.9507 18.9996 49.9943 25.6371C40.2886 38.6392 39.4004 56.2914 39.4004 56.2914Z" fill="#A8D29F"/>
<path opacity="0.5" d="M39.4004 56.2914L65.0641 57.1296L70.8897 56.3834C70.8897 56.3834 70.4025 52.7898 71.2327 47.9367C69.7906 47.1614 68.2954 46.4892 66.7585 45.9251C66.3011 45.7526 65.8559 45.5774 65.4229 45.3994C48.8211 38.548 49.8543 26.7647 49.9943 25.6354C40.2886 38.6392 39.4004 56.2914 39.4004 56.2914Z" fill="#82B378"/>
<path d="M72.7217 13.6439H72.6538C72.4607 13.6439 67.8746 13.7675 62.0971 16.7997C58.7116 18.5775 55.6261 20.9928 52.9275 23.9795C51.8647 25.1582 50.8766 26.4022 49.9687 27.7041C48.9012 29.2352 47.9326 30.8329 47.0687 32.4876C46.6003 33.3826 46.1537 34.3051 45.729 35.2554C45.6917 35.3383 45.6536 35.4212 45.6171 35.5091C45.2956 36.2382 44.9874 36.9823 44.6924 37.7412C44.5781 38.0256 42.6973 42.7693 41.6757 47.6083C41.5671 48.1199 41.4694 48.6323 41.384 49.1415C41.3252 49.4864 41.273 49.8297 41.2274 50.1688C41.1112 51.004 41.0451 51.8455 41.0294 52.6886C41.0236 53.109 41.0352 53.5178 41.0667 53.9034V53.91L41.268 55.9249L41.3111 56.3569L41.3749 56.9995L41.4404 57.6529L41.4636 57.885L41.4934 58.1835L57.7505 57.1919L59.0928 57.1089L59.2477 57.0998L60.1285 57.0467L61.0067 56.9937H61.0109L64.2779 56.7947L64.1793 56.3594C64.166 56.3022 63.0765 51.3014 64.364 44.9417C64.3947 44.7892 64.427 44.6366 64.461 44.4824C64.5632 44.013 64.6792 43.5374 64.809 43.0554C64.9092 42.6839 65.0178 42.3091 65.1363 41.931C65.2628 41.5269 65.3978 41.127 65.5414 40.7312C65.5588 40.6831 65.5762 40.6342 65.5945 40.5861C66.2434 38.8163 67.0669 37.1155 68.0528 35.5091C68.105 35.4262 68.158 35.3391 68.211 35.2545C68.8145 34.294 69.4747 33.3703 70.188 32.4884C70.4465 32.1673 70.7133 31.8508 70.9884 31.539C71.443 31.0211 71.9188 30.5158 72.416 30.0233C73.0368 29.4092 73.6895 28.8155 74.3738 28.2423L74.383 28.2348C76.1746 26.7485 78.1036 25.4364 80.1439 24.3161C80.3221 24.2166 80.5027 24.1188 80.6841 24.0218H80.6891C83.3919 22.5768 86.3945 21.3494 89.6972 20.3395L90.805 20.0012L72.7217 13.6439ZM86.4037 20.6462C84.0666 21.4969 81.7999 22.5299 79.6244 23.7357C76.6576 25.3941 74.0714 27.3152 71.8658 29.4993C71.5648 29.7978 71.2715 30.1018 70.9859 30.4114C70.3606 31.083 69.7707 31.7767 69.2161 32.4926C67.1781 35.1207 65.6041 38.0781 64.5621 41.237C64.5231 41.3506 64.4867 41.465 64.451 41.5794C64.4328 41.6333 64.4154 41.6872 64.3988 41.7453C64.1718 42.4733 63.9779 43.1905 63.8189 43.892C63.7609 44.1385 63.7056 44.3826 63.6531 44.6241C63.5943 44.9052 63.5405 45.1822 63.4874 45.4533C63.0922 47.6536 62.9209 49.8883 62.9762 52.1231C63.0033 53.4535 63.1277 54.7801 63.3482 56.0924L60.0158 56.2947L59.14 56.3478L58.9527 56.3594L57.6395 56.4423L52.8512 56.7341H52.8454L42.1736 57.3784L42.0742 56.3834L41.8207 53.8404C41.7919 53.4838 41.7806 53.1005 41.7867 52.6903C41.8074 51.2807 42.0353 49.5685 42.4553 47.61C42.7097 46.4284 43.0353 45.1565 43.4314 43.8066C44.3743 40.5894 45.3851 38.0497 45.3959 38.0248C45.7273 37.168 46.0767 36.3314 46.444 35.5149C46.4772 35.4403 46.5111 35.3656 46.5459 35.291C46.9817 34.3303 47.4419 33.398 47.9263 32.4942C48.6024 31.2289 49.3238 30.0222 50.0905 28.8741C51.1089 27.3417 52.2376 25.8857 53.4677 24.5176C56.1042 21.594 59.1127 19.2367 62.4136 17.4954C65.9946 15.609 69.1539 14.8727 70.9892 14.5867C71.9524 14.4362 72.9378 14.5265 73.8577 14.8495L86.3954 19.2516C86.5402 19.3013 86.6659 19.3949 86.7553 19.5193C86.8446 19.6437 86.8931 19.7928 86.894 19.946C86.8949 20.0992 86.8482 20.2489 86.7603 20.3743C86.6725 20.4998 86.5478 20.5948 86.4037 20.6462Z" fill="#82B378"/>
<path d="M52.6797 31.4536C52.8355 35.2131 55.1298 37.3938 58.8865 37.2379C62.6431 37.082 66.4379 34.6501 66.283 30.8915C66.1281 27.1328 63.9547 24.9695 60.1981 25.1254C56.4414 25.2813 52.5248 27.6942 52.6797 31.4536Z" fill="#82B378"/>
<path d="M88.374 33.505V63.7456C87.8934 64.0408 87.4035 64.3238 86.9041 64.5947C86.5214 64.8025 86.1347 65.0031 85.7442 65.1966C85.1487 65.4896 84.5411 65.766 83.9213 66.0258C83.8186 66.0695 83.715 66.1126 83.6106 66.1551C83.43 66.2287 83.2483 66.3008 83.0654 66.3716C82.8009 66.4744 82.5346 66.5741 82.2667 66.6709C81.6724 66.8854 81.0672 67.0849 80.4513 67.2695C80.2334 67.3359 80.0139 67.3989 79.7935 67.4603C78.945 67.6991 78.0772 67.9097 77.1901 68.0921C76.5103 68.2691 75.8178 68.3931 75.1187 68.4627C73.4547 68.7158 71.7779 68.8758 70.096 68.942C69.8135 68.9544 69.5285 68.9635 69.2426 68.9702C68.8261 68.9807 68.4055 68.9859 67.9807 68.9859C67.4714 68.9859 66.9591 68.9801 66.4437 68.9685C62.0312 68.8699 57.6375 68.3602 53.3194 67.4462C52.9929 67.3765 52.6673 67.3046 52.3425 67.2306C48.5055 66.3517 44.8084 65.1394 41.4627 63.5822C41.3799 63.5433 41.2929 63.4993 41.2092 63.4637C40.3674 63.0668 39.5493 62.6472 38.755 62.205V33.505C38.7557 33.2357 38.8629 32.9776 39.0533 32.7872C39.2437 32.5968 39.5017 32.4897 39.7708 32.4893H87.3574C87.3955 32.4893 87.4328 32.4893 87.4692 32.4951C87.7175 32.5233 87.9467 32.6417 88.1135 32.8279C88.2803 33.014 88.373 33.255 88.374 33.505Z" fill="#79111E"/>
<path d="M43.085 35.2554H42.2374C42.2054 35.258 42.1756 35.2725 42.1539 35.2961C42.1321 35.3197 42.12 35.3506 42.12 35.3827C42.12 35.4148 42.1321 35.4457 42.1539 35.4693C42.1756 35.4929 42.2054 35.5074 42.2374 35.51H43.085C43.1169 35.5074 43.1468 35.4929 43.1685 35.4693C43.1902 35.4457 43.2023 35.4148 43.2023 35.3827C43.2023 35.3506 43.1902 35.3197 43.1685 35.2961C43.1468 35.2725 43.1169 35.258 43.085 35.2554ZM44.7769 35.2554H43.9293C43.8973 35.258 43.8675 35.2725 43.8458 35.2961C43.824 35.3197 43.812 35.3506 43.812 35.3827C43.812 35.4148 43.824 35.4457 43.8458 35.4693C43.8675 35.4929 43.8973 35.5074 43.9293 35.51H44.7752C44.7928 35.5114 44.8105 35.5091 44.8271 35.5034C44.8438 35.4976 44.8591 35.4885 44.872 35.4765C44.885 35.4646 44.8953 35.4501 44.9024 35.4339C44.9095 35.4178 44.9131 35.4003 44.9131 35.3827C44.9131 35.3651 44.9095 35.3476 44.9024 35.3315C44.8953 35.3153 44.885 35.3008 44.872 35.2888C44.8591 35.2769 44.8438 35.2677 44.8271 35.262C44.8105 35.2562 44.7928 35.254 44.7752 35.2554H44.7769ZM46.5508 35.2861C46.5279 35.2661 46.4984 35.2552 46.468 35.2554H45.622C45.5884 35.2548 45.5559 35.2675 45.5317 35.2908C45.5074 35.3141 45.4934 35.3461 45.4928 35.3798C45.4921 35.4134 45.5048 35.446 45.5282 35.4702C45.5515 35.4945 45.5834 35.5085 45.6171 35.5091H46.468C46.5017 35.5089 46.5339 35.4954 46.5577 35.4714C46.5814 35.4475 46.5948 35.4152 46.5948 35.3814C46.5948 35.3631 46.5907 35.3451 46.5828 35.3286C46.5749 35.3121 46.5634 35.2975 46.5492 35.2861H46.5508ZM48.1616 35.2554H47.3106C47.2787 35.258 47.2489 35.2725 47.2271 35.2961C47.2054 35.3197 47.1933 35.3506 47.1933 35.3827C47.1933 35.4148 47.2054 35.4457 47.2271 35.4693C47.2489 35.4929 47.2787 35.5074 47.3106 35.51H48.1566C48.1885 35.5074 48.2184 35.4929 48.2401 35.4693C48.2618 35.4457 48.2739 35.4148 48.2739 35.3827C48.2739 35.3506 48.2618 35.3197 48.2401 35.2961C48.2184 35.2725 48.1885 35.258 48.1566 35.2554H48.1616ZM49.8535 35.2554H49.0059C48.9739 35.258 48.9441 35.2725 48.9223 35.2961C48.9006 35.3197 48.8885 35.3506 48.8885 35.3827C48.8885 35.4148 48.9006 35.4457 48.9223 35.4693C48.9441 35.4929 48.9739 35.5074 49.0059 35.51H49.8518C49.8838 35.5074 49.9136 35.4929 49.9353 35.4693C49.9571 35.4457 49.9691 35.4148 49.9691 35.3827C49.9691 35.3506 49.9571 35.3197 49.9353 35.2961C49.9136 35.2725 49.8838 35.258 49.8518 35.2554H49.8535ZM51.5454 35.2554H50.6978C50.6658 35.258 50.636 35.2725 50.6143 35.2961C50.5925 35.3197 50.5805 35.3506 50.5805 35.3827C50.5805 35.4148 50.5925 35.4457 50.6143 35.4693C50.636 35.4929 50.6658 35.5074 50.6978 35.51H51.5437C51.5757 35.5074 51.6055 35.4929 51.6272 35.4693C51.649 35.4457 51.6611 35.4148 51.6611 35.3827C51.6611 35.3506 51.649 35.3197 51.6272 35.2961C51.6055 35.2725 51.5757 35.258 51.5437 35.2554H51.5454ZM53.2373 35.2554H52.3897C52.3577 35.258 52.3279 35.2725 52.3062 35.2961C52.2844 35.3197 52.2724 35.3506 52.2724 35.3827C52.2724 35.4148 52.2844 35.4457 52.3062 35.4693C52.3279 35.4929 52.3577 35.5074 52.3897 35.51H53.2356C53.2532 35.5114 53.2709 35.5091 53.2875 35.5034C53.3042 35.4976 53.3195 35.4885 53.3324 35.4765C53.3454 35.4646 53.3557 35.4501 53.3628 35.4339C53.3699 35.4178 53.3735 35.4003 53.3735 35.3827C53.3735 35.3651 53.3699 35.3476 53.3628 35.3315C53.3557 35.3153 53.3454 35.3008 53.3324 35.2888C53.3195 35.2769 53.3042 35.2677 53.2875 35.262C53.2709 35.2562 53.2532 35.254 53.2356 35.2554H53.2373ZM54.93 35.2554H54.0816C54.048 35.2556 54.0159 35.2691 53.9922 35.2928C53.9685 35.3166 53.9551 35.3487 53.9548 35.3823C53.9548 35.416 53.9682 35.4483 53.9919 35.4723C54.0157 35.4962 54.0479 35.5097 54.0816 35.51H54.9284C54.9603 35.5074 54.9902 35.4929 55.0119 35.4693C55.0336 35.4457 55.0457 35.4148 55.0457 35.3827C55.0457 35.3506 55.0336 35.3197 55.0119 35.2961C54.9902 35.2725 54.9603 35.258 54.9284 35.2554H54.93ZM56.622 35.2554H55.7743C55.7424 35.258 55.7126 35.2725 55.6908 35.2961C55.6691 35.3197 55.657 35.3506 55.657 35.3827C55.657 35.4148 55.6691 35.4457 55.6908 35.4693C55.7126 35.4929 55.7424 35.5074 55.7743 35.51H56.6203C56.6523 35.5074 56.6821 35.4929 56.7038 35.4693C56.7256 35.4457 56.7376 35.4148 56.7376 35.3827C56.7376 35.3506 56.7256 35.3197 56.7038 35.2961C56.6821 35.2725 56.6523 35.258 56.6203 35.2554H56.622ZM58.3139 35.2554H57.4663C57.4343 35.258 57.4045 35.2725 57.3827 35.2961C57.361 35.3197 57.3489 35.3506 57.3489 35.3827C57.3489 35.4148 57.361 35.4457 57.3827 35.4693C57.4045 35.4929 57.4343 35.5074 57.4663 35.51H58.3122C58.3442 35.5074 58.374 35.4929 58.3957 35.4693C58.4175 35.4457 58.4295 35.4148 58.4295 35.3827C58.4295 35.3506 58.4175 35.3197 58.3957 35.2961C58.374 35.2725 58.3442 35.258 58.3122 35.2554H58.3139ZM60.0058 35.2554H59.159C59.127 35.258 59.0972 35.2725 59.0755 35.2961C59.0538 35.3197 59.0417 35.3506 59.0417 35.3827C59.0417 35.4148 59.0538 35.4457 59.0755 35.4693C59.0972 35.4929 59.127 35.5074 59.159 35.51H60.0041C60.0361 35.5074 60.0659 35.4929 60.0876 35.4693C60.1094 35.4457 60.1215 35.4148 60.1215 35.3827C60.1215 35.3506 60.1094 35.3197 60.0876 35.2961C60.0659 35.2725 60.0361 35.258 60.0041 35.2554H60.0058ZM61.6977 35.2554H60.8501C60.8181 35.258 60.7883 35.2725 60.7666 35.2961C60.7448 35.3197 60.7328 35.3506 60.7328 35.3827C60.7328 35.4148 60.7448 35.4457 60.7666 35.4693C60.7883 35.4929 60.8181 35.5074 60.8501 35.51H61.696C61.7136 35.5114 61.7313 35.5091 61.7479 35.5034C61.7646 35.4976 61.7799 35.4885 61.7928 35.4765C61.8058 35.4646 61.8161 35.4501 61.8232 35.4339C61.8303 35.4178 61.8339 35.4003 61.8339 35.3827C61.8339 35.3651 61.8303 35.3476 61.8232 35.3315C61.8161 35.3153 61.8058 35.3008 61.7928 35.2888C61.7799 35.2769 61.7646 35.2677 61.7479 35.262C61.7313 35.2562 61.7136 35.254 61.696 35.2554H61.6977ZM63.3904 35.2554H62.542C62.51 35.258 62.4802 35.2725 62.4585 35.2961C62.4368 35.3197 62.4247 35.3506 62.4247 35.3827C62.4247 35.4148 62.4368 35.4457 62.4585 35.4693C62.4802 35.4929 62.51 35.5074 62.542 35.51H63.3888C63.4207 35.5074 63.4506 35.4929 63.4723 35.4693C63.494 35.4457 63.5061 35.4148 63.5061 35.3827C63.5061 35.3506 63.494 35.3197 63.4723 35.2961C63.4506 35.2725 63.4207 35.258 63.3888 35.2554H63.3904ZM65.0824 35.2554H64.2347C64.203 35.2553 64.1724 35.267 64.149 35.2884C64.1255 35.3097 64.1109 35.3391 64.108 35.3707C64.1076 35.3742 64.1076 35.3779 64.108 35.3814C64.108 35.4153 64.1214 35.4478 64.1453 35.4717C64.1693 35.4957 64.2017 35.5091 64.2356 35.5091H65.0815C65.1135 35.5066 65.1433 35.492 65.165 35.4684C65.1868 35.4449 65.1989 35.4139 65.1989 35.3819C65.1989 35.3498 65.1868 35.3189 65.165 35.2953C65.1433 35.2717 65.1135 35.2572 65.0815 35.2546L65.0824 35.2554ZM66.7743 35.2554H65.9267C65.8947 35.258 65.8649 35.2725 65.8431 35.2961C65.8214 35.3197 65.8093 35.3506 65.8093 35.3827C65.8093 35.4148 65.8214 35.4457 65.8431 35.4693C65.8649 35.4929 65.8947 35.5074 65.9267 35.51H66.7726C66.8046 35.5074 66.8344 35.4929 66.8561 35.4693C66.8779 35.4457 66.8899 35.4148 66.8899 35.3827C66.8899 35.3506 66.8779 35.3197 66.8561 35.2961C66.8344 35.2725 66.8046 35.258 66.7726 35.2554H66.7743ZM68.4662 35.2554H67.6186C67.5866 35.258 67.5568 35.2725 67.5351 35.2961C67.5133 35.3197 67.5013 35.3506 67.5013 35.3827C67.5013 35.4148 67.5133 35.4457 67.5351 35.4693C67.5568 35.4929 67.5866 35.5074 67.6186 35.51H68.4645C68.4965 35.5074 68.5263 35.4929 68.548 35.4693C68.5698 35.4457 68.5819 35.4148 68.5819 35.3827C68.5819 35.3506 68.5698 35.3197 68.548 35.2961C68.5263 35.2725 68.4965 35.258 68.4645 35.2554H68.4662ZM70.1581 35.2554H69.3105C69.2785 35.258 69.2487 35.2725 69.227 35.2961C69.2052 35.3197 69.1932 35.3506 69.1932 35.3827C69.1932 35.4148 69.2052 35.4457 69.227 35.4693C69.2487 35.4929 69.2785 35.5074 69.3105 35.51H70.1564C70.1884 35.5074 70.2182 35.4929 70.24 35.4693C70.2617 35.4457 70.2738 35.4148 70.2738 35.3827C70.2738 35.3506 70.2617 35.3197 70.24 35.2961C70.2182 35.2725 70.1884 35.258 70.1564 35.2554H70.1581ZM71.85 35.2554H71.0024C70.9977 35.2546 70.993 35.2546 70.9883 35.2554C70.9588 35.2602 70.932 35.2754 70.9127 35.2982C70.8934 35.321 70.8827 35.3499 70.8827 35.3798C70.8827 35.4097 70.8934 35.4386 70.9127 35.4614C70.932 35.4842 70.9588 35.4993 70.9883 35.5042C70.993 35.505 70.9977 35.505 71.0024 35.5042H71.8484C71.8659 35.5056 71.8836 35.5033 71.9003 35.4976C71.9169 35.4918 71.9322 35.4827 71.9452 35.4707C71.9581 35.4588 71.9684 35.4443 71.9755 35.4281C71.9826 35.412 71.9862 35.3945 71.9862 35.3769C71.9862 35.3592 71.9826 35.3418 71.9755 35.3256C71.9684 35.3095 71.9581 35.295 71.9452 35.283C71.9322 35.2711 71.9169 35.2619 71.9003 35.2562C71.8836 35.2504 71.8659 35.2482 71.8484 35.2496L71.85 35.2554ZM73.5428 35.2554H72.6952C72.6776 35.254 72.6599 35.2562 72.6433 35.262C72.6266 35.2677 72.6113 35.2769 72.5984 35.2888C72.5854 35.3008 72.5751 35.3153 72.568 35.3315C72.5609 35.3476 72.5573 35.3651 72.5573 35.3827C72.5573 35.4003 72.5609 35.4178 72.568 35.4339C72.5751 35.4501 72.5854 35.4646 72.5984 35.4765C72.6113 35.4885 72.6266 35.4976 72.6433 35.5034C72.6599 35.5091 72.6776 35.5114 72.6952 35.51H73.5411C73.5731 35.5074 73.6029 35.4929 73.6246 35.4693C73.6464 35.4457 73.6584 35.4148 73.6584 35.3827C73.6584 35.3506 73.6464 35.3197 73.6246 35.2961C73.6029 35.2725 73.5731 35.258 73.5411 35.2554H73.5428ZM75.2347 35.2554H74.3871C74.3551 35.258 74.3253 35.2725 74.3036 35.2961C74.2818 35.3197 74.2697 35.3506 74.2697 35.3827C74.2697 35.4148 74.2818 35.4457 74.3036 35.4693C74.3253 35.4929 74.3551 35.5074 74.3871 35.51H75.233C75.265 35.5074 75.2948 35.4929 75.3165 35.4693C75.3383 35.4457 75.3503 35.4148 75.3503 35.3827C75.3503 35.3506 75.3383 35.3197 75.3165 35.2961C75.2948 35.2725 75.265 35.258 75.233 35.2554H75.2347ZM76.9266 35.2554H76.079C76.047 35.258 76.0172 35.2725 75.9955 35.2961C75.9737 35.3197 75.9617 35.3506 75.9617 35.3827C75.9617 35.4148 75.9737 35.4457 75.9955 35.4693C76.0172 35.4929 76.047 35.5074 76.079 35.51H76.9249C76.9569 35.5074 76.9867 35.4929 77.0084 35.4693C77.0302 35.4457 77.0423 35.4148 77.0423 35.3827C77.0423 35.3506 77.0302 35.3197 77.0084 35.2961C76.9867 35.2725 76.9569 35.258 76.9249 35.2554H76.9266ZM78.6185 35.2554H77.7709C77.7389 35.258 77.7091 35.2725 77.6874 35.2961C77.6656 35.3197 77.6536 35.3506 77.6536 35.3827C77.6536 35.4148 77.6656 35.4457 77.6874 35.4693C77.7091 35.4929 77.7389 35.5074 77.7709 35.51H78.6169C78.6488 35.5074 78.6786 35.4929 78.7004 35.4693C78.7221 35.4457 78.7342 35.4148 78.7342 35.3827C78.7342 35.3506 78.7221 35.3197 78.7004 35.2961C78.6786 35.2725 78.6488 35.258 78.6169 35.2554H78.6185ZM80.3104 35.2554H79.4628C79.4309 35.258 79.401 35.2725 79.3793 35.2961C79.3576 35.3197 79.3455 35.3506 79.3455 35.3827C79.3455 35.4148 79.3576 35.4457 79.3793 35.4693C79.401 35.4929 79.4309 35.5074 79.4628 35.51H80.3088C80.3263 35.5114 80.344 35.5091 80.3607 35.5034C80.3773 35.4976 80.3926 35.4885 80.4056 35.4765C80.4185 35.4646 80.4288 35.4501 80.4359 35.4339C80.443 35.4178 80.4466 35.4003 80.4466 35.3827C80.4466 35.3651 80.443 35.3476 80.4359 35.3315C80.4288 35.3153 80.4185 35.3008 80.4056 35.2888C80.3926 35.2769 80.3773 35.2677 80.3607 35.262C80.344 35.2562 80.3263 35.254 80.3088 35.2554H80.3104ZM82.0032 35.2554H81.1556C81.138 35.254 81.1203 35.2562 81.1037 35.262C81.087 35.2677 81.0717 35.2769 81.0588 35.2888C81.0458 35.3008 81.0355 35.3153 81.0284 35.3315C81.0213 35.3476 81.0177 35.3651 81.0177 35.3827C81.0177 35.4003 81.0213 35.4178 81.0284 35.4339C81.0355 35.4501 81.0458 35.4646 81.0588 35.4765C81.0717 35.4885 81.087 35.4976 81.1037 35.5034C81.1203 35.5091 81.138 35.5114 81.1556 35.51H82.0015C82.0335 35.5074 82.0633 35.4929 82.085 35.4693C82.1068 35.4457 82.1188 35.4148 82.1188 35.3827C82.1188 35.3506 82.1068 35.3197 82.085 35.2961C82.0633 35.2725 82.0335 35.258 82.0015 35.2554H82.0032ZM83.6951 35.2554H82.8475C82.8155 35.258 82.7857 35.2725 82.764 35.2961C82.7422 35.3197 82.7301 35.3506 82.7301 35.3827C82.7301 35.4148 82.7422 35.4457 82.764 35.4693C82.7857 35.4929 82.8155 35.5074 82.8475 35.51H83.6934C83.7254 35.5074 83.7552 35.4929 83.7769 35.4693C83.7987 35.4457 83.8107 35.4148 83.8107 35.3827C83.8107 35.3506 83.7987 35.3197 83.7769 35.2961C83.7552 35.2725 83.7254 35.258 83.6934 35.2554H83.6951ZM84.5303 35.6576C84.5099 35.6307 84.4798 35.6131 84.4465 35.6085C84.4131 35.6039 84.3794 35.6128 84.3525 35.6331C84.3257 35.6534 84.3081 35.6836 84.3035 35.717C84.2989 35.7503 84.3078 35.7841 84.3281 35.811C84.4287 35.9423 84.4832 36.1032 84.483 36.2687V36.5406C84.483 36.5743 84.4964 36.6065 84.5202 36.6303C84.5439 36.6541 84.5762 36.6675 84.6098 36.6675C84.6434 36.6675 84.6757 36.6541 84.6995 36.6303C84.7232 36.6065 84.7366 36.5743 84.7366 36.5406V36.2687C84.7373 36.0464 84.6642 35.8303 84.5286 35.6542L84.5303 35.6576ZM41.5861 35.6435C41.5588 35.6237 41.5248 35.6155 41.4915 35.6206C41.4581 35.6257 41.4281 35.6438 41.408 35.6708C41.2807 35.8441 41.2122 36.0536 41.2124 36.2687V36.5555C41.2124 36.5892 41.2258 36.6215 41.2496 36.6453C41.2733 36.669 41.3056 36.6824 41.3392 36.6824C41.3728 36.6824 41.4051 36.669 41.4289 36.6453C41.4526 36.6215 41.466 36.5892 41.466 36.5555V36.2687C41.4654 36.1078 41.5169 35.951 41.6126 35.8217C41.6325 35.7943 41.6407 35.7602 41.6354 35.7268C41.6301 35.6933 41.6118 35.6634 41.5845 35.6435H41.5861ZM84.6098 37.2603C84.5931 37.2603 84.5765 37.2636 84.5611 37.2701C84.5457 37.2765 84.5317 37.2859 84.5199 37.2978C84.5081 37.3097 84.4988 37.3237 84.4925 37.3392C84.4861 37.3547 84.4829 37.3713 84.483 37.388V38.2346C84.483 38.2683 84.4964 38.3005 84.5202 38.3243C84.5439 38.3481 84.5762 38.3615 84.6098 38.3615C84.6434 38.3615 84.6757 38.3481 84.6995 38.3243C84.7232 38.3005 84.7366 38.2683 84.7366 38.2346V37.388C84.7367 37.3712 84.7334 37.3544 84.727 37.3388C84.7206 37.3232 84.7111 37.3091 84.6992 37.2972C84.6872 37.2853 84.673 37.2759 84.6574 37.2696C84.6417 37.2633 84.625 37.2601 84.6082 37.2603H84.6098ZM41.3392 37.2753C41.3056 37.2753 41.2733 37.2886 41.2496 37.3124C41.2258 37.3362 41.2124 37.3685 41.2124 37.4021V38.2495C41.2124 38.2832 41.2258 38.3154 41.2496 38.3392C41.2733 38.363 41.3056 38.3764 41.3392 38.3764C41.3728 38.3764 41.4051 38.363 41.4289 38.3392C41.4526 38.3154 41.466 38.2832 41.466 38.2495V37.4021C41.4659 37.3854 41.4625 37.3688 41.456 37.3533C41.4494 37.3379 41.44 37.3239 41.428 37.3121C41.4161 37.3003 41.402 37.291 41.3865 37.2847C41.3709 37.2783 41.3543 37.2752 41.3376 37.2753H41.3392ZM84.6098 38.9543C84.5931 38.9542 84.5766 38.9574 84.5612 38.9638C84.5457 38.9701 84.5317 38.9794 84.5199 38.9912C84.5081 39.003 84.4988 39.0171 84.4925 39.0325C84.4861 39.048 84.4829 39.0645 84.483 39.0812V39.9278C84.483 39.9614 84.4964 39.9937 84.5202 40.0175C84.5439 40.0413 84.5762 40.0546 84.6098 40.0546C84.6434 40.0546 84.6757 40.0413 84.6995 40.0175C84.7232 39.9937 84.7366 39.9614 84.7366 39.9278V39.0812C84.7367 39.0644 84.7334 39.0477 84.727 39.0321C84.7206 39.0166 84.7111 39.0025 84.6991 38.9906C84.6871 38.9788 84.6729 38.9695 84.6573 38.9633C84.6417 38.957 84.625 38.954 84.6082 38.9543H84.6098ZM41.3376 38.9709C41.3209 38.9708 41.3043 38.974 41.2889 38.9803C41.2735 38.9867 41.2595 38.996 41.2477 39.0078C41.2359 39.0196 41.2265 39.0337 41.2202 39.0491C41.2139 39.0645 41.2107 39.0811 41.2108 39.0978V39.9444C41.2108 39.978 41.2241 40.0103 41.2479 40.0341C41.2717 40.0578 41.3039 40.0712 41.3376 40.0712C41.3712 40.0712 41.4034 40.0578 41.4272 40.0341C41.451 40.0103 41.4643 39.978 41.4643 39.9444V39.0961C41.4639 39.0628 41.4503 39.0309 41.4266 39.0075C41.4029 38.984 41.3709 38.9709 41.3376 38.9709ZM84.6082 40.6491C84.5915 40.649 84.5749 40.6522 84.5595 40.6586C84.5441 40.6649 84.5301 40.6743 84.5183 40.6861C84.5065 40.6979 84.4971 40.7119 84.4908 40.7273C84.4845 40.7428 84.4813 40.7593 84.4814 40.776V41.6242C84.4814 41.6579 84.4947 41.6902 84.5185 41.714C84.5423 41.7377 84.5745 41.7511 84.6082 41.7511C84.6418 41.7511 84.674 41.7377 84.6978 41.714C84.7216 41.6902 84.7349 41.6579 84.7349 41.6242V40.7743C84.735 40.7577 84.7318 40.7411 84.7255 40.7257C84.7192 40.7102 84.7098 40.6962 84.698 40.6844C84.6862 40.6726 84.6722 40.6633 84.6568 40.6569C84.6414 40.6506 84.6248 40.6474 84.6082 40.6475V40.6491ZM41.3376 40.6641C41.3209 40.664 41.3043 40.6672 41.2889 40.6735C41.2735 40.6798 41.2595 40.6892 41.2477 40.701C41.2359 40.7128 41.2265 40.7268 41.2202 40.7423C41.2139 40.7577 41.2107 40.7742 41.2108 40.7909V41.6375C41.2108 41.6712 41.2241 41.7034 41.2479 41.7272C41.2717 41.751 41.3039 41.7644 41.3376 41.7644C41.3712 41.7644 41.4034 41.751 41.4272 41.7272C41.451 41.7034 41.4643 41.6712 41.4643 41.6375V40.7893C41.4643 40.7726 41.4611 40.7561 41.4547 40.7407C41.4483 40.7253 41.439 40.7113 41.4272 40.6996C41.4154 40.6878 41.4015 40.6784 41.3861 40.6721C41.3707 40.6657 41.3542 40.6624 41.3376 40.6624V40.6641ZM84.6082 42.3423C84.5964 42.3422 84.5846 42.3439 84.5733 42.3473C84.5469 42.3548 84.5236 42.3708 84.507 42.3928C84.4904 42.4148 84.4814 42.4416 84.4814 42.4692V43.3158C84.4814 43.3433 84.4904 43.3701 84.507 43.3921C84.5236 43.4141 84.5469 43.4301 84.5733 43.4376C84.5846 43.441 84.5964 43.4427 84.6082 43.4426C84.6248 43.4427 84.6414 43.4395 84.6568 43.4332C84.6722 43.4268 84.6862 43.4175 84.698 43.4057C84.7098 43.3939 84.7192 43.3799 84.7255 43.3644C84.7318 43.349 84.735 43.3324 84.7349 43.3158V42.4675C84.7349 42.4339 84.7216 42.4016 84.6978 42.3778C84.674 42.354 84.6418 42.3406 84.6082 42.3406V42.3423ZM41.3376 42.3572C41.3209 42.3571 41.3043 42.3603 41.2889 42.3667C41.2735 42.373 41.2595 42.3823 41.2477 42.3941C41.2359 42.4059 41.2265 42.42 41.2202 42.4354C41.2139 42.4509 41.2107 42.4674 41.2108 42.4841V43.3307C41.2108 43.3643 41.2241 43.3966 41.2479 43.4204C41.2717 43.4442 41.3039 43.4575 41.3376 43.4575C41.3712 43.4575 41.4034 43.4442 41.4272 43.4204C41.451 43.3966 41.4643 43.3643 41.4643 43.3307V42.4824C41.4643 42.4658 41.4611 42.4493 41.4547 42.4339C41.4483 42.4185 41.439 42.4045 41.4272 42.3927C41.4154 42.3809 41.4015 42.3716 41.3861 42.3652C41.3707 42.3589 41.3542 42.3556 41.3376 42.3556V42.3572ZM84.6082 44.0355C84.5964 44.0354 84.5846 44.037 84.5733 44.0404C84.5469 44.048 84.5236 44.064 84.507 44.086C84.4904 44.108 84.4814 44.1348 84.4814 44.1623V45.0072C84.4814 45.0349 84.4903 45.0618 84.5069 45.084C84.5235 45.1061 84.5468 45.1222 84.5733 45.13C84.5846 45.1334 84.5964 45.135 84.6082 45.1349C84.6249 45.1349 84.6414 45.1316 84.6569 45.1252C84.6723 45.1188 84.6863 45.1094 84.6981 45.0975C84.7099 45.0856 84.7192 45.0715 84.7255 45.0561C84.7318 45.0406 84.735 45.024 84.7349 45.0072V44.1607C84.7349 44.127 84.7216 44.0948 84.6978 44.071C84.674 44.0472 84.6418 44.0338 84.6082 44.0338V44.0355ZM41.3376 44.0504C41.3039 44.0504 41.2717 44.0638 41.2479 44.0875C41.2241 44.1113 41.2108 44.1436 41.2108 44.1773V45.0238C41.2112 45.0574 41.2247 45.0895 41.2483 45.1134C41.272 45.1372 41.304 45.1509 41.3376 45.1515C41.3713 45.1513 41.4035 45.1378 41.4272 45.1138C41.451 45.0899 41.4643 45.0576 41.4643 45.0238V44.1756C41.4641 44.142 41.4507 44.1099 41.427 44.0861C41.4032 44.0624 41.3711 44.0489 41.3376 44.0487V44.0504ZM84.6082 45.7286C84.5745 45.7286 84.5423 45.742 84.5185 45.7658C84.4947 45.7896 84.4814 45.8218 84.4814 45.8555V46.7029C84.4814 46.7365 84.4947 46.7688 84.5185 46.7926C84.5423 46.8164 84.5745 46.8298 84.6082 46.8298C84.6418 46.8298 84.674 46.8164 84.6978 46.7926C84.7216 46.7688 84.7349 46.7365 84.7349 46.7029V45.853C84.7347 45.8195 84.7212 45.7874 84.6975 45.7638C84.6737 45.7402 84.6416 45.727 84.6082 45.727V45.7286ZM41.3376 45.7435C41.3039 45.7435 41.2717 45.7569 41.2479 45.7807C41.2241 45.8045 41.2108 45.8368 41.2108 45.8704V46.7178C41.2108 46.7515 41.2241 46.7837 41.2479 46.8075C41.2717 46.8313 41.3039 46.8447 41.3376 46.8447C41.3712 46.8447 41.4034 46.8313 41.4272 46.8075C41.451 46.7837 41.4643 46.7515 41.4643 46.7178V45.8688C41.4641 45.8352 41.4507 45.803 41.427 45.7793C41.4032 45.7555 41.3711 45.7421 41.3376 45.7419V45.7435ZM84.6082 47.4226C84.5915 47.4225 84.5749 47.4257 84.5595 47.432C84.5441 47.4384 84.5301 47.4477 84.5183 47.4595C84.5065 47.4713 84.4971 47.4854 84.4908 47.5008C84.4845 47.5162 84.4813 47.5328 84.4814 47.5495V48.3961C84.4814 48.4297 84.4947 48.462 84.5185 48.4858C84.5423 48.5096 84.5745 48.5229 84.6082 48.5229C84.6418 48.5229 84.674 48.5096 84.6978 48.4858C84.7216 48.462 84.7349 48.4297 84.7349 48.3961V47.5478C84.735 47.5311 84.7318 47.5146 84.7255 47.4991C84.7192 47.4837 84.7098 47.4697 84.698 47.4579C84.6862 47.4461 84.6722 47.4367 84.6568 47.4304C84.6414 47.4241 84.6248 47.4208 84.6082 47.421V47.4226ZM41.3376 47.4367C41.3208 47.4367 41.3043 47.44 41.2889 47.4464C41.2734 47.4529 41.2594 47.4623 41.2476 47.4742C41.2358 47.486 41.2265 47.5001 41.2202 47.5156C41.2139 47.5311 41.2107 47.5477 41.2108 47.5644V48.411C41.2108 48.4446 41.2241 48.4769 41.2479 48.5007C41.2717 48.5245 41.3039 48.5378 41.3376 48.5378C41.3712 48.5378 41.4034 48.5245 41.4272 48.5007C41.451 48.4769 41.4643 48.4446 41.4643 48.411V47.5627C41.4643 47.529 41.451 47.4967 41.4272 47.4727C41.4035 47.4488 41.3713 47.4353 41.3376 47.4351V47.4367ZM84.6082 49.1158C84.5915 49.1157 84.5749 49.1189 84.5595 49.1252C84.5441 49.1315 84.5301 49.1409 84.5183 49.1527C84.5065 49.1645 84.4971 49.1785 84.4908 49.194C84.4845 49.2094 84.4813 49.2259 84.4814 49.2426V50.0892C84.4814 50.1229 84.4947 50.1551 84.5185 50.1789C84.5423 50.2027 84.5745 50.2161 84.6082 50.2161C84.6418 50.2161 84.674 50.2027 84.6978 50.1789C84.7216 50.1551 84.7349 50.1229 84.7349 50.0892V49.241C84.735 49.2243 84.7318 49.2077 84.7255 49.1923C84.7192 49.1769 84.7098 49.1628 84.698 49.151C84.6862 49.1392 84.6722 49.1299 84.6568 49.1236C84.6414 49.1172 84.6248 49.114 84.6082 49.1141V49.1158ZM41.384 49.1398C41.3692 49.1338 41.3535 49.1307 41.3376 49.1307C41.3209 49.1306 41.3043 49.1338 41.2889 49.1401C41.2735 49.1465 41.2595 49.1558 41.2477 49.1676C41.2359 49.1794 41.2265 49.1934 41.2202 49.2089C41.2139 49.2243 41.2107 49.2409 41.2108 49.2576V50.1041C41.2106 50.1263 41.2163 50.148 41.2274 50.1672C41.2412 50.1915 41.2627 50.2106 41.2885 50.2214C41.3144 50.2323 41.3431 50.2343 41.3701 50.2271C41.3972 50.2199 41.4211 50.2039 41.4381 50.1817C41.4552 50.1594 41.4644 50.1322 41.4643 50.1041V49.2526C41.4637 49.2277 41.4558 49.2036 41.4415 49.1832C41.4272 49.1628 41.4071 49.1472 41.384 49.1382V49.1398ZM84.6082 50.8089C84.5915 50.8088 84.5749 50.812 84.5595 50.8184C84.5441 50.8247 84.5301 50.834 84.5183 50.8458C84.5065 50.8576 84.4971 50.8717 84.4908 50.8871C84.4845 50.9026 84.4813 50.9191 84.4814 50.9358V51.7824C84.4814 51.8082 84.4894 51.8333 84.5042 51.8544C84.519 51.8754 84.54 51.8914 84.5642 51.9001C84.5787 51.9061 84.5942 51.9092 84.6098 51.9092C84.6265 51.9093 84.643 51.9061 84.6585 51.8998C84.6739 51.8935 84.6879 51.8841 84.6997 51.8723C84.7115 51.8605 84.7208 51.8465 84.7272 51.8311C84.7335 51.8156 84.7367 51.7991 84.7366 51.7824V50.9341C84.7367 50.9173 84.7334 50.9006 84.727 50.8851C84.7206 50.8695 84.7111 50.8554 84.6991 50.8436C84.6871 50.8318 84.6729 50.8225 84.6573 50.8162C84.6417 50.81 84.625 50.8069 84.6082 50.8073V50.8089ZM41.3376 50.8239C41.3209 50.8238 41.3043 50.827 41.2889 50.8333C41.2735 50.8396 41.2595 50.849 41.2477 50.8608C41.2359 50.8726 41.2265 50.8866 41.2202 50.902C41.2139 50.9175 41.2107 50.934 41.2108 50.9507V51.7973C41.2108 51.8309 41.2241 51.8632 41.2479 51.887C41.2717 51.9108 41.3039 51.9242 41.3376 51.9242C41.3712 51.9242 41.4034 51.9108 41.4272 51.887C41.451 51.8632 41.4643 51.8309 41.4643 51.7973V50.9491C41.4643 50.9324 41.4611 50.9159 41.4547 50.9005C41.4483 50.8851 41.439 50.8711 41.4272 50.8594C41.4154 50.8476 41.4015 50.8382 41.3861 50.8319C41.3707 50.8255 41.3542 50.8222 41.3376 50.8222V50.8239ZM84.6082 52.5021C84.5745 52.5021 84.5423 52.5155 84.5185 52.5393C84.4947 52.563 84.4814 52.5953 84.4814 52.629V53.4755C84.4814 53.4922 84.4847 53.5087 84.491 53.5241C84.4974 53.5395 84.5067 53.5535 84.5185 53.5652C84.5303 53.577 84.5443 53.5864 84.5596 53.5927C84.575 53.5991 84.5915 53.6024 84.6082 53.6024C84.6248 53.6024 84.6413 53.5991 84.6567 53.5927C84.672 53.5864 84.686 53.577 84.6978 53.5652C84.7096 53.5535 84.7189 53.5395 84.7253 53.5241C84.7316 53.5087 84.7349 53.4922 84.7349 53.4755V52.6273C84.7349 52.6106 84.7316 52.5941 84.7253 52.5788C84.7189 52.5634 84.7096 52.5494 84.6978 52.5376C84.686 52.5258 84.672 52.5165 84.6567 52.5101C84.6413 52.5037 84.6248 52.5004 84.6082 52.5004V52.5021ZM41.3376 52.517C41.3039 52.517 41.2717 52.5304 41.2479 52.5542C41.2241 52.578 41.2108 52.6102 41.2108 52.6439V53.4905C41.2108 53.5241 41.2241 53.5564 41.2479 53.5802C41.2717 53.604 41.3039 53.6173 41.3376 53.6173C41.3712 53.6173 41.4034 53.604 41.4272 53.5802C41.451 53.5564 41.4643 53.5241 41.4643 53.4905V52.6422C41.4641 52.6086 41.4507 52.5765 41.427 52.5528C41.4032 52.529 41.3711 52.5156 41.3376 52.5154V52.517ZM84.7333 54.3039C84.7294 54.2746 84.7149 54.2478 84.6927 54.2284C84.6699 54.208 84.6404 54.1968 84.6098 54.1968C84.5792 54.1968 84.5497 54.208 84.527 54.2284C84.5047 54.2478 84.4902 54.2746 84.4864 54.3039C84.4859 54.3099 84.4859 54.316 84.4864 54.3221V55.1695C84.4864 55.2032 84.4997 55.2354 84.5235 55.2592C84.5473 55.283 84.5795 55.2964 84.6131 55.2964C84.6467 55.2964 84.679 55.283 84.7028 55.2592C84.7265 55.2354 84.7399 55.2032 84.7399 55.1695V54.3205C84.7381 54.3142 84.7359 54.3081 84.7333 54.3022V54.3039ZM41.3376 54.2102C41.3039 54.2102 41.2717 54.2235 41.2479 54.2473C41.2241 54.2711 41.2108 54.3034 41.2108 54.337V55.1845C41.2108 55.2181 41.2241 55.2504 41.2479 55.2742C41.2717 55.298 41.3039 55.3113 41.3376 55.3113C41.3712 55.3113 41.4034 55.298 41.4272 55.2742C41.451 55.2504 41.4643 55.2181 41.4643 55.1845V54.3354C41.4641 54.3018 41.4507 54.2697 41.427 54.2459C41.4032 54.2222 41.3711 54.2087 41.3376 54.2085V54.2102ZM84.6082 55.8859C84.5914 55.8859 84.5749 55.8892 84.5594 55.8957C84.544 55.9021 84.53 55.9115 84.5182 55.9234C84.5064 55.9352 84.4971 55.9493 84.4908 55.9648C84.4845 55.9803 84.4813 55.9969 84.4814 56.0136V56.8602C84.4814 56.8938 84.4947 56.9261 84.5185 56.9499C84.5423 56.9737 84.5745 56.9871 84.6082 56.9871C84.6418 56.9871 84.674 56.9737 84.6978 56.9499C84.7216 56.9261 84.7349 56.8938 84.7349 56.8602V56.0144C84.7351 55.9976 84.732 55.981 84.7258 55.9654C84.7195 55.9498 84.7102 55.9356 84.6984 55.9237C84.6866 55.9117 84.6725 55.9022 84.6571 55.8957C84.6416 55.8893 84.6249 55.8859 84.6082 55.8859ZM41.3376 55.9009C41.3208 55.9007 41.3042 55.904 41.2887 55.9104C41.2732 55.9167 41.2592 55.9262 41.2474 55.9381C41.2356 55.9499 41.2263 55.9641 41.22 55.9796C41.2137 55.9951 41.2106 56.0118 41.2108 56.0285V56.8751C41.2108 56.9088 41.2241 56.941 41.2479 56.9648C41.2717 56.9886 41.3039 57.002 41.3376 57.002C41.3505 57.0019 41.3634 56.9997 41.3757 56.9954C41.4013 56.9874 41.4238 56.9714 41.4397 56.9498C41.4557 56.9282 41.4643 56.902 41.4643 56.8751V56.0294C41.4643 55.9956 41.451 55.9633 41.4272 55.9394C41.4035 55.9155 41.3713 55.9019 41.3376 55.9017V55.9009ZM84.6082 57.5799C84.5915 57.5798 84.5749 57.583 84.5595 57.5893C84.5441 57.5957 84.5301 57.605 84.5183 57.6168C84.5065 57.6286 84.4971 57.6427 84.4908 57.6581C84.4845 57.6735 84.4813 57.6901 84.4814 57.7068V58.5534C84.4814 58.587 84.4947 58.6193 84.5185 58.6431C84.5423 58.6669 84.5745 58.6802 84.6082 58.6802C84.6418 58.6802 84.674 58.6669 84.6978 58.6431C84.7216 58.6193 84.7349 58.587 84.7349 58.5534V57.7101C84.7354 57.6932 84.7324 57.6764 84.7262 57.6607C84.72 57.6449 84.7108 57.6306 84.6989 57.6185C84.6871 57.6065 84.673 57.5969 84.6574 57.5904C84.6418 57.5839 84.625 57.5806 84.6082 57.5807V57.5799ZM41.4403 57.6487C41.4248 57.6267 41.4027 57.6103 41.3772 57.6017C41.3517 57.5931 41.3241 57.5928 41.2985 57.6009C41.2728 57.6091 41.2504 57.6252 41.2345 57.6469C41.2186 57.6686 41.21 57.6948 41.21 57.7217V58.5683C41.21 58.6019 41.2233 58.6342 41.2471 58.658C41.2709 58.6818 41.3031 58.6951 41.3367 58.6951C41.3704 58.6951 41.4026 58.6818 41.4264 58.658C41.4501 58.6342 41.4635 58.6019 41.4635 58.5683V57.7225C41.4639 57.6965 41.4561 57.6709 41.4411 57.6496L41.4403 57.6487ZM84.6082 59.2731C84.5915 59.273 84.5749 59.2762 84.5595 59.2825C84.5441 59.2888 84.5301 59.2982 84.5183 59.31C84.5065 59.3218 84.4971 59.3358 84.4908 59.3513C84.4845 59.3667 84.4813 59.3832 84.4814 59.3999V60.2473C84.481 60.2604 84.4833 60.2734 84.488 60.2855C84.4876 60.2863 84.4874 60.2871 84.4874 60.288C84.4874 60.2888 84.4876 60.2897 84.488 60.2905C84.4937 60.3102 84.5042 60.3281 84.5187 60.3426C84.5332 60.3571 84.5512 60.3677 84.5709 60.3734C84.5822 60.3768 84.5939 60.3785 84.6057 60.3784C84.6316 60.3786 84.6569 60.3708 84.6782 60.3559C84.6994 60.341 84.7155 60.3199 84.7241 60.2954C84.7245 60.2947 84.7247 60.2938 84.7247 60.293C84.7247 60.2921 84.7245 60.2912 84.7241 60.2905C84.7289 60.2783 84.7312 60.2654 84.7308 60.2523V59.4008C84.731 59.3678 84.7183 59.336 84.6954 59.3123C84.6724 59.2885 84.6411 59.2748 84.6082 59.2739V59.2731ZM41.3376 59.2855C41.3209 59.2854 41.3043 59.2886 41.2889 59.2949C41.2735 59.3013 41.2595 59.3106 41.2477 59.3224C41.2359 59.3342 41.2265 59.3483 41.2202 59.3637C41.2139 59.3791 41.2107 59.3957 41.2108 59.4124V60.259C41.2108 60.2926 41.2241 60.3249 41.2479 60.3487C41.2717 60.3725 41.3039 60.3858 41.3376 60.3858C41.3712 60.3858 41.4034 60.3725 41.4272 60.3487C41.451 60.3249 41.4643 60.2926 41.4643 60.259V59.4157C41.4648 59.3988 41.4618 59.3819 41.4556 59.3661C41.4495 59.3504 41.4402 59.336 41.4284 59.3238C41.4166 59.3117 41.4024 59.3021 41.3868 59.2955C41.3712 59.2889 41.3545 59.2855 41.3376 59.2855ZM84.6082 60.9637C84.5964 60.9637 84.5846 60.9653 84.5733 60.9687C84.5469 60.9763 84.5236 60.9923 84.507 61.0143C84.4904 61.0363 84.4814 61.0631 84.4814 61.0906V61.9389C84.4814 61.9664 84.4904 61.9932 84.507 62.0152C84.5236 62.0372 84.5469 62.0532 84.5733 62.0607C84.5846 62.0641 84.5964 62.0658 84.6082 62.0657C84.6248 62.0658 84.6414 62.0626 84.6568 62.0563C84.6722 62.0499 84.6862 62.0406 84.698 62.0288C84.7098 62.017 84.7192 62.003 84.7255 61.9875C84.7318 61.9721 84.735 61.9555 84.7349 61.9389V61.0939C84.7349 61.0603 84.7216 61.028 84.6978 61.0042C84.674 60.9804 84.6418 60.9671 84.6082 60.9671V60.9637ZM41.3376 60.9787C41.3039 60.9787 41.2717 60.992 41.2479 61.0158C41.2241 61.0396 41.2108 61.0719 41.2108 61.1055V61.9554C41.2108 61.9891 41.2241 62.0213 41.2479 62.0451C41.2717 62.0689 41.3039 62.0823 41.3376 62.0823C41.3712 62.0823 41.4034 62.0689 41.4272 62.0451C41.451 62.0213 41.4643 61.9891 41.4643 61.9554V61.1097C41.4643 61.076 41.451 61.0436 41.4272 61.0197C41.4035 60.9958 41.3713 60.9822 41.3376 60.982V60.9787ZM84.6082 62.6569C84.5964 62.6568 84.5846 62.6585 84.5733 62.6619C84.5469 62.6694 84.5236 62.6854 84.507 62.7074C84.4904 62.7294 84.4814 62.7562 84.4814 62.7838V63.6304C84.4814 63.647 84.4847 63.6635 84.491 63.6789C84.4974 63.6943 84.5067 63.7083 84.5185 63.7201C84.5303 63.7318 84.5443 63.7412 84.5596 63.7476C84.575 63.7539 84.5915 63.7572 84.6082 63.7572C84.6248 63.7572 84.6413 63.7539 84.6567 63.7476C84.672 63.7412 84.686 63.7318 84.6978 63.7201C84.7096 63.7083 84.7189 63.6943 84.7253 63.6789C84.7316 63.6635 84.7349 63.647 84.7349 63.6304V62.7871C84.7349 62.7534 84.7216 62.7212 84.6978 62.6974C84.674 62.6736 84.6418 62.6602 84.6082 62.6602V62.6569ZM41.3376 62.6718C41.3039 62.6718 41.2717 62.6852 41.2479 62.709C41.2241 62.7328 41.2108 62.7651 41.2108 62.7987V63.462C41.2936 63.5018 41.3765 63.5449 41.4643 63.5806V62.797C41.4628 62.7643 41.4489 62.7334 41.4253 62.7108C41.4017 62.6881 41.3703 62.6753 41.3376 62.6752V62.6718ZM84.7316 64.4496C84.7234 64.4206 84.7052 64.3956 84.6803 64.3788C84.6553 64.3621 84.6252 64.3547 84.5954 64.3581C84.5655 64.3615 84.5378 64.3754 84.5173 64.3973C84.4967 64.4192 84.4846 64.4477 84.483 64.4778V65.3243C84.483 65.358 84.4964 65.3903 84.5202 65.414C84.5439 65.4378 84.5762 65.4512 84.6098 65.4512C84.6434 65.4512 84.6757 65.4378 84.6995 65.414C84.7232 65.3903 84.7366 65.358 84.7366 65.3243V64.4811C84.7362 64.4715 84.7345 64.462 84.7316 64.4529V64.4496ZM53.2655 67.2024H52.4195C52.3924 67.2023 52.3659 67.211 52.3441 67.2273C52.6689 67.3019 52.9945 67.3738 53.321 67.4429C53.3425 67.4327 53.3606 67.4166 53.3732 67.3965C53.3859 67.3764 53.3925 67.353 53.3922 67.3293C53.3916 67.2961 53.3779 67.2646 53.3542 67.2415C53.3305 67.2183 53.2986 67.2055 53.2655 67.2057V67.2024ZM54.9574 67.2024H54.1114C54.0778 67.2024 54.0456 67.2158 54.0218 67.2396C53.998 67.2634 53.9847 67.2956 53.9847 67.3293C53.9847 67.3629 53.998 67.3952 54.0218 67.419C54.0456 67.4428 54.0778 67.4561 54.1114 67.4561H54.9574C54.991 67.4561 55.0233 67.4428 55.047 67.419C55.0708 67.3952 55.0842 67.3629 55.0842 67.3293C55.0842 67.2956 55.0708 67.2634 55.047 67.2396C55.0233 67.2158 54.991 67.2024 54.9574 67.2024ZM56.6493 67.2024H55.8033C55.7697 67.2024 55.7375 67.2158 55.7137 67.2396C55.6899 67.2634 55.6766 67.2956 55.6766 67.3293C55.6766 67.3629 55.6899 67.3952 55.7137 67.419C55.7375 67.4428 55.7697 67.4561 55.8033 67.4561H56.6493C56.6829 67.4561 56.7152 67.4428 56.7389 67.419C56.7627 67.3952 56.7761 67.3629 56.7761 67.3293C56.7761 67.2956 56.7627 67.2634 56.7389 67.2396C56.7152 67.2158 56.6829 67.2024 56.6493 67.2024ZM58.342 67.2024H57.4953C57.4616 67.2024 57.4294 67.2158 57.4056 67.2396C57.3818 67.2634 57.3685 67.2956 57.3685 67.3293C57.3685 67.3629 57.3818 67.3952 57.4056 67.419C57.4294 67.4428 57.4616 67.4561 57.4953 67.4561H58.342C58.3757 67.4561 58.4079 67.4428 58.4317 67.419C58.4555 67.3952 58.4688 67.3629 58.4688 67.3293C58.4688 67.2956 58.4555 67.2634 58.4317 67.2396C58.4079 67.2158 58.3757 67.2024 58.342 67.2024ZM60.034 67.2024H59.188C59.1544 67.2024 59.1221 67.2158 59.0984 67.2396C59.0746 67.2634 59.0612 67.2956 59.0612 67.3293C59.0612 67.3629 59.0746 67.3952 59.0984 67.419C59.1221 67.4428 59.1544 67.4561 59.188 67.4561H60.034C60.0676 67.4561 60.0998 67.4428 60.1236 67.419C60.1474 67.3952 60.1607 67.3629 60.1607 67.3293C60.1607 67.2956 60.1474 67.2634 60.1236 67.2396C60.0998 67.2158 60.0676 67.2024 60.034 67.2024ZM61.7259 67.2024H60.8799C60.8463 67.2024 60.8141 67.2158 60.7903 67.2396C60.7665 67.2634 60.7531 67.2956 60.7531 67.3293C60.7531 67.3629 60.7665 67.3952 60.7903 67.419C60.8141 67.4428 60.8463 67.4561 60.8799 67.4561H61.7275C61.7612 67.4561 61.7934 67.4428 61.8172 67.419C61.8409 67.3952 61.8543 67.3629 61.8543 67.3293C61.8543 67.2956 61.8409 67.2634 61.8172 67.2396C61.7934 67.2158 61.7612 67.2024 61.7275 67.2024H61.7259ZM63.4178 67.2024H62.5718C62.5382 67.2024 62.506 67.2158 62.4822 67.2396C62.4584 67.2634 62.4451 67.2956 62.4451 67.3293C62.4451 67.3629 62.4584 67.3952 62.4822 67.419C62.506 67.4428 62.5382 67.4561 62.5718 67.4561H63.4178C63.4514 67.4561 63.4837 67.4428 63.5074 67.419C63.5312 67.3952 63.5446 67.3629 63.5446 67.3293C63.5446 67.2956 63.5312 67.2634 63.5074 67.2396C63.4837 67.2158 63.4514 67.2024 63.4178 67.2024ZM65.1097 67.2024H64.2637C64.2301 67.2024 64.1979 67.2158 64.1741 67.2396C64.1503 67.2634 64.137 67.2956 64.137 67.3293C64.137 67.3629 64.1503 67.3952 64.1741 67.419C64.1979 67.4428 64.2301 67.4561 64.2637 67.4561H65.1097C65.1433 67.4561 65.1756 67.4428 65.1993 67.419C65.2231 67.3952 65.2365 67.3629 65.2365 67.3293C65.2365 67.2956 65.2231 67.2634 65.1993 67.2396C65.1756 67.2158 65.1433 67.2024 65.1097 67.2024ZM66.8024 67.2024H65.9532C65.9225 67.2027 65.8931 67.2142 65.8703 67.2347C65.8567 67.2464 65.8457 67.2609 65.8383 67.2772C65.8308 67.2936 65.8271 67.3113 65.8272 67.3293C65.8272 67.3629 65.8406 67.3952 65.8644 67.419C65.8881 67.4428 65.9204 67.4561 65.954 67.4561H66.8008C66.8344 67.4561 66.8667 67.4428 66.8904 67.419C66.9142 67.3952 66.9276 67.3629 66.9276 67.3293C66.9276 67.2956 66.9142 67.2634 66.8904 67.2396C66.8667 67.2158 66.8344 67.2024 66.8008 67.2024H66.8024ZM68.4944 67.2024H67.6484C67.6148 67.2024 67.5825 67.2158 67.5588 67.2396C67.535 67.2634 67.5216 67.2956 67.5216 67.3293C67.5216 67.3629 67.535 67.3952 67.5588 67.419C67.5825 67.4428 67.6148 67.4561 67.6484 67.4561H68.4944C68.528 67.4561 68.5602 67.4428 68.584 67.419C68.6078 67.3952 68.6211 67.3629 68.6211 67.3293C68.6211 67.2956 68.6078 67.2634 68.584 67.2396C68.5602 67.2158 68.528 67.2024 68.4944 67.2024ZM70.1863 67.2024H69.3403C69.3067 67.2024 69.2745 67.2158 69.2507 67.2396C69.2269 67.2634 69.2135 67.2956 69.2135 67.3293C69.2135 67.3629 69.2269 67.3952 69.2507 67.419C69.2745 67.4428 69.3067 67.4561 69.3403 67.4561H70.1863C70.2199 67.4561 70.2521 67.4428 70.2759 67.419C70.2997 67.3952 70.313 67.3629 70.313 67.3293C70.313 67.2956 70.2997 67.2634 70.2759 67.2396C70.2521 67.2158 70.2199 67.2024 70.1863 67.2024ZM71.8782 67.2024H71.0322C70.9986 67.2024 70.9664 67.2158 70.9426 67.2396C70.9188 67.2634 70.9055 67.2956 70.9055 67.3293C70.9055 67.3629 70.9188 67.3952 70.9426 67.419C70.9664 67.4428 70.9986 67.4561 71.0322 67.4561H71.8782C71.9118 67.4561 71.9441 67.4428 71.9678 67.419C71.9916 67.3952 72.005 67.3629 72.005 67.3293C72.005 67.2956 71.9916 67.2634 71.9678 67.2396C71.9441 67.2158 71.9118 67.2024 71.8782 67.2024ZM73.5701 67.2024H72.7241C72.6905 67.2024 72.6583 67.2158 72.6345 67.2396C72.6107 67.2634 72.5974 67.2956 72.5974 67.3293C72.5974 67.3629 72.6107 67.3952 72.6345 67.419C72.6583 67.4428 72.6905 67.4561 72.7241 67.4561H73.5701C73.6037 67.4561 73.636 67.4428 73.6597 67.419C73.6835 67.3952 73.6969 67.3629 73.6969 67.3293C73.6969 67.2956 73.6835 67.2634 73.6597 67.2396C73.636 67.2158 73.6037 67.2024 73.5701 67.2024ZM75.262 67.2024H74.4161C74.3824 67.2024 74.3502 67.2158 74.3264 67.2396C74.3027 67.2634 74.2893 67.2956 74.2893 67.3293C74.2893 67.3629 74.3027 67.3952 74.3264 67.419C74.3502 67.4428 74.3824 67.4561 74.4161 67.4561H75.262C75.2956 67.4561 75.3279 67.4428 75.3517 67.419C75.3754 67.3952 75.3888 67.3629 75.3888 67.3293C75.3888 67.2956 75.3754 67.2634 75.3517 67.2396C75.3279 67.2158 75.2956 67.2024 75.262 67.2024ZM76.9548 67.2024H76.1088C76.0752 67.2024 76.0429 67.2158 76.0192 67.2396C75.9954 67.2634 75.982 67.2956 75.982 67.3293C75.982 67.3629 75.9954 67.3952 76.0192 67.419C76.0429 67.4428 76.0752 67.4561 76.1088 67.4561H76.9548C76.9884 67.4561 77.0206 67.4428 77.0444 67.419C77.0682 67.3952 77.0815 67.3629 77.0815 67.3293C77.0815 67.2956 77.0682 67.2634 77.0444 67.2396C77.0206 67.2158 76.9884 67.2024 76.9548 67.2024ZM78.6467 67.2024H77.8016C77.7679 67.2024 77.7357 67.2158 77.7119 67.2396C77.6881 67.2634 77.6748 67.2956 77.6748 67.3293C77.6748 67.3629 77.6881 67.3952 77.7119 67.419C77.7357 67.4428 77.7679 67.4561 77.8016 67.4561H78.6467C78.6803 67.4561 78.7125 67.4428 78.7363 67.419C78.7601 67.3952 78.7734 67.3629 78.7734 67.3293C78.7734 67.2956 78.7601 67.2634 78.7363 67.2396C78.7125 67.2158 78.6803 67.2024 78.6467 67.2024ZM80.3386 67.2024H79.4926C79.4606 67.2021 79.4296 67.2142 79.4062 67.2361C79.3827 67.258 79.3686 67.2881 79.3667 67.3201C79.3662 67.3232 79.3662 67.3262 79.3667 67.3293C79.3666 67.346 79.3698 67.3625 79.3761 67.3779C79.3825 67.3934 79.3918 67.4074 79.4036 67.4192C79.4154 67.431 79.4294 67.4404 79.4448 67.4467C79.4603 67.453 79.4768 67.4562 79.4935 67.4561H79.7901C80.0105 67.3948 80.2301 67.3318 80.448 67.2654C80.4366 67.2467 80.4205 67.2313 80.4013 67.2209C80.3821 67.2104 80.3605 67.2052 80.3386 67.2057V67.2024Z" fill="#ED7D2B"/>
<path d="M43.0634 47.605H35.4581C34.3809 47.605 33.5077 48.4789 33.5077 49.5569V50.7335C33.5077 51.8115 34.3809 52.6853 35.4581 52.6853H43.0634C44.1406 52.6853 45.0139 51.8115 45.0139 50.7335V49.5569C45.0139 48.4789 44.1406 47.605 43.0634 47.605Z" fill="#ED7D2B"/>
<path d="M90.9807 54.2276C90.9807 54.2533 90.9807 54.2781 90.9807 54.303C90.9534 55.2938 90.8347 56.2801 90.6261 57.249C90.6261 57.2548 90.6261 57.2607 90.6261 57.2665C90.6261 57.2723 90.6261 57.2665 90.6261 57.2706C90.5532 57.6095 90.4703 57.9455 90.3775 58.2789C90.1835 58.9632 89.9441 59.6339 89.6608 60.2863C89.6612 60.2871 89.6614 60.2879 89.6614 60.2888C89.6614 60.2896 89.6612 60.2905 89.6608 60.2913C89.3034 61.1184 88.8768 61.914 88.3856 62.6693C88.2409 62.8932 88.0898 63.1143 87.9324 63.3326C87.6117 63.77 87.2684 64.1904 86.9042 64.5922C86.5214 64.8 86.1347 65.0007 85.7442 65.1941C85.1487 65.4871 84.5411 65.7635 83.9214 66.0233C83.8186 66.067 83.7151 66.1101 83.6107 66.1526C83.43 66.2262 83.2483 66.2983 83.0655 66.3691C82.8009 66.4719 82.5346 66.5717 82.2667 66.6684C81.6724 66.8829 81.0673 67.0824 80.4514 67.2671C80.2334 67.3334 80.0139 67.3964 79.7935 67.4578C78.945 67.6966 78.0773 67.9072 77.1902 68.0896C76.5103 68.2667 75.8178 68.3906 75.1188 68.4602C73.4548 68.7141 71.7779 68.8749 70.096 68.942C69.8135 68.9544 69.5285 68.9635 69.2426 68.9702C68.1811 68.5751 67.1643 68.0687 66.2093 67.4594C66.0949 67.3881 65.9822 67.3135 65.8704 67.238C62.3772 64.8764 59.9446 61.2421 59.0919 57.1106C59.0795 57.0509 59.0671 56.9912 59.0563 56.9306C59.0193 56.7399 58.9859 56.5489 58.956 56.3577C58.6169 54.1691 58.7308 51.9342 59.2906 49.7915C59.8505 47.6489 60.8444 45.6442 62.2106 43.9019C62.8757 43.0528 63.6252 42.2735 64.4477 41.5761C64.7957 41.2809 65.1584 40.9996 65.5356 40.732C65.8433 40.5109 66.1604 40.3019 66.4868 40.1052C66.5973 40.0372 66.7078 39.9708 66.8182 39.9062C66.9066 39.8548 66.9961 39.8042 67.0867 39.7544C67.8195 39.3517 68.5824 39.0065 69.3686 38.7221C69.8992 38.5275 70.44 38.3614 70.9884 38.2246C74.4933 37.3535 78.1891 37.6867 81.4821 39.1707C81.7417 39.2868 81.9983 39.41 82.2518 39.5405C82.3562 39.5958 82.4598 39.6511 82.5625 39.7063C82.8233 39.8473 83.0801 39.996 83.3331 40.1524C83.7258 40.394 84.1086 40.6532 84.4815 40.9302C84.5643 40.9924 84.6472 41.057 84.735 41.1217C84.8875 41.2395 85.0383 41.3613 85.1874 41.4857C85.2918 41.572 85.3954 41.6604 85.4981 41.7511C85.6682 41.9003 85.8356 42.0534 86.0002 42.2104L86.0052 42.2154C86.4258 42.6178 86.8241 43.043 87.1983 43.489C87.3044 43.6142 87.4079 43.7427 87.509 43.8721C87.8139 44.259 88.1023 44.6612 88.374 45.0785C88.3964 45.1133 88.4188 45.1482 88.4403 45.183C88.4619 45.2178 88.471 45.2294 88.4842 45.2526C88.5356 45.3356 88.5853 45.4118 88.6334 45.4923C88.7538 45.6885 88.8698 45.8883 88.9814 46.0918C89.3587 46.7768 89.6863 47.4881 89.9616 48.2202C89.9619 48.2219 89.9619 48.2236 89.9616 48.2252C90.6823 50.1422 91.0283 52.1799 90.9807 54.2276Z" fill="#E2810E"/>
<path d="M89.5239 57.2482C89.5239 57.2557 89.5239 57.2631 89.5239 57.2698C89.3458 58.2995 89.0683 59.3094 88.6953 60.2855C88.6957 60.2871 88.6957 60.2888 88.6953 60.2904C88.5959 60.553 88.4893 60.8131 88.3755 61.0707C88.1209 61.649 87.832 62.2116 87.5105 62.7556C87.41 62.9264 87.3064 63.0947 87.1998 63.2605C87.1857 63.2837 87.1708 63.3061 87.1559 63.3285C86.7313 63.9852 86.2588 64.6096 85.7423 65.1966C85.1469 65.4896 84.5393 65.766 83.9195 66.0258C83.8168 66.0695 83.7132 66.1126 83.6088 66.1551C83.4282 66.2287 83.2465 66.3008 83.0636 66.3716C82.799 66.4744 82.5328 66.5741 82.2649 66.6709C81.6706 66.8854 81.0654 67.0849 80.4495 67.2695C80.2316 67.3359 80.0121 67.3989 79.7917 67.4603C78.9432 67.6991 78.0754 67.9097 77.1883 68.0921C76.5085 68.2691 75.816 68.3931 75.1169 68.4627C73.4535 68.7157 71.7772 68.8757 70.0959 68.942C69.8134 68.9544 69.5283 68.9635 69.2425 68.9702C68.826 68.9807 68.4054 68.9859 67.9806 68.9859C67.4713 68.9859 66.959 68.9801 66.4436 68.9685C64.17 67.8297 62.1974 66.1693 60.6867 64.1228C59.176 62.0762 58.1699 59.7014 57.7504 57.1918C57.733 57.0907 57.7173 56.9887 57.7032 56.8867C57.6805 56.7375 57.6607 56.5877 57.6435 56.4373C57.3054 53.5818 57.7375 50.6879 58.8948 48.056C60.0521 45.4241 61.8925 43.1503 64.2248 41.4708C64.3352 41.3907 64.4482 41.3116 64.5636 41.2337C64.8951 41.0065 65.2383 40.7909 65.5935 40.5869C65.6838 40.5339 65.7758 40.4825 65.8678 40.4319C66.0741 40.3175 66.2821 40.2088 66.4917 40.1052C66.5977 40.0521 66.7038 40.0007 66.8107 39.9501C66.9176 39.8996 67.0046 39.8606 67.1015 39.8175C67.725 39.5393 68.3657 39.3014 69.0196 39.1052L69.2035 39.0513C69.7885 38.8825 70.3828 38.7477 70.9833 38.6475C71.3009 38.5922 71.6185 38.5488 71.9361 38.5173C74.1338 38.2839 76.3559 38.5054 78.4643 39.1682C78.8582 39.292 79.2467 39.4302 79.6301 39.5828C79.7345 39.6243 79.8381 39.6657 79.9408 39.7113C80.2082 39.8219 80.4727 39.9424 80.7346 40.0728C81.2553 40.3275 81.7617 40.6104 82.2516 40.9203C82.356 40.9849 82.4596 41.0521 82.5624 41.1217C83.0672 41.4545 83.5524 41.816 84.0156 42.2046L84.0214 42.2096C84.1043 42.2784 84.1872 42.3489 84.27 42.4202C84.3529 42.4915 84.4167 42.5496 84.4887 42.6151L84.5807 42.698L84.7423 42.8489C85.045 43.1358 85.3372 43.4362 85.6189 43.7502C86.0227 44.2045 86.4003 44.6815 86.7499 45.1789C86.7648 45.2004 86.7805 45.2211 86.7946 45.2427C87.1413 45.732 87.4605 46.2403 87.7508 46.7651C87.9579 47.1415 88.1485 47.5224 88.3225 47.9077C88.3399 47.9458 88.3573 47.9839 88.3738 48.0221C88.402 48.0859 88.4302 48.1506 88.4567 48.2144V48.2194C88.5699 48.4859 88.676 48.7534 88.7749 49.022C88.8892 49.333 88.9919 49.6456 89.0856 49.9598C89.2137 50.3905 89.3242 50.823 89.417 51.2575C89.535 51.8236 89.6221 52.3958 89.678 52.9714C89.7194 53.386 89.7434 53.808 89.7509 54.2251C89.7509 54.2508 89.7509 54.2757 89.7509 54.3005C89.7657 55.288 89.6897 56.2747 89.5239 57.2482Z" fill="#FFB93E"/>
<path d="M88.4129 54.3022C88.4129 54.2765 88.4129 54.2516 88.4129 54.2268C88.4071 54.0004 88.3938 53.7749 88.3764 53.5493C88.315 52.7774 88.1922 52.0116 88.0094 51.2592C87.9663 51.0834 87.9199 50.9093 87.871 50.7351C87.6253 49.8692 87.3008 49.0277 86.9016 48.2211V48.2161C86.8038 48.0171 86.7011 47.8206 86.5934 47.6249C86.2687 47.0351 85.9044 46.468 85.503 45.9276C85.4019 45.7916 85.2975 45.6565 85.1923 45.5246C85.1177 45.4318 85.0423 45.3389 84.9661 45.2485L84.9072 45.1789C84.8517 45.1134 84.7962 45.0487 84.7415 44.9848C84.6868 44.921 84.6346 44.8638 84.58 44.8041C84.5501 44.7701 84.5187 44.7369 84.488 44.7038C84.4159 44.6266 84.3438 44.5495 84.2693 44.4741C83.5669 43.7485 82.7901 43.099 81.9518 42.5363C81.849 42.4667 81.7455 42.3987 81.6411 42.3323L81.4472 42.2113L81.4389 42.2063C80.9555 41.9097 80.4553 41.6414 79.9409 41.4028C79.8381 41.3547 79.7346 41.3083 79.6302 41.2627C79.0398 41.0053 78.4334 40.7865 77.8148 40.6077C76.4711 40.2172 75.0787 40.0201 73.6795 40.0223C72.2915 40.0276 70.9114 40.232 69.5814 40.6292C69.1638 40.753 68.7512 40.8962 68.3436 41.0587C67.7639 41.2894 67.1994 41.5564 66.6533 41.858C66.4818 41.9526 66.3119 42.0504 66.1454 42.1516C65.6839 42.431 65.238 42.7355 64.8098 43.0637C64.4656 43.3257 64.1342 43.6021 63.8155 43.8928C63.6222 44.0675 63.4349 44.248 63.2537 44.4343C61.7314 45.9939 60.5733 47.8716 59.8626 49.9325C59.1518 51.9935 58.9062 54.1863 59.1433 56.3536C59.1648 56.5509 59.1908 56.7477 59.2211 56.944C59.2294 56.9987 59.2377 57.0542 59.2468 57.1098C59.5924 59.1775 60.3738 61.1479 61.5391 62.8901C62.7043 64.6322 64.2269 66.1062 66.0054 67.214C66.1462 67.3014 66.2887 67.386 66.4329 67.4678C67.4507 68.0452 68.5335 68.4995 69.6585 68.821C69.8043 68.863 69.9507 68.9028 70.0976 68.9404C71.7781 68.8737 73.4535 68.7135 75.1162 68.4603C72.8351 68.6833 70.5342 68.3389 68.4181 67.4578C68.2242 67.3771 68.0328 67.2925 67.8439 67.2041C65.839 66.2532 64.0916 64.8342 62.7489 63.0666C61.4062 61.299 60.5075 59.2345 60.1284 57.0468C60.1234 57.0194 60.1193 56.992 60.1151 56.9639C60.0779 56.7408 60.0464 56.5161 60.0207 56.2914C59.8011 54.3414 59.997 52.367 60.5954 50.4983C61.1938 48.6296 62.1811 46.909 63.4923 45.45C63.6879 45.2344 63.8901 45.0249 64.0989 44.8215C64.2171 44.7065 64.3378 44.5932 64.4609 44.4815C65.2579 43.7624 66.1351 43.1375 67.075 42.6192C67.3567 42.4639 67.6418 42.3191 67.9301 42.1847C70.9473 40.774 74.3748 40.512 77.5712 41.4476C78.2633 41.6475 78.9389 41.9006 79.592 42.2046L79.6028 42.2096C80.3147 42.5419 80.9966 42.935 81.6411 43.3845C81.7455 43.4575 81.849 43.5319 81.9518 43.6076C82.5873 44.0785 83.1809 44.6036 83.7257 45.1772L83.792 45.2469C84.0317 45.5022 84.2615 45.767 84.4814 46.0412C84.5642 46.1482 84.6471 46.2568 84.7349 46.3671C84.8912 46.5744 85.042 46.7866 85.1873 47.0039C85.2942 47.1631 85.3986 47.3248 85.498 47.4898C85.6085 47.6722 85.7165 47.8576 85.822 48.0461C85.8526 48.1017 85.8833 48.1581 85.9131 48.212C85.996 48.3662 86.0788 48.5221 86.1509 48.6796C86.5518 49.5027 86.8696 50.3638 87.0996 51.25C87.3526 52.2202 87.4974 53.2155 87.5313 54.2176V54.2931C87.5598 55.2806 87.4817 56.2684 87.2985 57.2391C87.2985 57.2458 87.2985 57.2532 87.2985 57.2607C87.2206 57.6725 87.1234 58.0827 87.0068 58.4912L86.9919 58.5434C86.8212 59.1341 86.6119 59.713 86.3655 60.2764V60.2814C85.9339 61.2683 85.3871 62.2007 84.7366 63.0591C84.6835 63.1287 84.6297 63.1984 84.575 63.2672L84.5336 63.3194L84.483 63.3833C84.3024 63.6044 84.1146 63.8219 83.9196 64.0358C83.8194 64.1478 83.715 64.2572 83.6089 64.3675C82.9095 65.0805 82.1347 65.7153 81.298 66.2605C81.245 66.2962 81.1912 66.331 81.1373 66.3633C80.897 66.5164 80.6512 66.6624 80.3999 66.8011C80.1486 66.9399 79.8901 67.0747 79.6244 67.2058C79.5415 67.2464 79.4545 67.2887 79.3683 67.3235C78.6646 67.6405 77.9354 67.8973 77.1884 68.0913C78.0755 67.9089 78.9433 67.6983 79.7917 67.4595C80.0121 67.3981 80.2317 67.3351 80.4496 67.2688C81.0649 67.0836 81.6701 66.884 82.265 66.6701C82.402 66.5723 82.537 66.4725 82.6701 66.3708C82.9949 66.1226 83.3079 65.8622 83.6089 65.5897C83.7141 65.4943 83.8177 65.3982 83.9196 65.2995C84.1124 65.1143 84.3002 64.9242 84.483 64.729C84.5675 64.6378 84.6504 64.5458 84.7316 64.4529C85.0498 64.093 85.3497 63.7183 85.6314 63.3286C86.2529 62.4682 86.7783 61.5423 87.1982 60.5674C87.238 60.4762 87.2769 60.3833 87.315 60.2905C87.315 60.2905 87.315 60.2905 87.315 60.2855C87.5134 59.7974 87.686 59.2992 87.8321 58.793C87.8917 58.5857 87.9472 58.3784 87.9978 58.1695C88.0707 57.8693 88.1342 57.5683 88.1883 57.2665C88.1883 57.259 88.1883 57.2516 88.1925 57.2449C88.219 57.0949 88.243 56.944 88.2646 56.7939C88.3121 56.4705 88.3482 56.1466 88.3731 55.8221C88.4131 55.3165 88.4264 54.8092 88.4129 54.3022Z" fill="#79111E"/>
<path d="M81.1514 57.2698C81.1518 57.2626 81.1518 57.2554 81.1514 57.2482C81.0933 56.8601 80.9878 56.4805 80.8374 56.1181C80.8059 56.0352 80.7719 55.9614 80.7379 55.8859C80.5319 55.4138 80.2438 54.982 79.887 54.6106C79.8456 54.5692 79.8041 54.5277 79.7611 54.4896C79.7006 54.4349 79.6393 54.3818 79.5763 54.3304L79.5415 54.3022L79.4437 54.2267C79.0732 53.9497 78.6613 53.7328 78.2233 53.5841C77.5914 53.3735 76.9339 53.2499 76.2687 53.2168C75.5506 53.172 74.7684 53.1618 73.9222 53.1861C73.4755 53.2036 73.0281 53.1945 72.5824 53.1588C72.2596 53.1356 71.9417 53.0661 71.6387 52.9523C71.3985 52.8609 71.1829 52.7147 71.009 52.5253L70.9916 52.5046C70.9742 52.4847 70.9568 52.4639 70.9411 52.4432C70.8822 52.3706 70.8288 52.2939 70.7811 52.2135C70.715 52.1017 70.6574 51.985 70.6088 51.8644C70.5063 51.618 70.445 51.3564 70.4274 51.09C70.4101 50.8415 70.4492 50.5924 70.5417 50.3612C70.6399 50.1241 70.7887 49.9113 70.9775 49.7376C70.9815 49.7328 70.9859 49.7284 70.9908 49.7244C71.2315 49.5097 71.5095 49.3411 71.811 49.2269C72.29 49.0323 72.7446 48.9894 73.1748 49.0983C73.3116 49.1327 73.4443 49.1814 73.5709 49.2434C74.1139 49.5088 74.5574 50.0646 74.9016 50.9109L78.1835 49.5776C77.9931 49.0996 77.7473 48.6457 77.451 48.2252V48.2202C77.3457 48.0728 77.2326 47.9311 77.1122 47.7957C76.7096 47.3289 76.2175 46.9477 75.665 46.6748C75.1125 46.4019 74.5108 46.2428 73.8957 46.207C73.2289 46.1651 72.5598 46.2338 71.9154 46.4102L71.6702 45.8115L71.4133 45.1789L70.9908 44.1374L70.9817 44.115L69.163 44.858L69.5772 45.8886L70.0744 47.1158C69.999 47.1548 69.9252 47.1987 69.8532 47.236C69.7587 47.2883 69.6667 47.3422 69.5764 47.4019C69.1525 47.6574 68.7599 47.9615 68.4065 48.3081C67.9747 48.7283 67.6209 49.2218 67.3617 49.7658C67.1174 50.2851 66.9855 50.8503 66.9748 51.4242C66.9681 52.0299 67.086 52.6304 67.3211 53.1886C67.6011 53.8785 67.9602 54.4246 68.3982 54.8271C68.731 55.1311 69.1099 55.3802 69.5209 55.565C69.6543 55.6256 69.7927 55.6794 69.9352 55.7309C70.2314 55.829 70.5344 55.9055 70.8416 55.9597C70.8889 55.9688 70.9369 55.9771 70.985 55.9846C71.2845 56.0336 71.5866 56.0657 71.8898 56.0808C72.6733 56.1206 73.4584 56.1206 74.242 56.0808C74.6684 56.0518 75.0962 56.0546 75.5222 56.0891C75.8433 56.1129 76.1592 56.1833 76.4601 56.298C76.7101 56.3949 76.9348 56.5475 77.1171 56.7441C77.2539 56.8963 77.3688 57.0668 77.4585 57.2507L77.4693 57.2723C77.5008 57.3358 77.5306 57.403 77.5588 57.4738C77.662 57.7204 77.7152 57.985 77.7154 58.2524C77.7154 58.3008 77.7129 58.3493 77.7079 58.3975C77.6909 58.6049 77.6347 58.8072 77.5422 58.9936C77.414 59.2447 77.2368 59.4674 77.021 59.6487C76.7586 59.8666 76.4625 60.0405 76.1444 60.1636C76.0301 60.21 75.9141 60.2507 75.7964 60.2855L75.7798 60.2905C75.584 60.3475 75.384 60.3888 75.1816 60.414C74.8544 60.4544 74.5223 60.421 74.2097 60.3162L74.1376 60.2905L74.1244 60.2855C73.8218 60.1634 73.5487 59.9782 73.3232 59.7424C73.047 59.466 72.8075 59.079 72.6048 58.5815L69.6071 59.8004L69.3262 59.9148C69.6687 60.7589 70.0987 61.4281 70.6163 61.9223C70.9113 62.2077 71.2409 62.455 71.5973 62.6586C71.8266 62.7886 72.0674 62.8974 72.3165 62.9836C72.9369 63.1978 73.5922 63.2923 74.2478 63.2622C74.9218 63.2342 75.5897 63.1228 76.2364 62.9305L76.4021 63.3302L77.0873 65.0209L78.8927 64.287L78.5041 63.3302L78.0327 62.1876C78.6469 61.8762 79.2142 61.4798 79.718 61.0102C79.9515 60.7905 80.1648 60.5502 80.3551 60.2921C80.3554 60.2905 80.3554 60.2888 80.3551 60.2871C80.496 60.0954 80.6217 59.893 80.7313 59.6818C80.7512 59.6437 80.7702 59.6056 80.7885 59.5658C81.0347 59.0505 81.1697 58.4891 81.1845 57.9182C81.1912 57.7015 81.1801 57.4847 81.1514 57.2698Z" fill="#FFA412"/>
<path d="M34.468 50.0817C34.468 49.8444 34.5383 49.6125 34.6701 49.4152C34.8018 49.2179 34.9891 49.0641 35.2081 48.9733C35.4272 48.8824 35.6683 48.8587 35.9008 48.905C36.1334 48.9513 36.347 49.0656 36.5147 49.2333C36.6824 49.4011 36.7966 49.6149 36.8428 49.8477C36.8891 50.0804 36.8653 50.3217 36.7746 50.5409C36.6839 50.7601 36.5302 50.9475 36.333 51.0794C36.1359 51.2112 35.9041 51.2816 35.6669 51.2816C35.5095 51.2816 35.3536 51.2505 35.2081 51.1902C35.0627 51.1299 34.9305 51.0416 34.8192 50.9301C34.7078 50.8187 34.6195 50.6865 34.5593 50.5409C34.499 50.3953 34.468 50.2393 34.468 50.0817Z" fill="#FFB93E"/>
<path d="M227.741 144.395H0.25851C0.115739 144.395 0 144.51 0 144.653V144.741C0 144.884 0.115739 145 0.25851 145H227.741C227.884 145 228 144.884 228 144.741V144.653C228 144.51 227.884 144.395 227.741 144.395Z" fill="#2E3552"/>
</g>
<defs>
<clipPath id="clip0_17:576">
<rect width="228" height="145" fill="white"/>
</clipPath>
</defs>
</svg>
